<?xml version="1.0" standalone="no"?><!DOCTYPE svg PUBLIC "-//W3C//DTD SVG 1.1//EN" "http://www.w3.org/Graphics/SVG/1.1/DTD/svg11.dtd" ><svg xmlns="http://www.w3.org/2000/svg"><metadata></metadata><defs><font id="KaiGen Gothic SC Light:Version 1.001" horiz-adv-x="1000"><font-face font-family="KaiGen Gothic SC Light" font-weight="300" font-stretch="normal" units-per-em="1000" panose-1="2 11 1 3 2 2 3 2 2 7" ascent="880" descent="-120" x-height="7" bbox="4 -254 972 880" underline-thickness="50" underline-position="-125" unicode-range="U+0023-ff0c" /><missing-glyph horiz-adv-x="1000" d="M100 880 l800 0 l0 -1000 l-800 0 l0 1000 ZM818 830 l-636 0 l318 -409 l318 409 ZM850 -29 l0 818 l-318 -409 l318 -409 ZM818 -70 l-318 409 l-318 -409 l636 0 ZM150 -29 l318 409 l-318 409 l0 -818 Z" /><glyph glyph-name="" unicode="#" d="M130 235 l-90 0 l0 45 l96 0 l23 182 l-97 0 l0 46 l101 0 l28 212 l43 0 l-27 -212 l161 0 l28 212 l43 0 l-28 -212 l90 0 l0 -46 l-94 0 l-22 -182 l94 0 l0 -45 l-101 0 l-27 -235 l-44 0 l28 235 l-161 0 l-29 -235 l-43 0 l28 235 ZM341 280 l23 182 l-162 0 l-23 -182 l162 0 Z" /><glyph glyph-name="" unicode="%" d="M201 284 q-74 0 -115 60 q-43 61 -43 171 q0 108 43 168 q42 59 115 59 q74 0 116 -59 q42 -60 42 -168 q0 -110 -42 -171 q-42 -60 -116 -60 ZM201 324 q50 0 80 50 q30 51 30 141 q0 89 -30 139 q-30 48 -80 48 q-50 0 -79 -48 q-30 -50 -30 -139 q0 -90 30 -141 q29 -50 79 -50 ZM627 742 l46 0 l-406 -755 l-46 0 l406 755 ZM696 -13 q-74 0 -116 60 q-43 60 -43 170 q0 109 43 169 q42 59 116 59 q73 0 115 -59 q43 -61 43 -169 q0 -110 -43 -170 q-42 -60 -115 -60 ZM696 27 q50 0 79 49 q30 51 30 141 q0 90 -30 140 q-29 48 -79 48 q-51 0 -80 -48 q-30 -50 -30 -140 q0 -90 30 -141 q29 -49 80 -49 Z" /><glyph glyph-name="" unicode="&amp;" d="M98 189 q0 -68 47 -111 q46 -42 113 -42 q81 0 157 73 q-125 112 -205 248 q-112 -88 -112 -168 ZM191 579 q0 -64 39 -149 q139 99 139 175 q0 91 -78 91 q-45 0 -73 -34 q-27 -33 -27 -83 ZM612 -13 q-76 24 -158 89 q-91 -89 -202 -89 q-92 0 -151 55 q-62 55 -62 144 q0 106 148 213 q-49 101 -49 179 q0 71 43 117 q44 47 112 47 q59 0 93 -38 q33 -37 33 -96 q0 -63 -53 -122 q-30 -33 -114 -97 q75 -132 199 -239 q72 92 113 234 l55 0 q-47 -159 -129 -267 q77 -58 140 -80 l-18 -50 Z" /><glyph glyph-name="" unicode="(" d="M242 -193 q-146 236 -146 501 q0 266 146 502 l36 -19 q-132 -214 -132 -483 q0 -271 132 -483 l-36 -18 Z" /><glyph glyph-name="" unicode=")" d="M37 -175 q132 212 132 483 q0 269 -132 483 l36 19 q146 -236 146 -502 q0 -265 -146 -501 l-36 18 Z" /><glyph glyph-name="" unicode="-&#x2011;" d="M45 301 l246 0 l0 -49 l-246 0 l0 49 Z" /><glyph glyph-name="" unicode="." d="M125 -13 q-21 0 -36 15 q-15 15 -15 39 q0 25 15 40 q15 15 36 15 q21 0 36 -15 q15 -15 15 -40 q0 -24 -15 -39 q-15 -15 -36 -15 Z" /><glyph glyph-name="" unicode="/" d="M339 786 l48 0 l-330 -963 l-47 0 l329 963 Z" /><glyph glyph-name="" unicode="0" d="M268 -13 q-102 0 -157 94 q-58 98 -58 286 q0 186 58 282 q55 93 157 93 q101 0 157 -93 q57 -96 57 -282 q0 -188 -57 -286 q-56 -94 -157 -94 ZM268 36 q72 0 113 83 q43 86 43 248 q0 159 -43 244 q-41 82 -113 82 q-73 0 -114 -82 q-43 -85 -43 -244 q0 -162 43 -248 q41 -83 114 -83 Z" /><glyph glyph-name="" unicode="1" d="M92 51 l165 0 l0 593 l-127 0 l0 39 q83 14 139 46 l47 0 l0 -678 l152 0 l0 -51 l-376 0 l0 51 Z" /><glyph glyph-name="" unicode="2" d="M45 36 q345 298 345 495 q0 72 -36 115 q-39 47 -113 47 q-88 0 -162 -91 l-37 35 q95 105 205 105 q94 0 149 -57 q53 -57 53 -152 q0 -196 -312 -487 q80 6 120 6 l227 0 l0 -52 l-439 0 l0 36 Z" /><glyph glyph-name="" unicode="3" d="M258 -13 q-133 0 -227 100 l33 39 q83 -89 192 -89 q71 0 116 43 q46 43 46 113 q0 164 -242 164 l0 49 q216 0 216 156 q0 59 -37 95 q-38 36 -101 37 q-90 -1 -160 -77 l-34 40 q90 85 195 86 q87 -1 141 -46 q56 -49 56 -131 q0 -135 -134 -180 l0 -5 q70 -15 113 -62 q47 -52 47 -126 q0 -93 -63 -151 q-62 -55 -157 -55 Z" /><glyph glyph-name="" unicode="4" d="M341 257 l0 269 q0 53 6 121 l-5 0 q-27 -52 -58 -101 l-198 -289 l255 0 ZM501 208 l-103 0 l0 -208 l-57 0 l0 208 l-322 0 l0 37 l322 484 l57 0 l0 -472 l103 0 l0 -49 Z" /><glyph glyph-name="" unicode="5" d="M253 -13 q-128 0 -225 95 l32 41 q82 -86 191 -86 q71 0 120 53 q50 56 50 142 q0 87 -45 137 q-45 50 -122 50 q-62 0 -129 -46 l-38 23 l25 333 l333 0 l0 -51 l-281 0 l-21 -245 q58 35 122 35 q96 0 153 -56 q63 -62 63 -178 q0 -113 -70 -183 q-66 -64 -158 -64 Z" /><glyph glyph-name="" unicode="6" d="M294 36 q59 0 99 52 q39 53 39 132 q0 182 -148 182 q-90 0 -167 -104 q15 -262 177 -262 ZM441 634 q-47 58 -119 58 q-90 0 -143 -75 q-61 -86 -63 -263 q77 95 176 95 q94 0 146 -58 q52 -60 52 -171 q0 -101 -59 -168 q-57 -65 -138 -65 q-108 0 -170 92 q-64 94 -64 265 q0 206 80 309 q68 89 182 89 q92 0 155 -70 l-35 -38 Z" /><glyph glyph-name="" unicode="7" d="M205 0 q17 406 212 678 l-369 0 l0 51 l440 0 l0 -35 q-123 -161 -171 -325 q-40 -138 -49 -369 l-63 0 Z" /><glyph glyph-name="" unicode="8" d="M271 -13 q-98 0 -162 55 q-64 55 -64 139 q0 131 139 208 l0 4 q-100 67 -100 166 q0 79 54 130 q54 50 134 50 q89 0 142 -54 q51 -53 51 -137 q0 -101 -100 -181 l0 -5 q124 -74 124 -190 q0 -79 -60 -131 q-62 -54 -158 -54 ZM322 383 q89 74 89 163 q0 62 -37 103 q-39 43 -103 43 q-57 0 -94 -38 q-37 -37 -37 -95 q0 -66 57 -112 q37 -29 125 -64 ZM271 34 q71 0 116 40 q44 39 44 99 q0 74 -65 123 q-39 29 -147 71 q-119 -71 -119 -183 q0 -64 48 -107 q49 -43 123 -43 Z" /><glyph glyph-name="" unicode="9" d="M250 327 q93 0 170 107 q-10 260 -178 260 q-59 0 -99 -53 q-39 -53 -39 -132 q0 -83 35 -130 q38 -52 111 -52 ZM96 95 q50 -58 127 -58 q84 0 135 76 q59 87 63 264 q-80 -97 -178 -97 q-92 0 -144 59 q-53 60 -53 170 q0 101 59 168 q57 65 138 65 q108 0 170 -86 q65 -90 65 -252 q0 -215 -78 -324 q-67 -93 -178 -93 q-94 0 -161 70 l35 38 Z" /><glyph glyph-name="" unicode=":" d="M125 405 q-21 0 -36 15 q-15 15 -15 39 q0 25 15 40 q15 15 36 15 q21 0 36 -15 q15 -15 15 -40 q0 -24 -15 -39 q-15 -15 -36 -15 ZM125 -13 q-21 0 -36 15 q-15 15 -15 39 q0 25 15 40 q15 15 36 15 q21 0 36 -15 q15 -15 15 -40 q0 -24 -15 -39 q-15 -15 -36 -15 Z" /><glyph glyph-name="" unicode=";" d="M125 405 q-21 0 -36 15 q-15 15 -15 39 q0 25 15 40 q15 15 36 15 q21 0 36 -15 q15 -15 15 -40 q0 -24 -15 -39 q-15 -15 -36 -15 ZM53 -138 q87 45 88 134 q-4 -1 -12 -1 q-52 0 -52 51 q0 23 16 37 q15 13 37 13 q60 0 60 -86 q0 -125 -120 -186 l-17 38 Z" /><glyph glyph-name="" unicode="@" d="M433 -163 q-166 0 -269 101 q-107 105 -107 286 q0 212 134 350 q128 131 311 131 q161 0 257 -98 q94 -97 94 -257 q0 -133 -69 -216 q-61 -74 -139 -74 q-101 0 -108 84 l-2 0 q-71 -77 -136 -77 q-55 0 -90 39 q-38 41 -38 114 q0 90 55 166 q62 84 153 84 q60 0 91 -54 l2 0 l11 45 l42 0 l-40 -211 q-35 -145 65 -145 q58 0 105 63 q51 70 51 178 q0 143 -81 228 q-83 86 -227 86 q-157 0 -272 -118 q-121 -125 -121 -315 q0 -160 93 -254 q90 -92 239 -92 q100 0 184 53 l20 -39 q-94 -58 -208 -58 ZM408 112 q54 0 116 72 l34 188 q-33 53 -80 53 q-69 0 -115 -66 q-42 -61 -42 -136 q0 -111 87 -111 Z" /><glyph glyph-name="" unicode="a" d="M419 293 l-44 132 q-38 107 -80 250 l-4 0 q-31 -110 -79 -250 l-45 -132 l252 0 ZM435 245 l-284 0 l-83 -245 l-60 0 l255 729 l62 0 l255 -729 l-64 0 l-81 245 Z" /><glyph glyph-name="" unicode="b" d="M106 729 l201 0 q243 0 243 -177 q0 -125 -112 -159 l0 -5 q156 -27 156 -175 q0 -103 -74 -159 q-72 -54 -198 -54 l-216 0 l0 729 ZM288 411 q202 0 202 134 q0 72 -50 105 q-46 30 -146 30 l-128 0 l0 -269 l122 0 ZM308 50 q227 0 227 163 q0 150 -227 150 l-142 0 l0 -313 l142 0 Z" /><glyph glyph-name="" unicode="c" d="M368 -13 q-137 0 -221 102 q-87 103 -87 276 q0 173 88 276 q86 101 226 101 q117 0 192 -88 l-34 -39 q-65 73 -158 73 q-116 0 -183 -87 q-68 -86 -68 -234 q0 -150 67 -238 q67 -88 181 -88 q101 0 181 88 l34 -38 q-90 -104 -218 -104 Z" /><glyph glyph-name="" unicode="d" d="M106 729 l172 0 q165 0 251 -97 q83 -94 83 -265 q0 -172 -83 -267 q-86 -100 -250 -100 l-173 0 l0 729 ZM272 51 q139 0 211 87 q66 82 66 229 q0 147 -66 227 q-71 85 -211 85 l-106 0 l0 -628 l106 0 Z" /><glyph glyph-name="" unicode="e" d="M106 729 l403 0 l0 -51 l-343 0 l0 -266 l289 0 l0 -51 l-289 0 l0 -309 l354 0 l0 -52 l-414 0 l0 729 Z" /><glyph glyph-name="" unicode="f" d="M106 729 l402 0 l0 -51 l-342 0 l0 -281 l289 0 l0 -51 l-289 0 l0 -346 l-60 0 l0 729 Z" /><glyph glyph-name="" unicode="g" d="M376 -13 q-142 0 -228 102 q-88 103 -88 276 q0 173 91 276 q88 101 234 101 q118 0 202 -88 l-35 -39 q-68 73 -166 73 q-121 0 -192 -87 q-71 -86 -71 -234 q0 -151 68 -238 q69 -88 191 -88 q103 0 155 52 l0 219 l-169 0 l0 51 l227 0 l0 -293 q-78 -83 -219 -83 Z" /><glyph glyph-name="" unicode="h" d="M106 729 l60 0 l0 -316 l379 0 l0 316 l59 0 l0 -729 l-59 0 l0 361 l-379 0 l0 -361 l-60 0 l0 729 Z" /><glyph glyph-name="" unicode="i" d="M106 729 l60 0 l0 -729 l-60 0 l0 729 Z" /><glyph glyph-name="" unicode="l" d="M106 729 l60 0 l0 -677 l332 0 l0 -52 l-392 0 l0 729 Z" /><glyph glyph-name="" unicode="m" d="M106 729 l80 0 l207 -579 l4 0 l54 160 l150 419 l80 0 l0 -729 l-57 0 l0 462 q0 59 7 201 l-4 0 l-57 -163 l-153 -422 l-48 0 l-154 422 l-57 163 l-4 0 q7 -142 7 -201 l0 -462 l-55 0 l0 729 Z" /><glyph glyph-name="" unicode="n" d="M106 729 l62 0 l298 -501 l81 -147 l5 0 q-8 144 -8 216 l0 432 l57 0 l0 -729 l-62 0 l-297 502 l-82 146 l-5 0 q8 -187 8 -211 l0 -437 l-57 0 l0 729 Z" /><glyph glyph-name="" unicode="o" d="M362 -13 q-134 0 -217 103 q-85 105 -85 277 q0 171 85 274 q83 101 217 101 q135 0 218 -101 q85 -103 85 -274 q0 -172 -85 -277 q-83 -103 -218 -103 ZM362 41 q109 0 175 89 q66 89 66 237 q0 148 -66 235 q-66 86 -175 86 q-109 0 -173 -86 q-66 -87 -66 -235 q0 -148 66 -237 q65 -89 173 -89 Z" /><glyph glyph-name="" unicode="p" d="M106 729 l189 0 q266 0 266 -205 q0 -107 -70 -163 q-68 -53 -192 -53 l-133 0 l0 -308 l-60 0 l0 729 ZM287 358 q109 0 161 39 q52 40 52 127 q0 86 -54 122 q-50 33 -163 33 l-117 0 l0 -321 l121 0 Z" /><glyph glyph-name="" unicode="q" d="M123 367 q0 -150 66 -239 q65 -90 173 -90 q109 0 175 90 q66 89 66 239 q0 148 -66 235 q-66 86 -175 86 q-109 0 -173 -86 q-66 -87 -66 -235 ZM671 -161 q-37 -13 -93 -13 q-183 0 -247 163 q-122 12 -195 113 q-76 103 -76 265 q0 171 85 274 q83 101 217 101 q135 0 218 -101 q85 -103 85 -274 q0 -160 -74 -263 q-73 -101 -194 -115 q50 -110 187 -110 q44 0 74 10 l13 -50 Z" /><glyph glyph-name="" unicode="r" d="M166 379 l139 0 q196 0 196 155 q0 145 -196 145 l-139 0 l0 -300 ZM509 0 l-194 329 l-149 0 l0 -329 l-60 0 l0 729 l213 0 q243 0 243 -195 q0 -172 -182 -200 l197 -334 l-68 0 Z" /><glyph glyph-name="" unicode="s" d="M299 -13 q-151 0 -248 109 l37 42 q86 -97 211 -97 q80 0 128 39 q47 38 47 101 q0 60 -37 95 q-25 23 -92 53 l-109 48 q-148 66 -148 182 q0 80 62 132 q60 51 154 51 q125 0 206 -88 l-34 -39 q-71 73 -172 73 q-70 0 -112 -34 q-43 -34 -43 -90 q0 -83 124 -137 l109 -48 q74 -33 108 -69 q45 -49 45 -125 q0 -85 -64 -141 q-66 -57 -172 -57 Z" /><glyph glyph-name="" unicode="t" d="M261 678 l-229 0 l0 51 l520 0 l0 -51 l-230 0 l0 -678 l-61 0 l0 678 Z" /><glyph glyph-name="" unicode="v" d="M4 729 l64 0 l206 -663 l4 0 q18 52 39 122 l168 541 l61 0 l-237 -729 l-66 0 l-239 729 Z" /><glyph glyph-name="" unicode="w" d="M30 729 l62 0 l88 -422 q20 -92 49 -238 l4 0 q18 80 56 238 l111 422 l59 0 l112 -422 l56 -238 l5 0 q27 147 46 238 l88 422 l59 0 l-160 -729 l-68 0 l-129 487 l-38 164 l-4 0 q-6 -29 -20 -81 q-14 -56 -20 -83 l-125 -487 l-68 0 l-163 729 Z" /><glyph glyph-name="" unicode="z" d="M54 35 l412 643 l-375 0 l0 51 l449 0 l0 -35 l-411 -642 l416 0 l0 -52 l-491 0 l0 35 Z" /><glyph glyph-name="" unicode="[" d="M108 784 l181 0 l0 -36 l-136 0 l0 -880 l136 0 l0 -36 l-181 0 l0 952 Z" /><glyph glyph-name="" unicode="]" d="M26 -132 l136 0 l0 880 l-136 0 l0 36 l181 0 l0 -952 l-181 0 l0 36 Z" /><glyph glyph-name="" unicode="a" d="M218 -13 q-68 0 -110 36 q-45 40 -45 111 q0 87 82 135 q79 45 258 66 q4 161 -122 161 q-87 0 -168 -61 l-26 42 q103 70 202 70 q172 0 172 -209 l0 -338 l-49 0 l-6 68 l-2 0 q-99 -81 -186 -81 ZM230 36 q78 0 173 83 l0 173 q-153 -18 -220 -56 q-62 -36 -62 -99 q0 -101 109 -101 Z" /><glyph glyph-name="" unicode="b" d="M314 -13 q-78 0 -158 67 l-2 0 l-7 -54 l-47 0 l0 795 l58 0 l0 -228 l-3 -102 q97 82 180 82 q104 0 160 -74 q54 -72 54 -198 q0 -132 -71 -212 q-66 -76 -164 -76 ZM309 38 q79 0 128 65 q50 66 50 172 q0 221 -163 221 q-73 0 -166 -85 l0 -308 q74 -65 151 -65 Z" /><glyph glyph-name="" unicode="c" d="M300 -13 q-107 0 -174 73 q-70 76 -70 206 q0 129 74 207 q70 74 173 74 q83 0 156 -65 l-33 -40 q-57 54 -122 54 q-80 0 -133 -64 q-54 -65 -54 -166 q0 -102 51 -165 q51 -64 135 -64 q73 0 139 59 l28 -40 q-79 -69 -170 -69 Z" /><glyph glyph-name="" unicode="d" d="M277 -13 q-102 0 -161 72 q-60 75 -60 207 q0 125 71 205 q67 76 165 76 q77 0 159 -65 l-4 96 l0 217 l58 0 l0 -795 l-48 0 l-7 67 l-2 0 q-80 -80 -171 -80 ZM287 38 q79 0 160 84 l0 308 q-74 66 -149 66 q-77 0 -128 -66 q-52 -66 -52 -164 q0 -105 44 -166 q45 -62 125 -62 Z" /><glyph glyph-name="" unicode="e" d="M304 -13 q-106 0 -175 74 q-73 77 -73 205 q0 125 72 205 q67 76 162 76 q97 0 151 -65 q55 -66 55 -183 q0 -22 -3 -42 l-378 0 q2 -98 56 -159 q53 -62 139 -62 q76 0 142 46 l22 -43 q-83 -52 -170 -52 ZM443 303 q0 95 -41 145 q-40 49 -111 49 q-68 0 -116 -51 q-52 -54 -60 -143 l328 0 Z" /><glyph glyph-name="" unicode="f" d="M312 744 q-33 15 -63 15 q-82 0 -82 -117 l0 -109 l121 0 l0 -49 l-121 0 l0 -484 l-58 0 l0 484 l-74 0 l0 44 l74 5 l0 112 q0 163 137 163 q39 0 80 -18 l-14 -46 Z" /><glyph glyph-name="" unicode="g" d="M275 -254 q-100 0 -160 39 q-60 40 -60 107 q0 73 80 127 l0 5 q-48 28 -48 86 q0 55 59 99 l0 4 q-68 56 -68 145 q0 82 56 136 q55 53 135 53 q37 0 71 -14 l182 0 l0 -48 l-120 0 q55 -48 55 -128 q0 -82 -55 -135 q-53 -53 -133 -53 q-48 0 -86 22 q-42 -33 -42 -74 q0 -67 100 -67 l112 0 q178 0 178 -123 q0 -73 -69 -125 q-74 -56 -187 -56 ZM269 213 q54 0 92 40 q40 41 40 105 q0 64 -39 104 q-37 38 -93 38 q-56 0 -94 -38 q-39 -40 -39 -104 q0 -64 40 -105 q38 -40 93 -40 ZM282 -210 q83 0 139 41 q52 37 52 88 q0 78 -121 78 l-109 0 q-26 0 -67 9 q-66 -46 -66 -107 q0 -49 45 -79 q46 -30 127 -30 Z" /><glyph glyph-name="" unicode="h" d="M100 795 l58 0 l-1 -344 q96 96 182 96 q162 0 162 -206 l0 -341 l-58 0 l0 333 q0 162 -117 162 q-75 0 -168 -96 l0 -399 l-58 0 l0 795 Z" /><glyph glyph-name="" unicode="i" d="M100 533 l58 0 l0 -533 l-58 0 l0 533 ZM130 658 q-21 0 -35 13 q-14 13 -14 33 q0 48 49 48 q49 0 49 -48 q0 -20 -15 -33 q-14 -13 -34 -13 Z" /><glyph glyph-name="" unicode="l" d="M171 -13 q-71 0 -71 92 l0 716 l58 0 l0 -722 q0 -36 24 -36 q8 0 19 2 l9 -46 q-20 -6 -39 -6 Z" /><glyph glyph-name="" unicode="m" d="M100 533 l48 0 l7 -81 l2 0 q86 95 168 95 q115 0 147 -108 q100 108 180 108 q160 0 160 -206 l0 -341 l-58 0 l0 333 q0 162 -115 162 q-68 0 -154 -96 l0 -399 l-58 0 l0 333 q0 162 -115 162 q-70 0 -154 -96 l0 -399 l-58 0 l0 533 Z" /><glyph glyph-name="" unicode="n" d="M100 533 l48 0 l7 -81 l2 0 q97 95 182 95 q162 0 162 -206 l0 -341 l-58 0 l0 333 q0 162 -117 162 q-75 0 -168 -96 l0 -399 l-58 0 l0 533 Z" /><glyph glyph-name="" unicode="o" d="M297 -13 q-101 0 -169 73 q-72 78 -72 206 q0 129 72 207 q68 74 169 74 q101 0 169 -74 q72 -78 72 -207 q0 -128 -72 -206 q-68 -73 -169 -73 ZM297 37 q79 0 130 64 q51 64 51 165 q0 101 -51 166 q-51 64 -130 64 q-78 0 -129 -64 q-51 -65 -51 -166 q0 -101 51 -165 q50 -64 129 -64 Z" /><glyph glyph-name="" unicode="p" d="M100 533 l48 0 l7 -65 l2 0 q103 79 178 79 q104 0 160 -74 q54 -72 54 -198 q0 -132 -71 -212 q-66 -76 -164 -76 q-73 0 -157 65 l1 -290 l-58 0 l0 771 ZM309 38 q79 0 128 65 q50 66 50 172 q0 221 -163 221 q-70 0 -166 -85 l0 -308 q77 -65 151 -65 Z" /><glyph glyph-name="" unicode="r" d="M100 533 l48 0 l7 -99 l2 0 q61 113 151 113 q31 0 54 -12 l-12 -52 q-23 9 -49 9 q-90 0 -143 -134 l0 -358 l-58 0 l0 533 Z" /><glyph glyph-name="" unicode="s" d="M231 -13 q-108 0 -196 73 l31 42 q79 -67 168 -67 q58 0 91 30 q31 27 31 71 q0 68 -129 114 q-80 28 -113 53 q-54 39 -54 100 q0 61 46 101 q48 43 129 43 q84 0 155 -57 l-30 -40 q-64 48 -127 48 q-56 0 -87 -28 q-28 -25 -28 -64 q0 -39 39 -65 q22 -16 85 -39 q88 -33 117 -54 q55 -41 55 -109 q0 -64 -47 -107 q-51 -45 -136 -45 Z" /><glyph glyph-name="" unicode="t" d="M250 -13 q-137 0 -137 165 l0 332 l-83 0 l0 44 l85 5 l7 154 l49 0 l0 -154 l153 0 l0 -49 l-153 0 l0 -336 q0 -111 89 -111 q29 0 65 15 l14 -45 q-56 -20 -89 -20 Z" /><glyph glyph-name="" unicode="u" d="M253 -13 q-161 0 -161 205 l0 341 l58 0 l0 -334 q0 -160 116 -160 q79 0 166 104 l0 390 l58 0 l0 -533 l-49 0 l-5 88 l-3 0 q-88 -101 -180 -101 Z" /><glyph glyph-name="" unicode="v" d="M13 533 l63 0 l115 -327 q32 -99 53 -154 l4 0 q35 97 53 154 l116 327 l59 0 l-196 -533 l-69 0 l-198 533 Z" /><glyph glyph-name="" unicode="w" d="M26 533 l62 0 l93 -336 l34 -145 l5 0 q8 28 38 145 l95 336 l64 0 l95 -336 q23 -90 39 -145 l4 0 l37 145 l91 336 l57 0 l-150 -533 l-75 0 l-90 321 q-8 27 -20 76 q-13 52 -20 77 l-5 0 q-22 -96 -41 -155 l-87 -319 l-70 0 l-156 533 Z" /><glyph glyph-name="" unicode="x" d="M195 279 l-165 254 l64 0 l82 -131 q25 -41 57 -88 l4 0 l132 219 l61 0 l-165 -260 l180 -273 l-65 0 l-91 141 q-26 48 -61 97 l-5 0 l-146 -238 l-62 0 l180 279 Z" /><glyph glyph-name="" unicode="{" d="M249 -168 q-66 0 -93 29 q-31 32 -31 113 q0 42 5 114 q4 73 4 110 q0 90 -95 90 l0 40 q95 0 95 87 q0 39 -4 112 q-5 73 -5 114 q0 82 31 114 q27 29 93 29 l40 0 l0 -36 l-33 0 q-47 0 -66 -27 q-17 -25 -17 -85 q0 -34 4 -101 q3 -68 3 -109 q0 -99 -59 -116 l0 -4 q59 -18 59 -117 q0 -41 -3 -108 q-4 -67 -4 -101 q0 -59 17 -84 q19 -28 66 -28 l33 0 l0 -36 l-40 0 Z" /><glyph glyph-name="" unicode="}" d="M26 -132 l33 0 q47 0 65 28 q17 24 17 84 q0 34 -3 101 q-3 67 -3 108 q0 99 59 117 l0 4 q-59 17 -59 116 q0 41 3 109 q3 67 3 101 q0 60 -17 85 q-18 27 -65 27 l-33 0 l0 36 l40 0 q65 0 93 -29 q31 -32 31 -114 q0 -41 -4 -114 q-5 -73 -5 -112 q0 -87 95 -87 l0 -40 q-95 0 -95 -90 q0 -37 5 -110 q4 -72 4 -114 q0 -81 -31 -113 q-28 -29 -93 -29 l-40 0 l0 36 Z" /><glyph glyph-name="" unicode="©" d="M411 -12 q-148 0 -249 101 q-106 104 -106 268 q0 163 106 267 q101 99 249 99 q148 0 249 -99 q106 -104 106 -267 q0 -164 -106 -268 q-101 -101 -249 -101 ZM411 23 q130 0 220 92 q93 96 93 242 q0 145 -93 239 q-90 91 -220 91 q-130 0 -220 -91 q-94 -94 -94 -239 q0 -146 94 -242 q90 -92 220 -92 ZM417 138 q-83 0 -137 58 q-58 61 -58 161 q0 93 61 152 q57 56 139 56 q74 0 134 -62 l-28 -32 q-51 48 -105 48 q-66 0 -107 -45 q-41 -45 -41 -117 q0 -80 40 -127 q39 -47 105 -47 q63 0 124 54 l24 -35 q-71 -64 -151 -64 Z" /><glyph glyph-name="" unicode="·" d="M265 304 q-20 0 -35 15 q-16 16 -16 39 q0 25 16 41 q14 14 35 14 q21 0 36 -14 q16 -16 16 -41 q0 -23 -16 -39 q-15 -15 -36 -15 Z" /><glyph glyph-name="" unicode="&#x2014;" d="M45 300 l796 0 l0 -45 l-796 0 l0 45 Z" /><glyph glyph-name="" unicode="&#x2191;" d="M475 729 q-81 -108 -178 -180 l-27 42 q135 104 230 254 q95 -150 230 -254 l-27 -42 q-97 72 -178 180 l0 -809 l-50 0 l0 809 Z" /><glyph glyph-name="" unicode="&#x3001;" d="M284 -48 q-106 130 -225 224 l41 37 q106 -84 229 -223 l-45 -38 Z" /><glyph glyph-name="" unicode="&#x3002;" d="M195 242 q61 0 103 -43 q43 -43 43 -104 q0 -61 -43 -104 q-42 -43 -103 -43 q-61 0 -104 43 q-43 43 -43 104 q0 61 43 104 q43 43 104 43 ZM195 -13 q45 0 77 32 q31 31 31 76 q0 44 -31 76 q-32 32 -77 32 q-45 0 -76 -32 q-32 -32 -32 -76 q0 -45 32 -76 q31 -32 76 -32 Z" /><glyph glyph-name="" unicode="&#x2f00;&#x4e00;" d="M955 417 l0 -53 l-906 0 l0 53 l906 0 Z" /><glyph glyph-name="" unicode="&#x4e0a;" d="M944 22 l0 -48 l-887 0 l0 48 l384 0 l0 794 l50 0 l0 -320 l385 0 l0 -47 l-385 0 l0 -427 l453 0 Z" /><glyph glyph-name="" unicode="&#x4e0b;" d="M506 711 l0 -192 l10 12 q217 -104 365 -212 l-31 -42 q-142 105 -344 207 l0 -556 l-50 0 l0 783 l-397 0 l0 48 l883 0 l0 -48 l-436 0 Z" /><glyph glyph-name="" unicode="&#x4e0d;&#xf967;" d="M603 712 q-28 -50 -79 -122 l0 -662 l-50 0 l0 600 q-167 -200 -389 -319 q-19 26 -32 39 q323 169 491 464 l-470 0 l0 48 l853 0 l0 -48 l-324 0 ZM600 526 q232 -142 350 -261 l-36 -36 q-123 126 -348 266 l34 31 Z" /><glyph glyph-name="" unicode="&#x4e0e;" d="M684 178 l-620 0 l0 46 l620 0 l0 -46 ZM875 432 q-1 -18 -2 -25 q-41 -384 -103 -442 q-25 -24 -79 -27 q-68 -2 -174 7 q-2 26 -17 46 q77 -7 179 -7 q38 0 51 11 q55 46 92 392 l-652 0 q47 160 99 421 l47 -6 q-4 -23 -25 -117 l576 0 l0 -47 l-586 0 q-27 -125 -49 -206 l643 0 Z" /><glyph glyph-name="" unicode="&#x4e13;" d="M375 478 l-46 -128 l458 0 l8 3 l37 -22 q-115 -115 -281 -274 q100 -42 176 -87 l-31 -40 q-173 106 -431 188 l29 34 q92 -26 209 -74 q114 104 236 226 l-480 0 q24 58 67 174 l-264 0 l0 46 l279 0 q11 30 49 139 l-249 0 l0 46 l263 0 q24 69 38 122 l50 0 q-9 -32 -39 -122 l395 0 l0 -46 l-410 0 q-20 -62 -47 -139 l528 0 l0 -46 l-544 0 Z" /><glyph glyph-name="" unicode="&#x4e14;" d="M267 18 l472 0 l0 205 l-472 0 l0 -205 ZM267 725 l0 -202 l472 0 l0 202 l-472 0 ZM739 478 l-472 0 l0 -209 l472 0 l0 209 ZM943 18 l0 -47 l-885 0 l0 47 l162 0 l0 754 l568 0 l0 -754 l155 0 Z" /><glyph glyph-name="" unicode="&#x4e1a;" d="M909 568 q-94 -205 -180 -334 l-39 20 q102 158 174 335 l45 -21 ZM240 243 q-46 148 -146 336 l45 13 q102 -189 149 -331 l-48 -18 ZM936 29 l0 -48 l-869 0 l0 48 l291 0 l0 792 l49 0 l0 -792 l189 0 l0 790 l48 0 l0 -790 l292 0 Z" /><glyph glyph-name="" unicode="&#x4e24;" d="M602 552 l0 161 l-211 0 l0 -161 l211 0 ZM649 552 l245 0 l0 -553 q0 -52 -39 -64 q-35 -9 -181 -9 q-3 20 -18 51 q53 -2 166 -2 q25 1 25 24 l0 507 l-200 0 q-4 -63 -12 -105 q121 -142 178 -248 l-32 -36 q-45 90 -156 232 q-40 -161 -146 -267 q-17 21 -35 33 q143 139 156 391 l-211 0 q-3 -53 -12 -106 q78 -100 111 -165 l-31 -39 q-25 55 -91 149 q-42 -159 -145 -263 q-13 18 -35 33 q143 139 155 391 l-185 0 l0 -580 l-47 0 l0 626 l234 0 l0 161 l-280 0 l0 47 l874 0 l0 -47 l-288 0 l0 -161 Z" /><glyph glyph-name="" unicode="&#x4e2a;" d="M476 556 l48 0 l0 -629 l-48 0 l0 629 ZM553 813 q-10 -19 -26 -41 q151 -205 433 -351 q-19 -13 -35 -41 q-270 149 -425 355 q-167 -227 -420 -354 q-21 30 -36 41 q306 143 467 411 l42 -20 Z" /><glyph glyph-name="" unicode="&#x4e2d;" d="M845 309 l0 295 l-323 0 l0 -295 l323 0 ZM473 309 l0 295 l-323 0 l0 -295 l323 0 ZM894 651 l0 -450 l-49 0 l0 61 l-323 0 l0 -334 l-49 0 l0 334 l-323 0 l0 -66 l-47 0 l0 455 l370 0 l0 181 l49 0 l0 -181 l372 0 Z" /><glyph glyph-name="" unicode="&#x4e3a;" d="M291 634 q-38 69 -112 150 l40 20 q76 -79 114 -146 l-42 -24 ZM891 561 q-22 -540 -71 -593 q-24 -28 -72 -31 q-55 -2 -159 5 q0 25 -16 49 q70 -7 159 -7 q32 -1 44 14 q45 44 65 543 l-375 0 q-43 -385 -369 -603 q-11 17 -37 34 q313 209 358 569 l-329 0 l0 48 l333 0 q5 59 5 134 l0 108 l48 0 l0 -108 q0 -71 -4 -134 l420 0 l0 -28 ZM657 179 q-46 89 -149 201 l39 21 q107 -113 151 -197 l-41 -25 Z" /><glyph glyph-name="" unicode="&#x4e3b;" d="M569 631 q-55 73 -177 169 l37 26 q117 -85 180 -167 l-40 -28 ZM944 10 l0 -48 l-883 0 l0 48 l414 0 l0 276 l-323 0 l0 47 l323 0 l0 247 l-366 0 l0 47 l784 0 l0 -47 l-368 0 l0 -247 l330 0 l0 -47 l-330 0 l0 -276 l419 0 Z" /><glyph glyph-name="" unicode="&#x4e4b;" d="M532 646 q-30 68 -103 167 l41 20 q78 -101 107 -164 l-45 -23 ZM846 607 q-207 -312 -560 -518 q19 -16 44 -32 q74 -47 256 -47 q197 0 369 16 q-13 -29 -15 -54 q-152 -10 -354 -10 q-190 0 -270 53 q-88 58 -91 58 q-40 0 -133 -121 l-37 43 q113 124 171 124 q8 0 17 -3 q312 175 523 464 l-659 0 l0 47 l694 0 l10 4 l35 -24 Z" /><glyph glyph-name="" unicode="&#x4e4c;" d="M764 144 l-702 0 l0 44 l702 0 l0 -44 ZM909 365 q0 -18 -1 -25 q-23 -340 -64 -383 q-20 -21 -65 -24 q-53 -4 -144 4 q-2 25 -15 45 q62 -5 144 -5 q28 -2 40 10 q34 32 56 332 l-659 0 l0 411 l191 0 q37 65 53 109 l49 -11 q-33 -65 -54 -98 l366 0 l-2 -25 q-17 -199 -47 -227 q-17 -17 -58 -20 q-72 0 -121 4 q-2 21 -12 42 q52 -5 118 -5 q26 0 35 9 q22 23 35 176 l-506 0 l0 -319 l661 0 Z" /><glyph glyph-name="" unicode="&#x4e50;" d="M296 259 q-91 -154 -212 -268 q-20 20 -38 33 q123 109 204 251 l46 -16 ZM543 378 l0 -382 q0 -48 -36 -60 q-27 -9 -160 -9 q-6 26 -18 47 q95 -3 143 0 q23 0 23 22 l0 382 l-250 0 q-97 0 -114 -12 q-3 17 -16 48 q13 3 28 63 q36 130 39 273 q471 15 649 68 l32 -41 q-198 -57 -633 -69 q-14 -150 -50 -282 l315 0 l0 217 l48 0 l0 -217 l379 0 l0 -48 l-379 0 ZM740 273 q136 -136 215 -252 l-44 -25 q-78 119 -211 256 l40 21 Z" /><glyph glyph-name="" unicode="&#x4e5f;" d="M777 -8 q70 0 93 38 q20 33 30 151 q21 -15 46 -20 q-11 -127 -40 -167 q-34 -47 -133 -47 l-373 0 q-101 0 -136 27 q-38 29 -38 111 l0 341 l-176 -54 l-13 43 l189 57 l0 293 l47 0 l0 -279 l239 74 l0 271 l47 0 l0 -257 l260 79 l16 13 l34 -16 l-3 -10 q-5 -291 -35 -371 q-24 -62 -79 -67 q-61 -4 -114 -1 q-2 26 -13 46 q39 -3 109 -3 q40 0 57 48 q24 65 27 315 l-259 -80 l0 -393 l-47 0 l0 379 l-239 -73 l0 -358 q0 -53 24 -71 q24 -19 97 -19 l383 0 Z" /><glyph glyph-name="" unicode="&#x4e60;" d="M724 274 q-258 -89 -594 -202 l-17 49 q177 56 602 198 l9 -45 ZM271 603 q182 -119 277 -206 l-35 -38 q-87 87 -274 213 l32 31 ZM876 721 q-9 -695 -51 -751 q-25 -33 -70 -36 q-47 -3 -149 3 q-2 28 -15 47 q67 -5 151 -5 q26 -2 39 15 q39 45 48 712 l-703 0 l0 45 l750 0 l0 -30 Z" /><glyph glyph-name="" unicode="&#x4e66;" d="M912 623 q-62 62 -177 140 l30 31 q114 -76 178 -135 l-31 -36 ZM486 384 l258 0 l0 222 l-258 0 l0 -222 ZM936 384 l-2 -25 q-21 -268 -58 -303 q-20 -22 -65 -23 q-37 -3 -148 3 q-3 26 -17 47 q65 -7 150 -7 q30 0 41 9 q29 26 47 253 l-398 0 l0 -412 l-48 0 l0 412 l-374 0 l0 46 l374 0 l0 222 l-302 0 l0 47 l302 0 l0 176 l48 0 l0 -176 l305 0 l0 -269 l145 0 Z" /><glyph glyph-name="" unicode="&#x4e86;" d="M880 726 q-135 -149 -353 -264 l0 -462 q0 -53 -44 -64 q-32 -9 -201 -9 q-4 18 -20 49 q121 -4 188 -1 q28 1 28 25 l0 486 q171 82 308 216 l-686 0 l0 47 l732 0 l11 3 l37 -26 Z" /><glyph glyph-name="" unicode="&#x2f06;&#x4e8c;" d="M856 687 l0 -50 l-711 0 l0 50 l711 0 ZM942 87 l0 -51 l-883 0 l0 51 l883 0 Z" /><glyph glyph-name="" unicode="&#x4e8e;" d="M942 380 l-409 0 l0 -370 q0 -56 -45 -69 q-36 -11 -196 -9 q-7 23 -21 50 q138 -3 183 -1 q30 1 30 28 l0 371 l-425 0 l0 47 l425 0 l0 283 l-356 0 l0 47 l744 0 l0 -47 l-339 0 l0 -283 l409 0 l0 -47 Z" /><glyph glyph-name="" unicode="&#x4e94;" d="M427 395 q-49 -288 -65 -362 l321 0 q24 212 35 362 l-291 0 ZM942 33 l0 -47 l-884 0 l0 47 l253 0 q21 96 67 362 l-198 0 l0 46 l206 0 q-3 -17 36 244 l-297 0 l0 47 l742 0 l0 -47 l-396 0 q-27 -183 -37 -244 l292 0 l9 3 l36 -4 q-11 -161 -39 -407 l210 0 Z" /><glyph glyph-name="" unicode="&#x4e9b;" d="M662 341 q-62 0 -84 18 q-22 18 -22 69 l0 404 l48 0 l0 -211 q168 58 247 112 l41 -36 q-105 -59 -288 -121 l0 -149 q0 -24 11 -32 q11 -8 48 -8 l186 0 q33 0 43 26 q9 24 13 112 q16 -13 45 -21 q-5 -98 -23 -129 q-20 -34 -76 -34 l-189 0 ZM174 224 l667 0 l0 -47 l-667 0 l0 47 ZM501 372 q-315 -43 -445 -60 l-7 48 l72 8 l0 351 l46 0 l0 -345 l107 13 l0 445 l48 0 l0 -183 l172 0 l0 -45 l-172 0 l0 -210 l178 23 l1 -45 ZM63 1 l875 0 l0 -47 l-875 0 l0 47 Z" /><glyph glyph-name="" unicode="&#x4ea4;" d="M501 696 q-21 56 -73 129 l45 16 q51 -71 74 -127 l-46 -18 ZM925 641 l-852 0 l0 47 l852 0 l0 -47 ZM668 594 q173 -114 260 -219 l-40 -31 q-86 108 -258 224 l38 26 ZM377 578 q-97 -123 -257 -231 q-32 33 -38 37 q156 94 250 212 l45 -18 ZM711 415 q-58 -154 -171 -263 q163 -131 415 -173 q-19 -19 -31 -45 q-255 50 -420 186 q-156 -128 -425 -196 q-11 24 -30 45 q268 58 420 183 q-111 106 -172 257 l44 15 q55 -139 163 -241 q107 103 159 246 l48 -14 Z" /><glyph glyph-name="" unicode="&#x4ea7;" d="M893 656 l-778 0 l0 46 l395 0 q-20 49 -71 115 l44 15 q53 -63 80 -122 l-20 -8 l350 0 l0 -46 ZM362 473 q-27 67 -88 148 l40 16 q64 -81 90 -145 l-42 -19 ZM922 410 l-740 0 l0 -88 q0 -260 -100 -400 q-20 22 -39 31 q91 130 91 370 l0 134 l476 0 q52 81 87 176 l50 -17 q-52 -103 -90 -159 l265 0 l0 -47 Z" /><glyph glyph-name="" unicode="&#x2f08;&#x4eba;" d="M529 828 q-3 -107 -6 -137 q78 -559 433 -717 q-21 -16 -35 -39 q-314 144 -418 607 q-81 -442 -413 -610 q-12 17 -37 35 q416 203 425 861 l51 0 Z" /><glyph glyph-name="" unicode="&#x4eca;" d="M805 342 l36 -20 q-141 -184 -321 -397 l-47 23 q149 169 281 342 l-589 0 l0 48 l631 0 l9 4 ZM585 382 q-67 73 -189 166 l34 28 q129 -92 191 -162 l-36 -32 ZM547 816 l-18 -25 q170 -214 428 -326 q-17 -13 -37 -42 q-244 119 -420 331 q-166 -207 -422 -334 q-17 25 -36 39 q300 138 460 378 l45 -21 Z" /><glyph glyph-name="" unicode="&#x4ece;" d="M465 162 q-48 105 -170 273 q-51 -336 -197 -509 q-14 14 -45 32 q116 125 169 352 q41 177 57 495 l51 -3 q-10 -176 -26 -304 q143 -181 198 -303 l-37 -33 ZM711 804 q-15 -203 -37 -331 q72 -359 274 -496 q-23 -23 -34 -41 q-177 132 -260 439 q-68 -293 -238 -444 q-16 14 -45 32 q146 120 213 341 q55 180 76 503 l51 -3 Z" /><glyph glyph-name="" unicode="&#x4ed6;" d="M327 816 q-45 -113 -107 -218 l0 -670 l-47 0 l0 597 q-58 -86 -121 -150 q-7 18 -29 42 q163 158 260 412 l44 -13 ZM827 -17 q46 0 61 30 q14 27 21 120 q21 -16 46 -21 q-9 -103 -30 -136 q-26 -37 -99 -37 l-286 0 q-81 0 -109 23 q-29 24 -29 94 l0 354 l-111 -43 l-18 43 l129 50 l0 280 l47 0 l0 -262 l177 68 l0 286 l46 0 l0 -268 l187 73 l18 15 l33 -14 l-3 -10 q0 -332 -15 -386 q-12 -56 -61 -61 q-34 -5 -95 -3 q-4 27 -14 45 q16 -1 86 -1 q31 0 40 34 q14 48 14 332 l-190 -73 l0 -374 l-46 0 l0 355 l-177 -68 l0 -373 q0 -43 17 -57 q18 -15 72 -15 l289 0 Z" /><glyph glyph-name="" unicode="&#x4ee3;" d="M889 616 q-69 82 -176 164 l33 23 q116 -86 180 -161 l-37 -26 ZM376 806 q-51 -113 -116 -212 l0 -666 l-49 0 l0 598 q-77 -101 -152 -166 q-15 29 -30 43 q193 161 302 418 l45 -15 ZM634 480 q64 -485 235 -499 q44 -1 62 182 q18 -15 41 -23 q-27 -217 -101 -214 q-215 13 -284 548 l-265 -32 l-7 45 l268 32 q-16 147 -23 300 l48 0 q6 -158 21 -294 l310 37 l8 -44 l-313 -38 Z" /><glyph glyph-name="" unicode="&#x4ee5;" d="M538 484 q-48 108 -154 240 l41 21 q106 -128 156 -236 l-43 -25 ZM477 247 q0 2 13 -43 q-313 -141 -344 -167 q-7 18 -27 41 q52 29 52 77 l0 595 l50 0 l0 -617 l256 114 ZM822 793 q-24 -389 -111 -568 q165 -150 244 -266 l-41 -31 q-72 111 -224 256 q-98 -171 -312 -265 q-11 20 -35 42 q236 92 330 295 q79 171 99 540 l50 -3 Z" /><glyph glyph-name="" unicode="&#x4ef6;" d="M330 816 q-46 -120 -101 -219 l0 -669 l-47 0 l0 590 q-50 -79 -110 -144 q-18 29 -30 43 q153 159 242 412 l46 -13 ZM943 279 l-281 0 l0 -353 l-48 0 l0 353 l-297 0 l0 47 l297 0 l0 249 l-179 0 q-39 -107 -79 -166 q-15 13 -41 27 q87 117 126 350 l46 -9 q-15 -80 -38 -155 l165 0 l0 199 l48 0 l0 -199 l240 0 l0 -47 l-240 0 l0 -249 l281 0 l0 -47 Z" /><glyph glyph-name="" unicode="&#x4eff;" d="M645 664 q-15 66 -49 153 l46 10 q31 -76 51 -148 l-48 -15 ZM327 817 q-42 -116 -101 -223 l0 -666 l-47 0 l0 587 q-46 -73 -106 -141 q-18 33 -30 45 q150 157 239 411 l45 -13 ZM557 608 q-1 -87 -9 -171 l323 0 l-1 -26 q-18 -406 -57 -451 q-20 -22 -62 -25 q-28 -2 -130 2 q-2 24 -15 46 q56 -5 128 -5 q26 -1 37 12 q34 34 50 401 l-277 0 q-35 -337 -218 -466 q-13 18 -36 32 q129 88 178 278 q33 127 40 373 l-184 0 l0 47 l628 0 l0 -47 l-395 0 Z" /><glyph glyph-name="" unicode="&#x4f01;" d="M534 3 l398 0 l0 -45 l-848 0 l0 45 l137 0 l0 383 l47 0 l0 -383 l217 0 l0 566 l49 0 l0 -243 l303 0 l0 -45 l-303 0 l0 -278 ZM550 822 q-7 -12 -23 -34 q149 -187 436 -327 q-20 -15 -32 -39 q-274 139 -429 331 q-168 -215 -424 -329 q-14 22 -34 38 q306 130 464 379 l42 -19 Z" /><glyph glyph-name="" unicode="&#x4f19;" d="M947 628 q-71 -180 -126 -275 l-42 16 q68 119 118 277 l50 -18 ZM328 352 q58 97 81 286 l44 -7 q-24 -198 -80 -298 l-45 19 ZM333 816 q-49 -126 -102 -219 l0 -670 l-49 0 l0 588 q-47 -72 -106 -138 q-7 15 -30 46 q153 158 241 407 l46 -14 ZM653 827 q0 -277 -11 -391 q27 -192 98 -301 q78 -121 223 -164 q-23 -21 -32 -42 q-237 82 -307 374 q-58 -275 -302 -374 q-9 15 -32 35 q218 89 277 310 q36 133 37 553 l49 0 Z" /><glyph glyph-name="" unicode="&#x4f1a;" d="M91 327 l824 0 l0 -47 l-450 0 q-119 -162 -230 -266 l516 45 q-66 79 -132 139 l40 21 q155 -138 230 -264 l-43 -27 q-22 37 -60 87 q-599 -53 -629 -64 q-9 34 -17 52 q23 4 73 54 q82 73 187 223 l-309 0 l0 47 ZM743 518 l0 -45 l-481 0 l0 45 l481 0 ZM558 810 l-27 -37 q168 -191 423 -283 q-16 -16 -34 -43 q-245 98 -417 291 q-153 -182 -415 -303 q-16 24 -36 39 q326 146 457 356 l49 -20 Z" /><glyph glyph-name="" unicode="&#x4f20;" d="M328 816 q-43 -111 -108 -220 l0 -668 l-47 0 l0 595 q-62 -91 -121 -149 q-9 22 -30 43 q165 158 260 412 l46 -13 ZM536 475 q-14 -47 -43 -139 l340 0 l8 3 l35 -21 q-112 -133 -220 -254 q69 -54 115 -100 l-37 -36 q-96 103 -253 204 l36 30 q79 -53 103 -71 q85 94 172 199 l-366 0 q30 84 62 185 l-197 0 l0 46 l210 0 q33 111 42 144 l-196 0 l0 45 l208 0 q22 79 32 121 l47 -7 q-3 -14 -31 -114 l301 0 l0 -45 l-314 0 q-18 -72 -41 -144 l397 0 l0 -46 l-410 0 Z" /><glyph glyph-name="" unicode="&#x4f53;" d="M314 817 q-38 -111 -95 -223 l0 -666 l-46 0 l0 585 q-43 -71 -100 -139 q-8 16 -30 43 q141 156 226 412 l45 -12 ZM676 571 q104 -300 286 -434 q-14 -12 -37 -39 q-181 148 -289 463 l0 -393 l176 0 l0 -45 l-176 0 l0 -192 l-47 0 l0 192 l-184 0 l0 45 l184 0 l0 392 q-112 -314 -294 -464 q-13 20 -35 35 q179 137 291 440 l-261 0 l0 46 l299 0 l0 214 l47 0 l0 -214 l312 0 l0 -46 l-272 0 Z" /><glyph glyph-name="" unicode="&#x4f59;" d="M334 191 q-94 -130 -230 -223 q-23 23 -39 31 q137 86 224 208 l45 -16 ZM530 286 l0 -293 q0 -46 -35 -58 q-32 -10 -156 -8 q-5 22 -20 46 q97 -3 140 0 q22 1 22 20 l0 293 l-390 0 l0 45 l390 0 l0 149 l-241 0 l0 45 l522 0 l0 -45 l-232 0 l0 -149 l386 0 l0 -45 l-386 0 ZM695 211 q146 -113 222 -209 l-40 -30 q-73 98 -220 214 l38 25 ZM545 821 l-17 -22 q144 -177 440 -300 q-20 -20 -32 -41 q-285 130 -436 309 q-181 -202 -433 -322 q-15 21 -33 37 q304 136 472 360 l39 -21 Z" /><glyph glyph-name="" unicode="&#x4f5c;" d="M352 815 q-46 -116 -107 -218 l0 -669 l-49 0 l0 592 q-62 -88 -120 -146 q-14 28 -30 44 q163 156 260 411 l46 -14 ZM629 617 l0 -168 l304 0 l0 -45 l-304 0 l0 -175 l318 0 l0 -46 l-318 0 l0 -256 l-48 0 l0 690 l-87 0 q-69 -129 -149 -218 q-25 22 -38 31 q139 146 225 389 l45 -12 q-30 -83 -61 -144 l437 0 l0 -46 l-324 0 Z" /><glyph glyph-name="" unicode="&#x4f73;" d="M604 644 l-227 0 l0 46 l227 0 l0 143 l48 0 l0 -143 l235 0 l0 -46 l-235 0 l0 -166 l280 0 l0 -46 l-605 0 l0 46 l277 0 l0 166 ZM329 817 q-39 -113 -99 -225 l0 -666 l-48 0 l0 583 q-44 -70 -100 -135 q-11 22 -30 43 q145 156 232 412 l45 -12 ZM953 14 l0 -47 l-661 0 l0 47 l312 0 l0 196 l-248 0 l0 47 l248 0 l0 130 l48 0 l0 -130 l250 0 l0 -47 l-250 0 l0 -196 l301 0 Z" /><glyph glyph-name="" unicode="&#x4f7f;" d="M336 821 q-42 -107 -107 -216 l0 -683 l-46 0 l0 612 q-60 -86 -125 -151 q-14 23 -31 44 q167 156 265 408 l44 -14 ZM606 332 q1 22 1 66 l0 114 l-213 0 l0 -180 l212 0 ZM654 512 l0 -114 q0 -44 -1 -66 l220 0 l0 180 l-219 0 ZM649 289 q-12 -124 -72 -203 q155 -90 385 -118 q-13 -13 -30 -45 q-228 34 -384 129 q-82 -84 -238 -130 q-16 28 -28 39 q151 41 227 117 q-102 71 -158 170 l41 16 q50 -87 146 -152 q53 70 65 177 l-254 0 l0 266 l258 0 l0 114 l-292 0 l0 45 l292 0 l0 116 l47 0 l0 -116 l301 0 l0 -45 l-301 0 l0 -114 l265 0 l0 -266 l-270 0 Z" /><glyph glyph-name="" unicode="&#x4fe1;" d="M613 683 q-22 59 -71 131 l43 18 q47 -69 74 -129 l-46 -20 ZM313 817 q-38 -110 -91 -212 l0 -681 l-45 0 l0 601 q-50 -83 -108 -150 q-14 27 -30 42 q145 158 230 412 l44 -12 ZM414 198 l0 -186 l406 0 l0 186 l-406 0 ZM370 240 l495 0 l0 -312 l-45 0 l0 42 l-406 0 l0 -45 l-44 0 l0 315 ZM383 384 l473 0 l0 -42 l-473 0 l0 42 ZM856 481 l-473 0 l0 42 l473 0 l0 -42 ZM938 662 l0 -43 l-629 0 l0 43 l629 0 Z" /><glyph glyph-name="" unicode="&#x4ff1;" d="M329 818 q-46 -116 -107 -219 l0 -671 l-46 0 l0 599 q-58 -87 -122 -151 q-14 28 -30 44 q165 159 260 411 l45 -13 ZM544 110 q-78 -101 -230 -185 q-14 18 -32 32 q145 76 222 179 l40 -26 ZM729 133 q134 -87 220 -173 l-33 -35 q-80 86 -219 178 l32 30 ZM440 209 l362 0 l0 109 l-362 0 l0 -109 ZM440 751 l0 -102 l362 0 l0 102 l-362 0 ZM440 465 l0 -107 l362 0 l0 107 l-362 0 ZM802 609 l-362 0 l0 -104 l362 0 l0 104 ZM953 209 l0 -44 l-665 0 l0 44 l105 0 l0 585 l457 0 l0 -585 l103 0 Z" /><glyph glyph-name="" unicode="&#x50cf;" d="M326 816 q-47 -126 -107 -231 l0 -655 l-47 0 l0 577 q-44 -67 -103 -133 q-10 19 -29 43 q152 160 241 412 l45 -13 ZM563 458 q39 58 45 124 l-204 0 l0 -124 l159 0 ZM480 720 q-33 -47 -79 -98 l208 0 q36 40 69 98 l-198 0 ZM844 582 l-193 0 q-4 -66 -36 -124 l229 0 l0 124 ZM893 332 q-46 -32 -120 -72 q62 -176 189 -239 q-16 -12 -34 -37 q-131 75 -192 257 q-34 -18 -58 -28 q27 -79 21 -154 q-7 -73 -42 -103 q-31 -28 -79 -28 q-29 0 -64 3 q-2 22 -13 43 q36 -4 68 -4 q38 0 54 17 q52 43 25 173 q-139 -134 -341 -201 q-21 29 -29 36 q228 67 359 206 q-10 35 -30 70 q-119 -105 -294 -170 q-10 17 -28 34 q188 58 302 166 q-20 29 -55 61 q-80 -64 -211 -110 q-15 20 -30 33 q156 51 237 132 l-169 0 l0 163 q-38 -34 -68 -57 q-13 19 -32 29 q154 112 237 280 l47 -8 q-19 -36 -36 -63 l198 0 l9 3 l29 -21 q-28 -56 -83 -121 l230 0 l0 -205 l-304 0 q-11 -15 -26 -29 q70 -58 106 -142 q115 60 193 117 l34 -31 Z" /><glyph glyph-name="" unicode="&#x5148;" d="M855 -11 q31 0 39 28 q9 27 12 131 q15 -11 45 -22 q-5 -111 -22 -146 q-18 -37 -71 -37 l-156 0 q-56 0 -76 17 q-19 16 -19 64 l0 323 l-216 0 q-18 -171 -76 -262 q-72 -112 -230 -164 q-10 20 -30 40 q151 45 218 148 q53 82 69 238 l-275 0 l0 47 l409 0 l0 224 l-226 0 q-46 -102 -94 -161 q-24 15 -41 23 q100 123 148 323 l48 -10 q-14 -55 -42 -128 l207 0 l0 168 l48 0 l0 -168 l344 0 l0 -47 l-344 0 l0 -224 l411 0 l0 -47 l-281 0 l0 -324 q0 -21 10 -27 q10 -7 41 -7 l150 0 Z" /><glyph glyph-name="" unicode="&#x5149;" d="M856 740 q-88 -139 -153 -212 l-40 18 q83 97 146 214 l47 -20 ZM298 528 q-51 95 -146 213 l39 20 q99 -121 148 -209 l-41 -24 ZM848 -7 q23 0 31 15 q7 14 9 65 q18 -12 45 -18 q-5 -65 -20 -86 q-17 -22 -62 -22 l-172 0 q-58 0 -78 16 q-20 15 -20 63 l0 386 l-167 0 q-15 -203 -72 -304 q-71 -125 -244 -184 q-11 22 -32 41 q166 51 233 168 q52 91 65 279 l-292 0 l0 47 l402 0 l0 374 l49 0 l0 -374 l398 0 l0 -47 l-292 0 l0 -386 q0 -20 10 -27 q9 -6 42 -6 l167 0 Z" /><glyph glyph-name="" unicode="&#x2f0a;&#x5165;" d="M339 802 q153 -108 300 -417 q140 -294 315 -395 q-20 -28 -24 -52 q-152 85 -256 269 q-31 53 -82 161 q-52 110 -81 162 q-113 -423 -419 -599 q-18 18 -44 38 q321 171 425 623 q-73 107 -163 170 l29 40 Z" /><glyph glyph-name="" unicode="&#x5168;" d="M524 2 l402 0 l0 -45 l-850 0 l0 45 l399 0 l0 190 l-274 0 l0 44 l274 0 l0 180 l-276 0 l0 45 l608 0 l0 -45 l-283 0 l0 -180 l288 0 l0 -44 l-288 0 l0 -190 ZM543 825 q-9 -14 -17 -25 q163 -200 443 -361 q-25 -19 -34 -40 q-265 164 -435 364 q-174 -230 -433 -360 q-13 23 -34 37 q308 147 467 404 l43 -19 Z" /><glyph glyph-name="" unicode="&#x516c;" d="M390 785 q-106 -253 -286 -409 q-21 19 -44 33 q182 144 280 390 l50 -14 ZM664 298 q170 -196 247 -335 l-45 -25 q-34 59 -70 110 q-596 -36 -627 -46 q-8 29 -19 51 q28 6 87 86 q118 133 245 385 l50 -22 q-157 -282 -291 -438 l524 29 q-78 106 -144 184 l43 21 ZM649 807 q122 -249 309 -392 q-19 -14 -40 -40 q-184 156 -315 413 l46 19 Z" /><glyph glyph-name="" unicode="&#x516d;" d="M939 560 l0 -49 l-875 0 l0 49 l875 0 ZM371 362 q-118 -251 -274 -431 q-15 15 -46 35 q158 167 269 413 l51 -17 ZM667 388 q194 -269 281 -423 l-47 -26 q-91 169 -278 428 l44 21 ZM468 827 q69 -141 96 -210 l-50 -20 q-35 98 -94 214 l48 16 Z" /><glyph glyph-name="" unicode="&#x5173;" d="M337 627 q-30 80 -100 171 l39 21 q71 -86 103 -168 l-42 -24 ZM544 315 q116 -260 403 -337 q-18 -18 -33 -44 q-283 88 -407 354 q-64 -229 -413 -361 q-14 23 -34 42 q348 126 401 346 l-387 0 l0 47 l396 0 q5 36 5 85 l0 119 l-345 0 l0 48 l475 0 q70 100 118 214 l50 -20 q-70 -129 -116 -194 l218 0 l0 -48 l-349 0 l0 -120 q0 -45 -4 -84 l408 0 l0 -47 l-386 0 Z" /><glyph glyph-name="" unicode="&#x5174;" d="M941 345 l0 -47 l-882 0 l0 47 l882 0 ZM666 228 q175 -153 270 -267 l-41 -26 q-98 121 -270 271 l41 22 ZM368 214 q-104 -158 -276 -278 q-21 23 -37 35 q176 118 263 261 l50 -18 ZM112 736 q106 -142 158 -286 l-46 -21 q-45 134 -155 289 l43 18 ZM411 811 q89 -166 117 -301 l-48 -16 q-28 139 -114 302 l45 15 ZM920 767 q-124 -239 -235 -386 l-44 17 q131 177 227 386 l52 -17 Z" /><glyph glyph-name="" unicode="&#x5176;" d="M298 185 l405 0 l0 132 l-405 0 l0 -132 ZM298 660 l0 -122 l405 0 l0 122 l-405 0 ZM298 361 l405 0 l0 133 l-405 0 l0 -133 ZM942 140 l-883 0 l0 45 l191 0 l0 475 l-165 0 l0 45 l165 0 l0 126 l48 0 l0 -126 l405 0 l0 126 l48 0 l0 -126 l169 0 l0 -45 l-169 0 l0 -475 l191 0 l0 -45 ZM416 83 q-126 -82 -334 -154 q-11 20 -32 39 q206 62 319 144 l47 -29 ZM617 108 q180 -62 326 -142 l-39 -35 q-120 72 -318 145 l31 32 Z" /><glyph glyph-name="" unicode="&#x5177;" d="M262 196 l485 0 l0 110 l-485 0 l0 -110 ZM262 741 l0 -104 l485 0 l0 104 l-485 0 ZM262 452 l0 -106 l485 0 l0 106 l-485 0 ZM747 596 l-485 0 l0 -103 l485 0 l0 103 ZM945 151 l-887 0 l0 45 l157 0 l0 588 l581 0 l0 -588 l149 0 l0 -45 ZM384 103 q-117 -102 -301 -175 q-11 15 -34 35 q194 75 288 166 l47 -26 ZM650 130 q181 -81 298 -160 l-37 -37 q-113 79 -291 164 l30 33 Z" /><glyph glyph-name="" unicode="&#x5185;" d="M895 3 q0 -54 -39 -66 q-31 -9 -182 -9 q-4 22 -18 51 q106 -4 167 -1 q25 1 25 25 l0 609 l-324 0 q-4 -81 -21 -142 q200 -172 304 -297 l-40 -31 q-88 114 -277 283 q-65 -178 -261 -290 q-12 20 -33 35 q268 147 279 442 l-321 0 l0 -687 l-48 0 l0 734 l370 0 l0 173 l49 0 l0 -173 l370 0 l0 -656 Z" /><glyph glyph-name="" unicode="&#x519c;" d="M858 428 q-91 -85 -219 -171 q122 -194 319 -271 q-17 -14 -35 -40 q-335 143 -455 611 q-62 -115 -153 -194 l0 -358 l243 75 q0 -19 5 -44 q-293 -96 -313 -110 q-7 23 -23 46 q40 13 40 56 l0 296 q-82 -59 -187 -103 q-8 14 -35 38 q304 114 419 400 l-313 0 l0 -150 l-47 0 l0 196 l378 0 q20 63 35 130 l47 -9 q-15 -63 -33 -121 l366 0 l0 -196 l-48 0 l0 150 l-335 0 q-7 -19 -16 -39 q43 -188 120 -327 q129 90 203 166 l37 -31 Z" /><glyph glyph-name="" unicode="&#x51b3;" d="M214 576 q-47 86 -154 193 l38 23 q106 -104 156 -188 l-40 -28 ZM257 301 q-88 -193 -168 -329 l-41 30 q87 139 174 330 l35 -31 ZM619 508 q0 -86 -7 -143 l187 0 l0 258 l-180 0 l0 -115 ZM651 319 q78 -273 306 -350 q-21 -21 -33 -42 q-239 95 -319 392 q-48 -262 -322 -395 q-10 17 -32 38 q260 119 306 357 l-254 0 l0 46 l261 0 q7 57 7 142 l0 116 l-212 0 l0 46 l212 0 l0 161 l48 0 l0 -161 l226 0 l0 -304 l111 0 l0 -46 l-305 0 Z" /><glyph glyph-name="" unicode="&#x51fd;" d="M478 602 q121 54 226 139 l-520 0 l0 45 l571 0 l11 3 l33 -25 q-111 -103 -274 -183 l0 -153 q44 -33 59 -45 q102 103 166 200 l41 -21 q-96 -124 -178 -203 q132 -109 190 -176 l-31 -35 q-89 104 -247 228 l0 -225 q0 -41 -30 -52 q-23 -8 -132 -8 q-3 21 -16 45 q54 -2 113 -2 q18 1 18 18 l0 194 q-106 -78 -267 -187 l-26 40 q89 54 293 192 l0 211 ZM352 389 q-59 87 -141 158 l32 24 q95 -78 143 -152 l-34 -30 ZM905 615 l0 -687 l-47 0 l0 62 l-759 0 l0 625 l48 0 l0 -579 l711 0 l0 579 l47 0 Z" /><glyph glyph-name="" unicode="&#x5206;" d="M385 795 q-102 -251 -291 -400 q-19 22 -42 34 q190 138 284 380 l49 -14 ZM805 449 q0 -19 -1 -26 q-23 -413 -66 -460 q-23 -25 -70 -26 q-60 -4 -161 4 q-4 30 -17 48 q81 -8 161 -8 q32 0 44 12 q40 39 60 409 l-310 0 q-24 -177 -88 -282 q-84 -136 -257 -196 q-13 24 -30 38 q165 55 244 182 q60 95 81 258 l-211 0 l0 47 l621 0 ZM664 811 q107 -239 289 -368 q-19 -13 -39 -39 q-176 140 -293 389 l43 18 Z" /><glyph glyph-name="" unicode="&#x5207;" d="M432 263 q3 -17 10 -41 q-264 -119 -284 -137 q-8 23 -25 44 q38 20 38 65 l0 304 l-128 -29 l-9 44 l137 30 l0 251 l47 0 l0 -240 l204 46 l9 -43 l-213 -48 l0 -337 l214 91 ZM932 707 q-21 -674 -69 -733 q-23 -30 -69 -35 q-56 -2 -140 3 q-2 30 -15 49 q62 -5 140 -5 q29 0 40 16 q45 52 64 689 l-237 0 q-7 -293 -50 -439 q-65 -220 -245 -321 q-20 26 -38 36 q176 93 239 305 q41 138 47 419 l-173 0 l0 46 l506 0 l0 -30 Z" /><glyph glyph-name="" unicode="&#x5212;" d="M464 635 q-54 68 -147 142 l33 25 q99 -73 148 -137 l-34 -30 ZM272 506 q22 -156 62 -283 q90 109 147 253 l45 -14 q-67 -162 -174 -289 q73 -197 148 -197 q36 0 44 161 q17 -17 41 -25 q-8 -105 -26 -144 q-19 -40 -61 -40 q-100 0 -180 206 q-106 -112 -238 -187 q-9 17 -34 38 q144 76 253 197 q-48 143 -74 319 l-176 -20 l-6 45 l177 20 q-18 136 -21 286 l49 0 q0 -138 18 -280 l328 38 l5 -46 l-327 -38 ZM709 175 l-47 0 l0 546 l47 0 l0 -546 ZM903 823 l0 -824 q0 -49 -37 -61 q-30 -10 -160 -10 q-2 16 -18 47 q98 -3 143 0 q25 1 25 24 l0 824 l47 0 Z" /><glyph glyph-name="" unicode="&#x521b;" d="M458 -16 q36 0 47 27 q10 27 13 122 q20 -14 45 -19 q-5 -105 -24 -138 q-21 -36 -80 -36 l-200 0 q-65 0 -87 17 q-23 17 -23 70 l0 439 l346 0 q0 -16 -1 -23 q-14 -232 -43 -265 q-17 -17 -51 -20 q-69 0 -94 2 q-2 23 -13 44 q50 -5 91 -5 q21 0 29 9 q21 24 34 214 l-252 0 l0 -395 q0 -26 12 -35 q12 -8 52 -8 l199 0 ZM369 816 l-21 -43 q161 -159 242 -276 l-35 -30 q-67 99 -227 268 q-101 -179 -256 -302 q-18 18 -37 30 q198 148 289 366 l45 -13 ZM704 169 l-46 0 l0 546 l46 0 l0 -546 ZM903 819 l0 -816 q0 -50 -39 -64 q-33 -9 -170 -8 q-5 20 -18 46 q115 -3 153 -1 q27 1 27 26 l0 817 l47 0 Z" /><glyph glyph-name="" unicode="&#x521d;" d="M256 671 q-28 62 -85 139 l36 20 q63 -76 87 -135 l-38 -24 ZM379 199 q-38 56 -116 152 l0 -423 l-49 0 l0 414 q-70 -84 -140 -143 q-13 29 -31 45 q186 142 285 362 l-270 0 l0 45 l295 0 l0 -1 l9 3 l29 -20 q-42 -108 -126 -225 l41 -46 q54 56 84 100 l38 -28 q-44 -52 -98 -98 q49 -59 81 -96 l-32 -41 ZM916 713 q-21 -684 -72 -745 q-24 -31 -72 -34 q-55 -3 -148 3 q-2 27 -14 47 q65 -6 149 -6 q28 0 41 16 q48 52 68 702 l-225 0 q-16 -301 -65 -463 q-59 -195 -195 -309 q-11 16 -38 36 q133 102 190 292 q46 154 58 444 l-186 0 l0 47 l509 0 l0 -30 Z" /><glyph glyph-name="" unicode="&#x5229;" d="M330 530 l223 0 l0 -46 l-223 0 l0 -22 q45 -43 205 -213 l-29 -38 q-63 76 -176 195 l0 -478 l-48 0 l0 479 q-96 -222 -213 -334 q-15 27 -29 43 q146 139 231 368 l-211 0 l0 46 l222 0 l0 196 q-106 -20 -209 -32 q-2 14 -14 39 q294 38 421 93 l37 -37 q-73 -29 -187 -53 l0 -206 ZM689 171 l-47 0 l0 545 l47 0 l0 -545 ZM903 824 l0 -819 q0 -50 -39 -64 q-31 -9 -169 -9 q-6 25 -19 48 q37 -1 153 -1 q27 3 27 26 l0 819 l47 0 Z" /><glyph glyph-name="" unicode="&#x5230;" d="M355 85 l222 42 l2 -43 q-257 -50 -497 -99 l-12 47 l239 44 l0 189 l-204 0 l0 44 l204 0 l0 119 l46 0 l0 -119 l212 0 l0 -44 l-212 0 l0 -180 ZM430 665 q112 -133 157 -215 l-37 -24 q-23 39 -44 70 q-363 -38 -385 -49 q-8 33 -17 48 q17 2 49 45 q55 72 105 179 l-180 0 l0 44 l508 0 l0 -44 l-274 0 q-65 -129 -132 -214 l299 29 q-49 69 -85 110 l36 21 ZM697 147 l-45 0 l0 603 l45 0 l0 -603 ZM900 813 l0 -788 q0 -51 -36 -64 q-30 -9 -147 -9 q-5 23 -20 51 q99 -3 135 -1 q21 1 21 22 l0 789 l47 0 Z" /><glyph glyph-name="" unicode="&#x5236;" d="M351 514 l256 0 l0 -45 l-256 0 l0 -118 l214 0 l0 -285 q0 -39 -26 -49 q-21 -8 -118 -8 q-6 25 -17 43 q81 -2 101 0 q15 0 15 15 l0 239 l-169 0 l0 -379 l-46 0 l0 379 l-159 0 l0 -296 l-45 0 l0 341 l204 0 l0 118 l-254 0 l0 45 l254 0 l0 123 l-149 0 q-32 -77 -58 -115 q-7 5 -44 19 q68 97 106 265 l47 -9 q-18 -68 -34 -114 l132 0 l0 147 l46 0 l0 -147 l217 0 l0 -46 l-217 0 l0 -123 ZM741 191 l-45 0 l0 545 l45 0 l0 -545 ZM919 827 l0 -818 q0 -53 -38 -67 q-29 -10 -151 -10 q-10 34 -18 54 q100 -3 139 -1 q21 0 21 22 l0 820 l47 0 Z" /><glyph glyph-name="" unicode="&#x524d;" d="M427 197 l0 121 l-254 0 l0 -121 l254 0 ZM173 479 l0 -120 l254 0 l0 120 l-254 0 ZM473 -6 q0 -43 -31 -53 q-24 -9 -138 -9 q-11 33 -17 45 q92 -3 120 -1 q20 0 20 19 l0 161 l-254 0 l0 -225 l-46 0 l0 592 l346 0 l0 -529 ZM819 546 l47 0 l0 -548 q0 -47 -34 -59 q-31 -9 -153 -9 q-4 19 -19 47 q111 -2 138 0 q21 1 21 20 l0 549 ZM662 105 l-45 0 l0 408 l45 0 l0 -408 ZM267 834 q69 -76 104 -146 l-46 -19 q-31 68 -100 148 l42 17 ZM940 669 l0 -45 l-881 0 l0 45 l578 0 q59 81 100 170 l50 -19 q-51 -87 -97 -151 l250 0 Z" /><glyph glyph-name="" unicode="&#x526a;" d="M869 227 q-1 -17 -2 -24 q-23 -217 -60 -249 q-19 -18 -62 -21 q-62 -2 -151 5 q-2 22 -16 43 q66 -7 150 -7 q32 0 42 8 q29 27 47 202 l-334 0 q-33 -112 -121 -170 q-94 -63 -284 -90 q-8 23 -23 42 q180 23 267 76 q81 48 110 142 l-345 0 l0 43 l782 0 ZM433 410 l0 72 l-247 0 l0 -72 l247 0 ZM186 588 l0 -70 l247 0 l0 70 l-247 0 ZM476 328 q0 -32 -22 -42 q-18 -7 -95 -7 q-3 16 -14 36 q60 -2 76 0 q12 1 12 13 l0 47 l-247 0 l0 -95 l-43 0 l0 345 l333 0 l0 -297 ZM655 616 l0 -259 l-44 0 l0 259 l44 0 ZM849 327 q0 -35 -25 -46 q-21 -7 -112 -7 q-2 14 -15 39 q75 -2 94 0 q14 0 14 14 l0 318 l44 0 l0 -318 ZM933 726 l0 -41 l-865 0 l0 41 l243 0 q-26 51 -68 94 l43 15 q45 -51 71 -95 l-31 -14 l304 0 q44 55 73 109 l46 -15 q-32 -51 -67 -94 l251 0 Z" /><glyph glyph-name="" unicode="&#x526f;" d="M142 310 l0 -113 l181 0 l0 113 l-181 0 ZM548 310 l-181 0 l0 -113 l181 0 l0 113 ZM548 36 l0 120 l-181 0 l0 -120 l181 0 ZM323 36 l0 120 l-181 0 l0 -120 l181 0 ZM97 351 l497 0 l0 -407 l-46 0 l0 50 l-406 0 l0 -65 l-45 0 l0 422 ZM502 613 l-322 0 l0 -135 l322 0 l0 135 ZM548 655 l0 -218 l-413 0 l0 218 l413 0 ZM67 784 l545 0 l0 -43 l-545 0 l0 43 ZM737 167 l-45 0 l0 546 l45 0 l0 -546 ZM914 814 l0 -817 q0 -50 -37 -62 q-30 -10 -157 -9 q-6 24 -17 47 q94 -3 139 0 q25 0 25 23 l0 818 l47 0 Z" /><glyph glyph-name="" unicode="&#x2f12;&#x529b;&#xf98a;" d="M900 608 l-1 -28 q-33 -555 -90 -617 q-26 -28 -76 -31 q-55 -3 -159 5 q-4 30 -17 48 q72 -7 163 -7 q32 0 46 14 q54 52 83 568 l-376 0 q-28 -418 -376 -637 q-15 22 -37 37 q337 209 363 600 l-334 0 l0 48 l337 0 q1 24 1 69 l0 153 l49 0 l0 -153 q0 -45 -1 -69 l425 0 Z" /><glyph glyph-name="" unicode="&#x52a0;" d="M484 618 q-27 -576 -76 -634 q-22 -29 -61 -30 q-32 -3 -107 1 q-2 29 -14 49 q61 -4 105 -4 q25 0 35 14 q45 51 69 586 l-166 0 q-23 -484 -178 -666 q-20 20 -40 29 q150 169 171 637 l-152 0 l0 47 l153 0 q3 96 3 184 l48 0 q0 -88 -3 -184 l213 0 l0 -29 ZM854 61 l0 594 l-231 0 l0 -594 l231 0 ZM903 702 l0 -756 l-49 0 l0 68 l-231 0 l0 -74 l-47 0 l0 762 l327 0 Z" /><glyph glyph-name="" unicode="&#x52a9;" d="M159 98 l221 48 l0 155 l-221 0 l0 -203 ZM159 735 l0 -174 l221 0 l0 174 l-221 0 ZM380 517 l-221 0 l0 -172 l221 0 l0 172 ZM492 125 l-441 -101 l-10 49 l73 15 l0 692 l312 0 l0 -624 l62 13 l4 -44 ZM923 571 q-16 -558 -55 -608 q-21 -27 -64 -30 q-41 -3 -139 3 q-4 29 -15 47 q61 -5 138 -5 q27 -2 38 14 q36 41 49 562 l-185 0 q-13 -223 -67 -362 q-68 -175 -213 -268 q-14 21 -37 34 q246 148 271 596 l-181 0 l0 46 l184 0 q3 77 3 233 l46 0 q0 -156 -3 -233 l230 0 l0 -29 Z" /><glyph glyph-name="" unicode="&#x5305;" d="M262 650 q-82 -118 -179 -197 q-17 17 -41 33 q174 130 270 352 l47 -14 q-33 -73 -68 -128 l572 0 l0 -27 q-17 -452 -51 -494 q-21 -23 -59 -26 q-47 -4 -116 2 q-2 25 -13 46 q49 -5 111 -5 q24 0 35 13 q29 35 44 445 l-552 0 ZM247 483 l0 -193 l305 0 l0 193 l-305 0 ZM795 -5 q65 0 85 26 q19 25 26 109 q21 -14 48 -19 q-10 -98 -38 -128 q-31 -34 -123 -34 l-410 0 q-107 0 -144 23 q-39 24 -39 94 l0 461 l399 0 l0 -281 l-352 0 l0 -180 q0 -42 24 -56 q26 -15 105 -15 l419 0 Z" /><glyph glyph-name="" unicode="&#x5317;&#xf963;" d="M339 814 l48 0 l0 -879 l-48 0 l0 236 l-272 -115 l-24 46 q82 28 296 116 l0 304 l-268 0 l0 48 l268 0 l0 244 ZM858 -1 q37 0 49 43 q10 38 15 170 q22 -18 46 -24 q-6 -139 -24 -184 q-22 -52 -85 -52 l-177 0 q-61 0 -82 22 q-23 23 -23 88 l0 751 l49 0 l0 -352 q185 112 273 197 l38 -40 q-100 -84 -311 -206 l0 -351 q0 -38 11 -50 q11 -12 47 -12 l174 0 Z" /><glyph glyph-name="" unicode="&#x5343;" d="M944 390 l-421 0 l0 -464 l-49 0 l0 464 l-416 0 l0 47 l416 0 l0 264 q-171 -26 -349 -44 q-3 16 -14 43 q489 50 693 116 l37 -40 q-116 -36 -318 -69 l0 -270 l421 0 l0 -47 Z" /><glyph glyph-name="" unicode="&#x5347;" d="M943 379 l-223 0 l0 -453 l-48 0 l0 453 l-336 0 q-4 -148 -51 -245 q-60 -126 -204 -210 q-13 21 -34 36 q136 78 193 194 q44 89 48 225 l-231 0 l0 47 l232 0 l0 249 q-90 -26 -204 -52 q-4 14 -17 38 q314 73 437 150 l41 -37 q-81 -44 -209 -84 l0 -264 l335 0 l0 384 l48 0 l0 -384 l223 0 l0 -47 Z" /><glyph glyph-name="" unicode="&#x5355;" d="M474 314 l0 132 l-271 0 l0 -132 l271 0 ZM203 487 l271 0 l0 129 l-271 0 l0 -129 ZM805 616 l-282 0 l0 -129 l282 0 l0 129 ZM805 446 l-282 0 l0 -132 l282 0 l0 132 ZM944 114 l-421 0 l0 -188 l-49 0 l0 188 l-415 0 l0 45 l415 0 l0 112 l-318 0 l0 388 l198 0 q-36 71 -106 149 l39 21 q77 -84 110 -150 l-34 -20 l254 0 q61 81 108 171 l50 -20 q-53 -85 -104 -151 l182 0 l0 -388 l-330 0 l0 -112 l421 0 l0 -45 Z" /><glyph glyph-name="" unicode="&#x535a;" d="M875 719 q-57 33 -146 78 l23 31 q95 -44 146 -73 l-23 -36 ZM665 569 l0 -72 l184 0 l0 72 l-184 0 ZM849 389 l0 70 l-184 0 l0 -70 l184 0 ZM620 389 l0 70 l-185 0 l0 -70 l185 0 ZM435 569 l0 -72 l185 0 l0 72 l-185 0 ZM620 675 l-283 0 l0 42 l283 0 l0 116 l45 0 l0 -116 l280 0 l0 -42 l-280 0 l0 -67 l229 0 l0 -333 l-45 0 l0 76 l-184 0 l0 -72 l-45 0 l0 72 l-185 0 l0 -78 l-44 0 l0 335 l229 0 l0 67 ZM226 515 l0 -588 l-47 0 l0 588 l-131 0 l0 46 l131 0 l0 272 l47 0 l0 -272 l115 0 l0 -46 l-115 0 ZM450 148 q86 -68 142 -124 l-32 -33 q-54 60 -140 131 l30 26 ZM955 173 l-154 0 l0 -186 q0 -41 -29 -51 q-25 -7 -138 -7 q-4 18 -17 42 q109 -2 121 -1 q18 1 18 17 l0 186 l-443 0 l0 43 l443 0 l0 66 l45 0 l0 -66 l154 0 l0 -43 Z" /><glyph glyph-name="" unicode="&#x5386;" d="M881 470 q-25 -451 -73 -503 q-23 -25 -69 -28 q-50 -2 -153 5 q-2 24 -15 47 q67 -6 153 -6 q31 -1 42 12 q43 39 65 454 l-294 0 q-16 -193 -74 -309 q-70 -139 -219 -211 q-11 21 -34 34 q144 67 210 197 q55 107 70 289 l-237 0 l0 46 l240 0 q4 85 6 178 l49 0 q-2 -102 -7 -178 l340 0 l0 -27 ZM942 732 l-766 0 l0 -250 q0 -364 -91 -551 q-14 16 -41 28 q84 171 84 523 l0 296 l814 0 l0 -46 Z" /><glyph glyph-name="" unicode="&#x53ca;" d="M328 680 q88 -358 295 -537 q159 133 220 343 l-268 0 q27 81 66 243 l-313 0 l0 -49 ZM902 521 q-62 -252 -242 -408 q126 -94 294 -136 q-15 -14 -32 -43 q-173 46 -301 147 q-135 -101 -319 -151 q-13 29 -28 42 q181 44 310 141 q-166 148 -258 424 q-18 -367 -248 -591 q-10 18 -35 38 q237 230 237 652 l0 93 l-186 0 l0 48 l605 0 q-24 -104 -61 -245 l224 0 l10 3 l30 -14 Z" /><glyph glyph-name="" unicode="&#x53cb;" d="M365 413 q66 -166 197 -274 q130 111 187 274 l-384 0 ZM810 446 q-59 -205 -209 -337 q144 -102 352 -141 q-20 -22 -30 -42 q-211 42 -359 153 q-133 -104 -323 -154 q-12 27 -28 42 q182 45 313 142 q-124 110 -195 273 q-83 -292 -246 -425 q-14 16 -41 31 q221 174 286 621 l-256 0 l0 46 l263 0 q7 55 11 114 l2 39 q1 19 2 25 l48 0 q-11 -145 -15 -178 l546 0 l0 -46 l-552 0 q-14 -91 -28 -150 l418 0 l9 3 l32 -16 Z" /><glyph glyph-name="" unicode="&#x2f1d;&#x53e3;" d="M814 91 l0 586 l-625 0 l0 -586 l625 0 ZM864 725 l0 -764 l-50 0 l0 81 l-625 0 l0 -87 l-49 0 l0 770 l724 0 Z" /><glyph glyph-name="" unicode="&#x53ea;" d="M643 217 q192 -140 295 -262 l-42 -30 q-101 123 -293 266 l40 26 ZM391 196 q-111 -156 -303 -273 q-22 24 -37 34 q199 115 291 257 l49 -18 ZM214 367 l572 0 l0 344 l-572 0 l0 -344 ZM835 757 l0 -436 l-669 0 l0 436 l669 0 Z" /><glyph glyph-name="" unicode="&#x53ef;" d="M217 498 l0 -270 l304 0 l0 270 l-304 0 ZM217 181 l0 -81 l-47 0 l0 445 l399 0 l0 -364 l-352 0 ZM942 712 l-126 0 l0 -704 q0 -59 -44 -71 q-34 -9 -199 -9 q-7 27 -21 53 q115 -4 188 -1 q27 3 27 29 l0 703 l-706 0 l0 47 l881 0 l0 -47 Z" /><glyph glyph-name="" unicode="&#x53f0;" d="M239 289 l0 -258 l521 0 l0 258 l-521 0 ZM191 336 l618 0 l0 -406 l-49 0 l0 54 l-521 0 l0 -57 l-48 0 l0 409 ZM647 707 q186 -157 268 -290 l-41 -30 q-31 50 -68 93 q-649 -38 -682 -50 q-5 26 -15 48 q23 5 81 61 q125 115 242 290 l47 -22 q-145 -194 -281 -317 l574 30 q-80 91 -163 162 l38 25 Z" /><glyph glyph-name="" unicode="&#x53f8;" d="M218 378 l0 -220 l362 0 l0 220 l-362 0 ZM628 114 l-410 0 l0 -74 l-47 0 l0 382 l457 0 l0 -308 ZM706 550 l-606 0 l0 45 l606 0 l0 -45 ZM877 15 q0 -58 -40 -70 q-28 -8 -182 -8 q-4 25 -18 52 q109 -3 167 0 q25 1 25 25 l0 705 l-733 0 l0 46 l781 0 l0 -750 Z" /><glyph glyph-name="" unicode="&#x5404;" d="M255 228 l0 -211 l481 0 l0 211 l-481 0 ZM207 274 l578 0 l0 -350 l-49 0 l0 49 l-481 0 l0 -52 l-48 0 l0 353 ZM304 664 q80 -97 200 -175 q137 86 217 190 l-403 0 l-14 -15 ZM798 703 q-85 -131 -251 -242 q193 -116 411 -162 q-15 -18 -31 -44 q-232 57 -422 180 q-203 -123 -448 -183 q-7 24 -23 44 q224 48 429 167 q-112 78 -189 170 q-79 -78 -172 -136 q-18 21 -38 34 q209 121 317 309 l45 -17 q-30 -50 -70 -100 l401 0 l8 2 l33 -22 Z" /><glyph glyph-name="" unicode="&#x5408;" d="M252 275 l0 -237 l506 0 l0 237 l-506 0 ZM203 319 l604 0 l0 -386 l-49 0 l0 59 l-506 0 l0 -63 l-49 0 l0 390 ZM753 504 l0 -45 l-505 0 l0 45 l505 0 ZM563 814 q-19 -28 -32 -45 q149 -171 430 -296 q-24 -18 -34 -42 q-268 130 -423 303 q-170 -205 -422 -309 q-16 25 -34 39 q317 125 474 369 l41 -19 Z" /><glyph glyph-name="" unicode="&#x540e;" d="M357 301 l0 -275 l461 0 l0 275 l-461 0 ZM310 347 l557 0 l0 -421 l-49 0 l0 54 l-461 0 l0 -55 l-47 0 l0 422 ZM944 554 l0 -46 l-736 0 l0 -18 q0 -374 -128 -565 q-20 25 -39 33 q118 174 118 532 l0 249 q456 31 669 82 l42 -38 q-227 -53 -662 -83 l0 -146 l736 0 Z" /><glyph glyph-name="" unicode="&#x542c;" d="M131 692 l0 -477 l159 0 l0 477 l-159 0 ZM338 168 l-207 0 l0 -76 l-46 0 l0 647 l253 0 l0 -571 ZM948 458 l-145 0 l0 -531 l-49 0 l0 531 l-229 0 q-2 -349 -132 -524 q-14 18 -39 30 q122 166 122 508 l0 258 q249 45 372 98 l44 -37 q-129 -51 -367 -95 l0 -190 l423 0 l0 -48 Z" /><glyph glyph-name="" unicode="&#x548c;" d="M309 540 l191 0 l0 -46 l-191 0 l0 -30 q115 -126 176 -208 l-32 -38 q-34 52 -144 188 l0 -477 l-48 0 l0 488 q-92 -216 -202 -331 q-13 27 -29 42 q136 138 219 366 l-193 0 l0 46 l205 0 l0 188 q-90 -15 -178 -26 q-4 18 -15 39 q274 37 385 82 l34 -38 q-60 -24 -178 -48 l0 -197 ZM845 100 l0 594 l-259 0 l0 -594 l259 0 ZM894 741 l0 -765 l-49 0 l0 78 l-259 0 l0 -85 l-47 0 l0 772 l355 0 Z" /><glyph glyph-name="" unicode="&#x54c1;" d="M717 742 l-428 0 l0 -222 l428 0 l0 222 ZM765 474 l-523 0 l0 315 l523 0 l0 -315 ZM138 308 l0 -278 l245 0 l0 278 l-245 0 ZM92 354 l339 0 l0 -417 l-48 0 l0 47 l-245 0 l0 -57 l-46 0 l0 427 ZM870 30 l0 278 l-268 0 l0 -278 l268 0 ZM917 354 l0 -420 l-47 0 l0 50 l-268 0 l0 -57 l-47 0 l0 427 l362 0 Z" /><glyph glyph-name="" unicode="&#x552e;" d="M231 175 l0 -155 l552 0 l0 155 l-552 0 ZM184 217 l648 0 l0 -292 l-49 0 l0 53 l-552 0 l0 -53 l-47 0 l0 292 ZM230 343 l284 0 l0 90 l-284 0 l0 -90 ZM514 677 l-284 0 l0 -82 l284 0 l0 82 ZM514 556 l-284 0 l0 -84 l284 0 l0 84 ZM891 343 l0 -41 l-661 0 l0 -43 l-47 0 l0 365 q-49 -65 -106 -116 q-28 28 -36 33 q138 117 213 293 l47 -14 q-20 -45 -54 -103 l281 0 q-28 59 -56 103 l43 13 q45 -70 65 -116 l289 0 l0 -40 l-308 0 l0 -82 l262 0 l0 -39 l-262 0 l0 -84 l266 0 l0 -39 l-266 0 l0 -90 l330 0 Z" /><glyph glyph-name="" unicode="&#x5546;" d="M434 429 q-83 -100 -184 -171 q-9 18 -28 37 q104 66 173 151 l39 -17 ZM365 236 l0 -138 l267 0 l0 138 l-267 0 ZM365 58 l0 -50 l-43 0 l0 267 l353 0 l0 -217 l-310 0 ZM770 264 q-85 75 -200 155 l29 30 q144 -101 200 -149 l-29 -36 ZM874 -6 q0 -43 -33 -54 q-27 -7 -163 -7 q-5 19 -17 40 q111 -3 144 -1 q24 1 24 22 l0 480 l-653 0 l0 -546 l-46 0 l0 588 l459 0 q46 63 87 143 l51 -13 q-36 -59 -88 -130 l235 0 l0 -522 ZM323 664 q50 -73 68 -113 l-42 -20 q-24 51 -66 117 l40 16 ZM935 718 l0 -44 l-868 0 l0 44 l427 0 q-34 84 -44 105 l44 12 q29 -56 51 -117 l390 0 Z" /><glyph glyph-name="" unicode="&#x55b7;" d="M620 701 l-231 0 l0 43 l231 0 l0 87 l46 0 l0 -87 l243 0 l0 -43 l-243 0 l0 -87 l-46 0 l0 87 ZM474 526 l-130 0 l0 42 l130 0 l0 83 l45 0 l0 -83 l252 0 l0 83 l45 0 l0 -83 l133 0 l0 -42 l-133 0 l0 -78 l-45 0 l0 78 l-252 0 l0 -78 l-45 0 l0 78 ZM826 96 l0 282 l-359 0 l0 -283 l-45 0 l0 326 l450 0 l0 -325 l-46 0 ZM123 688 l0 -448 l128 0 l0 448 l-128 0 ZM293 194 l-170 0 l0 -100 l-42 0 l0 639 l212 0 l0 -539 ZM624 297 l45 0 l0 -112 q0 -82 -55 -134 q-77 -75 -277 -117 q-14 26 -26 38 q189 35 263 100 q50 45 50 114 l0 111 ZM708 101 q142 -67 252 -133 l-22 -41 q-115 81 -253 146 l23 28 Z" /><glyph glyph-name="" unicode="&#x5609;" d="M481 153 l-2 -21 q-16 -158 -41 -180 q-17 -17 -50 -18 q-62 0 -105 3 q-2 19 -12 40 q45 -5 101 -5 q24 0 30 7 q18 20 30 134 l-162 0 q-43 -137 -196 -187 q-9 18 -28 33 q138 44 178 154 l-144 0 l0 40 l157 0 q8 39 11 73 l45 0 q-4 -38 -12 -73 l200 0 ZM596 139 l0 -134 l244 0 l0 134 l-244 0 ZM552 179 l334 0 l0 -247 l-46 0 l0 33 l-244 0 l0 -37 l-44 0 l0 251 ZM343 366 q40 -37 52 -74 l-39 -14 l246 0 q31 47 51 88 l-310 0 ZM226 404 l556 0 l0 96 l-556 0 l0 -96 ZM701 353 l-48 -75 l273 0 l0 -41 l-855 0 l0 41 l279 0 q-17 43 -51 79 l28 9 l-147 0 l0 173 l649 0 l0 -173 l-169 0 l41 -13 ZM933 757 l0 -40 l-411 0 l0 -74 l345 0 l0 -40 l-732 0 l0 40 l339 0 l0 74 l-403 0 l0 40 l403 0 l0 75 l48 0 l0 -75 l411 0 Z" /><glyph glyph-name="" unicode="&#x5668;" d="M820 743 l-219 0 l0 -172 l219 0 l0 172 ZM866 528 l-311 0 l0 258 l311 0 l0 -258 ZM387 743 l-210 0 l0 -172 l210 0 l0 172 ZM433 528 l-300 0 l0 258 l300 0 l0 -258 ZM810 3 l0 184 l-214 0 l0 -184 l214 0 ZM397 187 l-202 0 l0 -184 l202 0 l0 184 ZM648 369 q121 -107 312 -155 q-19 -14 -31 -38 q-39 11 -73 25 l0 -267 l-46 0 l0 25 l-214 0 l0 -31 l-45 0 l0 303 l234 0 q-126 62 -196 138 l-197 0 q-75 -78 -176 -138 l227 0 l0 -297 l-46 0 l0 25 l-202 0 l0 -31 l-46 0 l0 268 q-37 -19 -81 -35 q-13 22 -29 36 q174 63 289 172 l-270 0 l0 45 l314 0 q51 59 79 120 l51 -10 q-31 -60 -71 -110 l323 0 q-51 39 -136 70 l26 29 q99 -36 146 -74 l-21 -25 l174 0 l0 -45 l-295 0 Z" /><glyph glyph-name="" unicode="&#x56de;" d="M639 517 l-282 0 l0 -262 l282 0 l0 262 ZM686 562 l0 -351 l-375 0 l0 351 l375 0 ZM862 28 l0 712 l-724 0 l0 -712 l724 0 ZM911 788 l0 -860 l-49 0 l0 54 l-724 0 l0 -54 l-48 0 l0 860 l821 0 Z" /><glyph glyph-name="" unicode="&#x56e0;" d="M515 469 l-9 -55 q195 -177 287 -316 l-35 -28 q-96 139 -264 299 q-60 -217 -253 -306 q-14 22 -33 37 q216 96 260 369 l-266 0 l0 45 l273 0 q10 81 13 182 l47 0 q-6 -123 -14 -182 l277 0 l0 -45 l-283 0 ZM865 23 l0 720 l-729 0 l0 -720 l729 0 ZM912 788 l0 -860 l-47 0 l0 52 l-729 0 l0 -52 l-46 0 l0 860 l822 0 Z" /><glyph glyph-name="" unicode="&#x56e2;" d="M786 508 l-174 0 l0 -355 q0 -41 -29 -52 q-22 -8 -126 -8 q-2 15 -17 44 q82 -3 108 -1 q17 0 17 17 l0 293 q-124 -155 -321 -272 q-15 21 -32 32 q217 122 339 302 l-331 0 l0 45 l345 0 l0 139 l47 0 l0 -139 l174 0 l0 -45 ZM858 17 l0 723 l-717 0 l0 -723 l717 0 ZM908 786 l0 -860 l-50 0 l0 46 l-717 0 l0 -46 l-49 0 l0 860 l816 0 Z" /><glyph glyph-name="" unicode="&#x56fe;" d="M305 195 q234 -28 402 -87 l-23 -39 q-190 65 -403 90 l24 36 ZM407 318 q132 -27 229 -74 l-21 -37 q-100 51 -230 79 l22 32 ZM368 573 q50 -61 140 -115 q103 60 156 129 l-284 0 l-12 -14 ZM733 612 q-60 -98 -185 -176 q126 -66 276 -92 q-18 -14 -29 -39 q-156 33 -286 107 q-139 -78 -310 -117 q-11 25 -25 40 q156 31 294 102 q-76 47 -129 108 q-49 -47 -109 -88 q-14 16 -36 30 q149 91 225 220 l42 -14 q-16 -26 -45 -65 l281 0 l8 2 l28 -18 ZM860 16 l0 725 l-721 0 l0 -725 l721 0 ZM908 786 l0 -860 l-48 0 l0 46 l-721 0 l0 -46 l-47 0 l0 860 l816 0 Z" /><glyph glyph-name="" unicode="&#x5728;" d="M378 622 q-57 -118 -123 -208 l0 -483 l-47 0 l0 425 q-63 -72 -132 -123 q-16 27 -28 40 q168 124 277 349 l-257 0 l0 47 l278 0 q34 77 58 164 l49 -13 q-28 -91 -55 -151 l534 0 l0 -47 l-554 0 ZM934 -4 l0 -46 l-606 0 l0 46 l277 0 l0 315 l-237 0 l0 46 l237 0 l0 208 l48 0 l0 -208 l242 0 l0 -46 l-242 0 l0 -315 l281 0 Z" /><glyph glyph-name="" unicode="&#x573a;" d="M350 230 l8 -44 l-157 -62 q-95 -37 -142 -56 l-16 49 q35 11 144 51 l0 372 l-130 0 l0 46 l130 0 l0 237 l46 0 l0 -237 l117 0 l0 -46 l-117 0 l0 -354 l117 44 ZM928 505 q-1 -20 -2 -28 q-28 -457 -77 -514 q-23 -26 -60 -27 q-48 -2 -101 2 q-2 26 -14 46 q43 -4 99 -4 q23 -1 34 13 q43 44 71 466 l-87 0 q-111 -362 -382 -535 q-9 12 -38 31 q265 152 374 504 l-100 0 q-69 -191 -235 -310 q-11 15 -37 30 q158 102 225 280 l-108 0 q-72 0 -85 -11 q-8 25 -22 47 q28 2 98 49 q118 72 248 194 l-354 0 l0 47 l406 0 l10 5 l39 -28 q-203 -176 -335 -257 l433 0 Z" /><glyph glyph-name="" unicode="&#x5747;" d="M382 262 l12 -41 q-190 -96 -333 -165 l-18 49 l142 64 l0 373 l-137 0 l0 46 l137 0 l0 235 l46 0 l0 -235 l129 0 l0 -46 l-129 0 l0 -351 l151 71 ZM798 262 q-231 -129 -369 -202 l-22 46 q142 68 379 197 l12 -41 ZM677 304 q-82 86 -190 171 l30 28 q116 -89 192 -165 l-32 -34 ZM921 667 q0 -22 -1 -29 q-18 -622 -68 -679 q-23 -29 -73 -32 q-66 -4 -164 4 q-4 27 -15 47 q74 -7 166 -7 q31 -1 45 15 q46 46 63 636 l-345 0 q-63 -106 -132 -176 q-14 18 -36 36 q139 128 216 351 l45 -12 q-29 -80 -68 -154 l367 0 Z" /><glyph glyph-name="" unicode="&#x57df;" d="M897 693 q-52 60 -128 110 l30 26 q80 -53 129 -106 l-31 -30 ZM329 196 l-268 -126 l-18 48 q31 12 121 51 l0 371 l-116 0 l0 46 l116 0 l0 237 l45 0 l0 -237 l100 0 l0 -46 l-100 0 l0 -350 q10 4 54 24 l54 25 l12 -43 ZM656 145 q-116 -34 -349 -105 l-15 46 q129 35 359 101 l5 -42 ZM559 481 l-161 0 l0 -196 l161 0 l0 196 ZM601 523 l0 -280 l-244 0 l0 280 l244 0 ZM920 513 q-58 -201 -155 -345 q42 -194 108 -194 q30 0 37 155 q20 -18 38 -24 q-7 -102 -23 -138 q-17 -40 -57 -40 q-90 0 -138 191 q-81 -105 -189 -181 q-11 14 -37 33 q123 79 213 206 q-33 173 -44 458 l-347 0 l0 45 l347 0 l-3 153 l48 0 q0 -104 1 -153 l221 0 l0 -45 l-220 0 q6 -231 33 -402 q75 126 121 290 l46 -9 Z" /><glyph glyph-name="" unicode="&#x57fa;" d="M522 -3 l355 0 l0 -43 l-751 0 l0 43 l349 0 l0 130 l-221 0 l0 43 l221 0 l0 97 l47 0 l0 -97 l226 0 l0 -43 l-226 0 l0 -130 ZM306 348 l392 0 l0 87 l-392 0 l0 -87 ZM306 681 l0 -81 l392 0 l0 81 l-392 0 ZM306 475 l392 0 l0 85 l-392 0 l0 -85 ZM721 305 q89 -125 238 -178 q-18 -15 -33 -37 q-161 66 -256 215 l-334 0 q-94 -151 -258 -229 q-15 23 -34 37 q143 58 240 192 l-229 0 l0 43 l203 0 l0 333 l-160 0 l0 43 l160 0 l0 109 l48 0 l0 -109 l392 0 l0 108 l48 0 l0 -108 l159 0 l0 -43 l-159 0 l0 -333 l200 0 l0 -43 l-225 0 Z" /><glyph glyph-name="" unicode="&#x5904;" d="M680 104 l-50 0 l0 726 l50 0 l0 -265 l23 13 q146 -152 222 -263 l-41 -26 q-67 108 -204 252 l0 -437 ZM244 629 q-13 -46 -30 -90 q39 -181 109 -298 q89 161 122 388 l-201 0 ZM499 666 q-35 -279 -144 -469 q138 -184 443 -184 q122 0 154 1 q-16 -30 -19 -50 l-137 0 q-320 0 -468 191 q-96 -145 -248 -227 q-18 25 -38 38 q157 80 256 232 q-72 112 -110 273 q-39 -89 -87 -153 q-22 17 -39 27 q126 162 174 483 l49 -16 q-11 -64 -29 -138 l202 0 l9 3 l32 -11 Z" /><glyph glyph-name="" unicode="&#x5916;" d="M479 678 l32 -11 q-79 -538 -424 -733 q-18 24 -39 38 q188 101 296 307 q-68 68 -181 138 l30 32 q103 -63 172 -127 q63 139 89 308 l-214 0 q-61 -168 -148 -273 q-28 22 -41 30 q134 149 199 447 l48 -10 q-19 -80 -42 -148 l213 0 l10 2 ZM690 529 q171 -119 265 -223 l-36 -35 q-81 93 -247 217 l0 -560 l-49 0 l0 905 l49 0 l0 -319 l18 15 Z" /><glyph glyph-name="" unicode="&#x591a;" d="M778 724 q-88 -151 -289 -266 q-172 -99 -376 -144 q-10 25 -25 44 q184 35 358 128 q-61 54 -136 94 l35 28 q92 -51 144 -97 q142 85 216 187 l-302 0 q-107 -94 -243 -159 q-14 20 -34 34 q230 102 341 261 l54 -12 q-33 -43 -70 -80 l287 0 l10 3 l30 -21 ZM936 383 q-178 -372 -825 -457 q-5 23 -21 47 q294 32 500 138 q-55 57 -133 116 l39 22 q76 -53 137 -114 q157 91 231 221 l-298 0 q-139 -121 -322 -195 q-12 18 -32 35 q290 113 417 296 l55 -11 q-46 -57 -70 -80 l281 0 l10 3 l31 -21 Z" /><glyph glyph-name="" unicode="&#x591f;" d="M669 705 q-68 -86 -155 -144 q-17 21 -35 30 q150 93 217 241 l48 -8 q-30 -56 -44 -76 l174 0 l9 2 l31 -14 q-92 -263 -391 -365 q-12 21 -28 36 q108 35 197 102 q-43 41 -103 78 l34 26 q57 -33 103 -75 q83 72 126 167 l-183 0 ZM160 485 l0 -258 l128 0 l0 258 l-128 0 ZM160 184 l0 -76 l-42 0 l0 419 l212 0 l0 -343 l-170 0 ZM455 674 q-12 -631 -48 -683 q-22 -28 -63 -31 q-44 -5 -118 2 q-2 26 -13 45 q52 -4 117 -4 q24 -1 35 16 q33 43 44 639 l-232 0 q-45 -94 -96 -159 q-6 5 -41 27 q97 112 148 300 l47 -11 q-17 -60 -39 -112 l259 0 l0 -29 ZM961 353 q-95 -327 -475 -425 q-11 26 -26 41 q171 37 286 134 q-52 55 -124 102 l34 27 q69 -43 123 -99 q80 79 121 188 l-194 0 q-84 -98 -195 -160 q-13 19 -32 32 q181 100 261 259 l50 -9 q-19 -37 -51 -80 l172 0 l0 1 l10 0 l10 2 l30 -13 Z" /><glyph glyph-name="" unicode="&#x2f24;&#x5927;" d="M545 488 q119 -391 406 -515 q-16 -13 -36 -45 q-291 139 -416 546 q-80 -398 -414 -547 q-15 25 -36 39 q323 138 404 522 l-386 0 l0 48 l394 0 q16 104 19 296 l50 0 q-2 -186 -19 -296 l426 0 l0 -48 l-392 0 Z" /><glyph glyph-name="" unicode="&#x5929;" d="M539 391 q110 -331 418 -422 q-19 -19 -32 -43 q-307 105 -426 442 q-68 -287 -417 -442 q-13 23 -31 40 q341 149 402 425 l-384 0 l0 49 l393 0 q8 61 8 134 l0 127 l-367 0 l0 48 l789 0 l0 -48 l-373 0 l0 -127 q0 -80 -7 -134 l424 0 l0 -49 l-397 0 Z" /><glyph glyph-name="" unicode="&#x5934;" d="M432 621 q-87 71 -226 121 l28 36 q151 -55 227 -117 l-29 -40 ZM341 441 q-84 70 -222 126 l30 33 q141 -54 223 -121 l-31 -38 ZM561 218 q229 -112 370 -240 l-33 -35 q-131 121 -364 243 l27 32 ZM940 369 l0 -45 l-391 0 q-40 -148 -139 -240 q-110 -101 -313 -153 q-9 18 -29 40 q351 86 432 353 l-438 0 l0 45 l450 0 q25 117 27 451 l48 0 q-2 -328 -27 -451 l380 0 Z" /><glyph glyph-name="" unicode="&#x5947;" d="M846 452 q-161 81 -377 161 q-89 -126 -357 -165 q-6 16 -22 39 q165 23 251 72 q83 47 118 132 l-350 0 l0 44 l364 0 q12 43 18 98 l50 0 q-6 -53 -18 -98 l376 0 l0 -44 l-389 0 q-7 -20 -18 -40 q227 -83 388 -163 l-34 -36 ZM213 252 l0 -162 l287 0 l0 162 l-287 0 ZM546 48 l-333 0 l0 -69 l-46 0 l0 315 l379 0 l0 -246 ZM944 387 l-145 0 l0 -391 q0 -50 -40 -61 q-37 -9 -190 -9 q-4 22 -20 48 q114 -4 176 -1 q25 1 25 24 l0 390 l-691 0 l0 45 l885 0 l0 -45 Z" /><glyph glyph-name="" unicode="&#x5957;" d="M425 681 q-60 -72 -122 -122 l410 0 q-77 61 -128 122 l-160 0 ZM315 518 l0 -77 l428 0 l0 -39 l-428 0 l0 -79 l428 0 l0 -38 l-428 0 l0 -82 l622 0 l0 -43 l-538 0 q-80 -90 -158 -150 l488 27 q-21 22 -85 81 l39 22 q108 -95 189 -187 l-42 -26 q-9 12 -65 74 q-573 -35 -600 -45 q-5 27 -16 49 q24 1 58 32 q54 38 129 123 l-272 0 l0 43 l202 0 l0 327 q-82 -59 -188 -108 q-15 24 -32 36 q194 81 318 223 l-290 0 l0 43 l325 0 q38 51 65 109 l52 -9 q-27 -57 -59 -100 l472 0 l0 -43 l-288 0 q131 -142 316 -213 q-22 -16 -32 -38 q-93 41 -188 110 l0 -22 l-422 0 Z" /><glyph glyph-name="" unicode="&#x597d;" d="M200 578 q-36 -164 -68 -273 q68 -42 134 -93 q73 146 98 366 l-164 0 ZM415 618 q-25 -266 -111 -437 q83 -68 121 -117 l-34 -39 q-38 50 -111 112 q-84 -138 -215 -209 q-8 17 -32 39 q127 61 209 201 q-79 66 -165 117 q36 105 77 293 l-107 0 l0 46 l117 0 q22 115 34 209 l48 -4 q-12 -85 -36 -205 l166 0 l9 2 l30 -8 ZM953 356 l-233 0 l0 -364 q0 -46 -36 -58 q-30 -8 -146 -8 q-4 14 -20 46 q107 -2 132 0 q21 1 21 20 l0 364 l-243 0 l0 46 l243 0 l0 127 q90 73 164 177 l-360 0 l0 45 l394 0 l11 4 l35 -25 q-81 -122 -195 -217 l0 -111 l233 0 l0 -46 Z" /><glyph glyph-name="" unicode="&#x5982;" d="M236 578 q-36 -156 -72 -275 q82 -52 147 -103 q83 152 106 378 l-181 0 ZM469 619 q-23 -274 -118 -449 q83 -69 118 -115 l-34 -38 q-34 44 -111 110 q-90 -135 -237 -201 q-9 17 -31 41 q142 58 230 191 q-89 72 -178 127 q43 124 81 293 l-137 0 l0 46 l147 0 q28 135 37 209 l48 -3 q-8 -57 -37 -206 l182 0 l10 2 l30 -7 ZM868 73 l0 603 l-286 0 l0 -603 l286 0 ZM915 722 l0 -757 l-47 0 l0 62 l-286 0 l0 -76 l-46 0 l0 771 l379 0 Z" /><glyph glyph-name="" unicode="&#x59cb;" d="M198 578 q-37 -167 -69 -275 q58 -34 128 -89 q63 146 82 364 l-141 0 ZM387 620 q-21 -270 -93 -436 q74 -63 117 -117 l-31 -39 q-31 42 -108 112 q-72 -139 -194 -212 q-7 18 -30 39 q116 62 188 204 q-90 72 -159 114 q35 101 77 293 l-106 0 l0 46 l116 0 q23 118 34 206 l45 -3 q-14 -97 -35 -203 l142 0 l9 2 l28 -6 ZM516 279 l0 -262 l334 0 l0 262 l-334 0 ZM471 324 l426 0 l0 -395 l-47 0 l0 43 l-334 0 l0 -46 l-45 0 l0 398 ZM788 686 q114 -145 171 -279 l-41 -20 q-17 39 -35 73 q-431 -31 -455 -41 q-6 22 -17 49 q19 2 64 66 q95 123 172 301 l49 -16 q-106 -212 -203 -339 l367 22 q-55 93 -110 166 l38 18 Z" /><glyph glyph-name="" unicode="&#x5b66;" d="M514 663 q-20 72 -81 162 l42 15 q61 -88 83 -159 l-44 -18 ZM136 477 l-46 0 l0 185 l172 0 q-32 67 -98 142 l40 19 q72 -79 99 -140 l-35 -21 l424 0 q68 83 112 165 l46 -20 q-60 -91 -107 -145 l176 0 l0 -185 l-47 0 l0 141 l-736 0 l0 -141 ZM940 224 l-418 0 l0 -230 q0 -47 -40 -59 q-31 -8 -179 -8 q-5 18 -23 46 q137 -3 169 0 q25 2 25 21 l0 230 l-409 0 l0 45 l409 0 l0 78 q114 40 210 108 l-459 0 l0 44 l513 0 l11 3 l32 -25 q-93 -84 -259 -153 l0 -55 l418 0 l0 -45 Z" /><glyph glyph-name="" unicode="&#x5b8c;" d="M137 507 l-47 0 l0 204 l403 0 q-30 67 -62 116 l47 13 q43 -62 70 -129 l360 0 l0 -204 l-48 0 l0 157 l-723 0 l0 -157 ZM221 493 l0 46 l558 0 l0 -46 l-558 0 ZM854 -11 q31 0 40 25 q9 24 11 114 q20 -12 45 -20 q-5 -101 -22 -132 q-18 -32 -71 -32 l-169 0 q-59 0 -79 15 q-20 16 -20 63 l0 284 l-199 0 q-13 -173 -74 -252 q-68 -90 -239 -129 q-9 22 -26 39 q162 34 224 115 q54 70 66 227 l-281 0 l0 46 l879 0 l0 -46 l-302 0 l0 -284 q0 -20 10 -27 q10 -6 43 -6 l164 0 Z" /><glyph glyph-name="" unicode="&#x5b9a;" d="M138 518 l-48 0 l0 198 l402 0 q-20 51 -55 108 l46 13 q46 -72 60 -114 l-20 -7 l387 0 l0 -198 l-49 0 l0 152 l-723 0 l0 -152 ZM523 8 q82 -17 191 -17 q203 0 241 1 q-16 -22 -20 -48 l-223 0 q-183 0 -284 43 q-122 52 -187 185 q-53 -157 -158 -249 q-21 21 -39 33 q155 122 195 420 l47 -5 q-13 -89 -25 -135 q60 -164 214 -215 l0 457 l-270 0 l0 46 l600 0 l0 -46 l-282 0 l0 -190 l312 0 l0 -46 l-312 0 l0 -234 Z" /><glyph glyph-name="" unicode="&#x5b9d;" d="M138 505 l-47 0 l0 195 l416 0 q-15 32 -66 124 l45 14 q51 -84 75 -138 l348 0 l0 -195 l-49 0 l0 149 l-722 0 l0 -149 ZM938 2 l0 -46 l-875 0 l0 46 l410 0 l0 231 l-291 0 l0 46 l291 0 l0 186 l-311 0 l0 45 l677 0 l0 -45 l-316 0 l0 -186 l297 0 l0 -46 l-297 0 l0 -231 l415 0 ZM649 203 q116 -83 177 -141 l-34 -32 q-63 63 -175 147 l32 26 Z" /><glyph glyph-name="" unicode="&#x5b9e;" d="M147 520 l-47 0 l0 187 l403 0 q-27 62 -63 114 l47 14 q47 -69 71 -128 l344 0 l0 -187 l-49 0 l0 141 l-706 0 l0 -141 ZM395 444 q-57 65 -149 118 l31 30 q101 -58 149 -114 l-31 -34 ZM177 437 q105 -56 160 -118 l-30 -36 q-60 66 -159 122 l29 32 ZM567 167 q223 -91 359 -196 l-32 -37 q-128 106 -352 198 l25 35 ZM931 245 l0 -43 l-425 0 q-84 -202 -393 -269 q-6 17 -28 41 q286 60 367 228 l-377 0 l0 43 l396 0 q35 101 44 362 l50 0 q-9 -250 -43 -362 l409 0 Z" /><glyph glyph-name="" unicode="&#x5ba3;" d="M134 557 l-47 0 l0 176 l402 0 q-25 52 -49 90 l45 14 q33 -49 58 -104 l371 0 l0 -176 l-48 0 l0 131 l-732 0 l0 -131 ZM809 536 l-619 0 l0 42 l619 0 l0 -42 ZM272 124 l452 0 l0 122 l-452 0 l0 -122 ZM272 286 l452 0 l0 120 l-452 0 l0 -120 ZM225 83 l0 364 l546 0 l0 -364 l-546 0 ZM934 -1 l0 -45 l-869 0 l0 45 l869 0 Z" /><glyph glyph-name="" unicode="&#x5ba4;" d="M124 572 l-47 0 l0 167 l415 0 q-16 38 -47 88 l45 14 q33 -49 56 -102 l379 0 l0 -167 l-48 0 l0 122 l-753 0 l0 -122 ZM811 301 q-21 29 -60 66 q-534 -42 -560 -52 q-10 37 -16 48 q24 2 68 37 q72 48 160 146 l-229 0 l0 44 l662 0 l0 -44 l-367 0 q-102 -107 -197 -175 l442 33 q-48 44 -98 84 l36 25 q127 -99 196 -184 l-37 -28 ZM943 1 l0 -45 l-882 0 l0 45 l415 0 l0 161 l-324 0 l0 44 l324 0 l0 123 l48 0 l0 -123 l325 0 l0 -44 l-325 0 l0 -161 l419 0 Z" /><glyph glyph-name="" unicode="&#x5bb6;" d="M140 545 l-47 0 l0 193 l385 0 q-22 50 -46 85 l47 14 q34 -49 55 -99 l380 0 l0 -193 l-48 0 l0 148 l-726 0 l0 -148 ZM838 446 q-69 -59 -169 -125 q82 -234 288 -314 q-20 -16 -32 -39 q-204 89 -294 329 q-26 -17 -59 -36 q28 -98 14 -187 q-14 -86 -58 -116 q-35 -29 -93 -29 q-39 0 -87 3 q-2 24 -13 45 q58 -5 90 -5 q47 0 70 19 q29 19 42 78 q14 62 2 135 q-186 -151 -442 -226 q-7 19 -26 42 q288 70 457 231 q-14 53 -34 90 q-157 -113 -378 -184 q-13 25 -26 40 q229 58 384 178 q-23 38 -59 75 q-133 -76 -298 -127 q-9 22 -28 39 q241 67 373 166 l-256 0 l0 44 l587 0 l0 -44 l-268 0 q-29 -26 -75 -57 q73 -71 111 -171 q145 90 238 176 l39 -30 Z" /><glyph glyph-name="" unicode="&#x5bb9;" d="M138 572 l-47 0 l0 162 l403 0 q-23 53 -48 91 l47 12 q36 -53 56 -103 l361 0 l0 -162 l-49 0 l0 117 l-723 0 l0 -117 ZM632 626 q172 -102 270 -200 l-33 -33 q-98 101 -268 204 l31 29 ZM386 611 q-98 -123 -262 -220 q-21 26 -36 36 q159 84 253 199 l45 -15 ZM746 256 q-145 89 -245 205 q-92 -112 -232 -205 l477 0 ZM724 8 l0 203 l-450 0 l0 -203 l450 0 ZM546 521 l-19 -26 q140 -169 425 -288 q-19 -16 -33 -40 q-75 33 -147 73 l0 -308 l-48 0 l0 31 l-450 0 l0 -37 l-47 0 l0 304 q-63 -38 -151 -76 q-19 28 -32 38 q305 119 460 349 l42 -20 Z" /><glyph glyph-name="" unicode="&#x5c06;" d="M584 708 q-85 -73 -195 -123 q-11 14 -31 30 q194 85 282 217 l48 -15 q-19 -27 -56 -66 l245 0 l9 2 l30 -18 q-127 -262 -527 -353 q-11 26 -24 39 q138 29 254 88 q-44 62 -106 111 l36 21 q74 -59 109 -110 q129 77 190 177 l-264 0 ZM195 499 q-42 82 -140 173 l34 26 q104 -95 142 -169 l-36 -30 ZM246 832 l47 0 l0 -905 l-47 0 l0 378 q-103 -103 -170 -166 l-30 38 q82 72 200 187 l0 468 ZM470 249 q97 -92 141 -178 l-41 -25 q-41 84 -140 181 l40 22 ZM943 297 l-128 0 l0 -304 q0 -48 -35 -58 q-27 -8 -156 -8 q-2 16 -17 47 q104 -3 140 -1 q21 0 21 20 l0 304 l-419 0 l0 46 l419 0 l0 139 l47 0 l0 -139 l128 0 l0 -46 Z" /><glyph glyph-name="" unicode="&#x2f29;&#x5c0f;" d="M529 818 l0 -814 q0 -58 -43 -69 q-35 -9 -180 -9 q-7 25 -21 51 q109 -3 168 0 q26 0 26 26 l0 815 l50 0 ZM766 587 q159 -248 202 -441 l-50 -20 q-43 200 -198 443 l46 18 ZM271 572 q-67 -289 -188 -431 q-19 15 -44 26 q125 144 179 415 l53 -10 Z" /><glyph glyph-name="" unicode="&#x5c1d;" d="M824 795 q-60 -87 -119 -148 l-38 18 q60 65 109 150 l48 -20 ZM289 648 q-34 69 -100 143 l42 20 q69 -75 104 -141 l-46 -22 ZM144 448 l-48 0 l0 193 l379 0 l0 193 l50 0 l0 -193 l385 0 l0 -193 l-49 0 l0 149 l-717 0 l0 -149 ZM196 441 l0 46 l602 0 l0 -46 l-602 0 ZM437 265 q-115 -156 -220 -256 l548 37 q-70 84 -142 149 l40 23 q160 -140 233 -268 l-44 -26 q-20 35 -52 78 q-626 -43 -659 -55 q-7 28 -18 52 q24 5 71 54 q83 77 177 212 l-300 0 l0 47 l854 0 l0 -47 l-488 0 Z" /><glyph glyph-name="" unicode="&#x5c31;" d="M870 615 q-33 72 -100 144 l34 20 q74 -76 102 -141 l-36 -23 ZM514 659 l-455 0 l0 45 l230 0 q-17 51 -52 119 l44 11 q39 -69 59 -130 l174 0 l0 -45 ZM203 261 q-35 -140 -101 -231 q-13 11 -38 25 q62 80 96 214 l43 -8 ZM164 379 l259 0 l0 142 l-259 0 l0 -142 ZM319 337 l0 -351 q0 -36 -23 -45 q-22 -8 -101 -8 q-3 18 -16 40 q66 -2 81 0 q14 0 14 13 l0 351 l-154 0 l0 226 l349 0 l0 -226 l-150 0 ZM446 88 q-15 75 -71 175 l35 17 q56 -88 77 -174 l-41 -18 ZM702 526 q-34 -431 -226 -598 q-25 20 -37 26 q186 157 218 572 l-134 0 l0 45 l138 0 q7 106 7 260 l46 0 q-2 -172 -7 -260 l239 0 l0 -45 l-244 0 ZM862 -8 q30 0 37 5 q13 6 17 27 q4 18 6 107 q15 -15 38 -20 q-2 -89 -9 -114 q-9 -27 -28 -35 q-19 -8 -56 -8 l-65 0 q-37 0 -56 12 q-21 14 -21 82 l0 382 l44 0 l0 -391 q0 -36 10 -42 q10 -5 30 -5 l53 0 Z" /><glyph glyph-name="" unicode="&#x5c45;" d="M544 424 l0 129 l-345 0 l0 -65 q0 -41 -1 -64 l346 0 ZM199 732 l0 -135 l626 0 l0 135 l-626 0 ZM807 198 l-469 0 l0 -188 l469 0 l0 188 ZM591 380 l0 -138 l263 0 l0 -312 l-47 0 l0 36 l-469 0 l0 -38 l-47 0 l0 314 l253 0 l0 138 l-347 0 q-14 -296 -116 -453 q-11 13 -41 25 q111 172 111 536 l0 288 l722 0 l0 -223 l-282 0 l0 -129 l343 0 l0 -44 l-343 0 Z" /><glyph glyph-name="" unicode="&#x5c4a;" d="M198 736 l0 -154 l626 0 l0 154 l-626 0 ZM198 537 l0 -46 q0 -380 -117 -564 q-14 14 -41 25 q110 173 110 539 l0 290 l721 0 l0 -244 l-673 0 ZM834 11 l0 154 l-235 0 l0 -154 l235 0 ZM323 11 l229 0 l0 154 l-229 0 l0 -154 ZM323 355 l0 -147 l229 0 l0 147 l-229 0 ZM599 355 l0 -147 l235 0 l0 147 l-235 0 ZM882 399 l0 -472 l-48 0 l0 39 l-511 0 l0 -39 l-46 0 l0 472 l275 0 l0 120 l47 0 l0 -120 l283 0 Z" /><glyph glyph-name="" unicode="&#x5c55;" d="M196 738 l0 -124 l637 0 l0 124 l-637 0 ZM196 571 l0 -80 q0 -381 -117 -564 q-11 12 -41 25 q110 173 110 539 l0 291 l732 0 l0 -211 l-684 0 ZM447 280 l231 0 l0 127 l-231 0 l0 -127 ZM881 194 q-68 -55 -177 -114 q103 -83 250 -115 q-20 -20 -29 -41 q-284 70 -389 313 l-159 0 l0 -234 l243 58 q-2 -27 1 -42 q-296 -77 -315 -90 q-8 24 -23 43 q47 22 47 68 l0 197 l-124 0 l0 43 l195 0 l0 127 l-164 0 l0 43 l164 0 l0 99 l46 0 l0 -99 l231 0 l0 99 l46 0 l0 -99 l183 0 l0 -43 l-183 0 l0 -127 l221 0 l0 -43 l-364 0 q37 -76 94 -130 q103 58 169 113 l37 -26 Z" /><glyph glyph-name="" unicode="&#x5c81;" d="M869 562 l-445 0 l28 -9 q-31 -58 -76 -110 l418 0 l9 3 l33 -21 q-151 -391 -706 -498 q-18 33 -29 43 q243 43 401 137 q-76 89 -186 171 l39 25 q116 -87 189 -170 q156 105 225 266 l-432 0 q-92 -93 -194 -148 q-9 15 -31 37 q204 109 288 274 l-252 0 l0 225 l48 0 l0 -181 l280 0 l0 232 l48 0 l0 -232 l296 0 l0 181 l49 0 l0 -225 Z" /><glyph glyph-name="" unicode="&#x5dde;" d="M291 816 l0 -305 q0 -187 -31 -305 q-44 -164 -160 -277 q-9 15 -35 34 q178 174 178 547 l0 306 l48 0 ZM579 794 l0 -797 l-47 0 l0 797 l47 0 ZM882 819 l0 -878 l-47 0 l0 878 l47 0 ZM181 573 q-43 -176 -104 -263 l-40 20 q65 89 104 255 l40 -12 ZM382 570 q64 -140 79 -244 l-45 -17 q-13 108 -76 247 l42 14 ZM664 581 q88 -140 119 -243 l-43 -22 q-32 115 -116 247 l40 18 Z" /><glyph glyph-name="" unicode="&#x2f2f;&#x5de5;" d="M944 56 l0 -48 l-886 0 l0 48 l415 0 l0 610 l-365 0 l0 49 l790 0 l0 -49 l-374 0 l0 -610 l420 0 Z" /><glyph glyph-name="" unicode="&#x5e08;" d="M153 237 l-44 0 l0 481 l44 0 l0 -481 ZM265 833 l46 0 l0 -401 q0 -173 -28 -276 q-37 -137 -137 -229 q-17 24 -35 31 q94 87 128 216 q26 96 26 258 l0 401 ZM677 732 l0 -143 l219 0 l0 -452 q0 -39 -26 -49 q-21 -8 -111 -8 q-3 17 -17 43 q73 -2 93 0 q15 0 15 14 l0 407 l-173 0 l0 -616 l-46 0 l0 616 l-160 0 l0 -475 l-45 0 l0 520 l205 0 l0 143 l-246 0 l0 45 l557 0 l0 -45 l-265 0 Z" /><glyph glyph-name="" unicode="&#x5e45;" d="M389 193 q0 -34 -19 -44 q-15 -9 -73 -9 q-1 16 -16 43 q29 -1 58 -1 q10 1 10 12 l0 402 l-97 0 l0 -669 l-43 0 l0 669 l-91 0 l0 -464 l-40 0 l0 508 l131 0 l0 192 l43 0 l0 -192 l137 0 l0 -447 ZM481 294 l0 -125 l173 0 l0 125 l-173 0 ZM885 294 l-187 0 l0 -125 l187 0 l0 125 ZM885 4 l0 123 l-187 0 l0 -123 l187 0 ZM654 4 l0 123 l-173 0 l0 -123 l173 0 ZM436 336 l494 0 l0 -406 l-45 0 l0 32 l-404 0 l0 -35 l-45 0 l0 409 ZM842 608 l-316 0 l0 -140 l316 0 l0 140 ZM887 649 l0 -222 l-404 0 l0 222 l404 0 ZM949 776 l0 -43 l-523 0 l0 43 l523 0 Z" /><glyph glyph-name="" unicode="&#x5e73;" d="M944 291 l-422 0 l0 -364 l-48 0 l0 364 l-416 0 l0 48 l416 0 l0 376 l-365 0 l0 47 l780 0 l0 -47 l-367 0 l0 -376 l422 0 l0 -48 ZM227 657 q78 -139 104 -239 l-45 -17 q-27 106 -101 243 l42 13 ZM648 410 q68 107 122 253 l50 -17 q-81 -175 -131 -251 l-41 15 Z" /><glyph glyph-name="" unicode="&#x5e74;&#xf98e;" d="M525 213 l0 227 l-255 0 l0 -227 l255 0 ZM948 166 l-375 0 l0 -240 l-48 0 l0 240 l-472 0 l0 47 l169 0 l0 273 l303 0 l0 173 l-262 0 q-70 -121 -161 -207 q-20 17 -43 30 q155 133 236 354 l49 -12 q-20 -50 -54 -119 l616 0 l0 -46 l-333 0 l0 -173 l312 0 l0 -46 l-312 0 l0 -227 l375 0 l0 -47 Z" /><glyph glyph-name="" unicode="&#x5e76;" d="M337 633 q-29 80 -111 180 l44 18 q81 -97 112 -176 l-45 -22 ZM659 335 l0 241 l-313 0 l0 -241 l313 0 ZM944 289 l-236 0 l0 -362 l-49 0 l0 362 l-316 0 q-20 -248 -252 -367 q-12 20 -33 37 q214 108 236 330 l-236 0 l0 46 l239 0 l0 241 l-200 0 l0 47 l524 0 q58 102 100 211 l51 -17 q-52 -115 -100 -194 l239 0 l0 -47 l-203 0 l0 -241 l236 0 l0 -46 Z" /><glyph glyph-name="" unicode="&#x5e94;" d="M178 651 l0 -229 q0 -335 -94 -502 q-15 16 -40 28 q86 154 86 474 l0 275 l411 0 q-19 47 -64 127 l44 14 q46 -76 68 -127 l-40 -14 l387 0 l0 -46 l-758 0 ZM580 200 q-23 142 -84 342 l43 14 q67 -211 86 -342 l-45 -14 ZM378 148 q-27 125 -110 342 l41 18 q80 -197 114 -341 l-45 -19 ZM950 24 l0 -46 l-744 0 l0 46 l412 0 q147 243 216 540 l49 -21 q-79 -280 -216 -519 l283 0 Z" /><glyph glyph-name="" unicode="&#x5e97;" d="M803 237 l-465 0 l0 -213 l465 0 l0 213 ZM565 489 l336 0 l0 -46 l-336 0 l0 -160 l286 0 l0 -340 l-48 0 l0 37 l-465 0 l0 -40 l-47 0 l0 343 l226 0 l0 339 l48 0 l0 -133 ZM936 704 l0 -46 l-754 0 l0 -218 q0 -344 -104 -514 q-20 20 -41 28 q97 159 97 486 l0 264 l404 0 q-21 49 -64 110 l44 14 q51 -64 74 -124 l344 0 Z" /><glyph glyph-name="" unicode="&#x5f00;" d="M662 407 l0 310 l-308 0 l0 -259 q0 -34 -1 -51 l309 0 ZM944 361 l-233 0 l0 -435 l-49 0 l0 435 l-311 0 q-22 -293 -252 -438 q-16 21 -36 35 q217 137 239 403 l-244 0 l0 46 l246 0 q1 18 1 52 l0 258 l-208 0 l0 46 l814 0 l0 -46 l-200 0 l0 -310 l233 0 l0 -46 Z" /><glyph glyph-name="" unicode="&#x5f0f;" d="M858 662 q-53 65 -152 132 l33 27 q98 -64 153 -126 l-34 -33 ZM335 64 l230 53 l5 -43 q-313 -76 -488 -117 l-16 47 l222 49 l0 320 l-196 0 l0 47 l446 0 l0 -47 l-203 0 l0 -309 ZM636 590 q20 -278 82 -446 q63 -170 149 -170 q40 0 50 193 q16 -14 43 -24 q-8 -126 -27 -172 q-20 -47 -70 -47 q-113 0 -186 189 q-67 175 -89 477 l-529 0 l0 47 l526 0 q-5 83 -7 192 l50 0 q0 -90 5 -192 l309 0 l0 -47 l-306 0 Z" /><glyph glyph-name="" unicode="&#x5f3a;" d="M63 779 l300 0 l0 -269 l-230 0 q-5 -46 -23 -182 l243 0 q-1 -18 -2 -25 q-20 -306 -57 -346 q-21 -21 -57 -22 q-40 -3 -113 3 q-2 28 -13 44 q60 -5 110 -5 q24 0 34 11 q31 29 48 295 l-216 0 l0 1 l-30 0 q22 116 36 271 l224 0 l0 179 l-254 0 l0 45 ZM636 228 l0 169 l-164 0 l0 -169 l164 0 ZM683 397 l0 -169 l168 0 l0 169 l-168 0 ZM493 586 l331 0 l0 150 l-331 0 l0 -150 ZM915 -81 q-10 26 -36 73 q-302 -27 -490 -39 l-8 48 q87 5 255 17 l0 168 l-209 0 l0 254 l209 0 l0 103 l-188 0 l0 236 l422 0 l0 -236 l-187 0 l0 -103 l213 0 l0 -254 l-213 0 l0 -166 l170 13 q-37 59 -73 102 l39 19 q100 -118 136 -213 l-40 -22 Z" /><glyph glyph-name="" unicode="&#x5f71;" d="M899 792 q-104 -135 -263 -232 q-22 25 -37 34 q161 89 255 217 l45 -19 ZM936 524 q-114 -147 -303 -245 q-13 18 -34 34 q189 94 293 230 l44 -19 ZM503 759 l-337 0 l0 -73 l337 0 l0 73 ZM503 649 l-337 0 l0 -76 l337 0 l0 76 ZM550 535 l-430 0 l0 262 l430 0 l0 -262 ZM584 418 l-516 0 l0 42 l240 0 q-10 22 -29 55 l43 13 q22 -38 37 -68 l225 0 l0 -42 ZM210 131 q-43 -98 -110 -160 q-23 20 -36 28 q66 60 102 143 l44 -11 ZM170 215 l324 0 l0 103 l-324 0 l0 -103 ZM354 176 l0 -187 q0 -36 -25 -46 q-21 -8 -114 -8 q-3 19 -17 42 q48 -1 95 -1 q15 0 15 13 l0 187 l-184 0 l0 181 l416 0 l0 -181 l-186 0 ZM462 145 q68 -79 98 -139 l-38 -21 q-33 68 -96 141 l36 19 ZM957 232 q-123 -194 -359 -301 q-15 19 -33 36 q232 100 349 281 l43 -16 Z" /><glyph glyph-name="" unicode="&#x5f88;" d="M313 812 q-91 -136 -232 -231 q-12 22 -28 38 q142 94 214 211 l46 -18 ZM323 593 q-28 -53 -83 -127 l0 -539 l-47 0 l0 482 q-60 -70 -125 -123 q-19 29 -32 43 q152 114 243 281 l44 -17 ZM451 404 l366 0 l0 150 l-366 0 l0 -150 ZM451 742 l0 -145 l366 0 l0 145 l-366 0 ZM913 282 q-72 -61 -195 -133 q96 -125 239 -171 q-16 -15 -33 -42 q-262 97 -354 424 l-119 0 l0 -359 l199 51 q0 -24 2 -44 q-238 -67 -255 -80 q-3 9 -23 43 q30 15 30 61 l0 754 l460 0 l0 -426 l-249 0 q29 -100 79 -176 q116 68 185 130 l34 -32 Z" /><glyph glyph-name="" unicode="&#x5f97;" d="M830 760 l-371 0 l0 -99 l371 0 l0 99 ZM830 622 l-371 0 l0 -101 l371 0 l0 101 ZM878 481 l-466 0 l0 319 l466 0 l0 -319 ZM309 813 q-88 -133 -234 -232 q-7 16 -27 38 q145 96 215 210 l46 -16 ZM319 594 q-28 -51 -80 -121 l0 -546 l-47 0 l0 490 q-63 -73 -134 -130 q-7 18 -30 43 q157 116 247 279 l44 -15 ZM456 179 q88 -77 130 -144 l-37 -28 q-40 68 -128 150 l35 22 ZM951 209 l-158 0 l0 -222 q0 -43 -33 -54 q-26 -8 -150 -8 q-2 15 -17 45 q107 -3 132 0 q21 1 21 18 l0 221 l-424 0 l0 44 l424 0 l0 103 l-403 0 l0 43 l591 0 l0 -43 l-141 0 l0 -103 l158 0 l0 -44 Z" /><glyph glyph-name="" unicode="&#x5ff5;" d="M53 -5 q61 82 104 242 l42 -15 q-53 -176 -104 -249 l-42 22 ZM179 482 l571 0 l8 2 l32 -21 q-69 -120 -190 -226 q-15 12 -37 24 q84 69 156 177 l-540 0 l0 44 ZM556 527 q-49 54 -140 102 l28 29 q94 -48 141 -98 l-29 -33 ZM410 338 q121 -99 171 -190 l-39 -28 q-53 94 -169 194 l37 24 ZM661 -4 q40 0 52 21 q12 20 16 97 q13 -10 45 -19 q-6 -89 -26 -116 q-21 -28 -85 -28 l-256 0 q-77 0 -103 15 q-26 16 -26 65 l0 213 l48 0 l0 -213 q0 -22 14 -28 q15 -7 65 -7 l256 0 ZM798 254 q109 -140 148 -244 l-46 -21 q-40 116 -144 248 l42 17 ZM519 815 q162 -176 435 -265 q-17 -16 -34 -43 q-257 96 -430 274 q-151 -169 -415 -283 q-18 28 -32 40 q299 114 446 311 l43 -17 l-13 -17 Z" /><glyph glyph-name="" unicode="&#x6001;" d="M64 -7 q63 83 105 242 l43 -15 q-48 -169 -104 -250 l-44 23 ZM657 -5 q41 0 53 20 q11 20 16 98 q16 -13 45 -19 q-6 -89 -27 -116 q-21 -28 -85 -28 l-256 0 q-77 0 -102 15 q-26 16 -26 64 l0 210 l47 0 l0 -210 q0 -21 15 -27 q15 -7 66 -7 l254 0 ZM423 447 q107 -61 162 -125 l-40 -29 q-53 61 -159 127 l37 27 ZM450 293 q115 -96 172 -172 l-39 -26 q-58 77 -170 175 l37 23 ZM797 253 q95 -150 126 -262 l-47 -18 q-32 123 -123 266 l44 14 ZM551 640 q103 -253 393 -322 q-19 -17 -32 -45 q-301 85 -411 367 l-7 0 q-84 -279 -414 -367 q-13 27 -27 42 q310 76 390 325 l-380 0 l0 45 l393 0 q13 57 24 148 l50 0 q-9 -80 -25 -148 l436 0 l0 -45 l-390 0 Z" /><glyph glyph-name="" unicode="&#x606f;" d="M56 -6 q53 68 106 199 l40 -18 q-63 -146 -103 -203 l-43 22 ZM750 696 l-502 0 l0 -100 l502 0 l0 100 ZM750 556 l-502 0 l0 -101 l502 0 l0 101 ZM750 415 l-502 0 l0 -102 l502 0 l0 102 ZM798 272 l-596 0 l0 466 l234 0 q35 69 45 105 l52 -14 q-15 -34 -47 -91 l312 0 l0 -466 ZM459 264 q94 -80 145 -155 l-39 -25 q-46 72 -143 158 l37 22 ZM647 -10 q43 0 55 21 q12 21 15 101 q15 -12 46 -19 q-6 -92 -27 -119 q-21 -29 -86 -29 l-253 0 q-77 0 -102 15 q-26 15 -26 62 l0 178 l48 0 l0 -177 q0 -20 14 -26 q16 -7 65 -7 l251 0 ZM817 208 q84 -104 118 -193 l-45 -20 q-28 83 -115 194 l42 19 Z" /><glyph glyph-name="" unicode="&#x6089;" d="M468 516 q-143 -173 -389 -264 q-19 25 -34 39 q222 74 366 225 l-349 0 l0 45 l239 0 q-29 66 -83 129 l39 18 q64 -73 85 -128 l-39 -19 l172 0 l0 180 q-177 -15 -350 -23 q-2 23 -12 40 q487 22 696 73 l47 -35 q-121 -28 -334 -50 l0 -185 l148 0 l-28 14 q64 82 99 149 l46 -19 q-52 -82 -108 -144 l261 0 l0 -45 l-353 0 q142 -149 369 -214 q-15 -14 -34 -41 q-250 86 -391 255 l-9 0 l0 -227 l-47 0 l0 227 l-7 0 ZM407 286 q123 -55 188 -125 l-34 -33 q-63 70 -185 128 l31 30 ZM47 -7 q100 63 140 212 l43 -14 q-52 -164 -145 -225 l-38 27 ZM641 -18 q37 0 47 20 q11 20 14 98 q17 -13 45 -19 q-5 -88 -25 -116 q-20 -29 -77 -29 l-220 0 q-69 0 -92 15 q-23 15 -23 63 l0 202 l47 0 l0 -203 q0 -20 12 -25 q13 -6 57 -6 l215 0 ZM754 226 q142 -107 199 -216 l-42 -26 q-56 109 -195 218 l38 24 Z" /><glyph glyph-name="" unicode="&#x60c5;" d="M36 390 q35 103 47 254 l39 -6 q-8 -156 -46 -261 l-40 13 ZM157 832 l45 0 l0 -904 l-45 0 l0 904 ZM262 681 q39 -81 54 -140 l-38 -20 q-17 69 -52 146 l36 14 ZM820 128 l0 95 l-397 0 l0 -95 l397 0 ZM423 354 l0 -91 l397 0 l0 91 l-397 0 ZM866 -8 q0 -40 -29 -51 q-26 -9 -138 -7 q-3 19 -16 42 q90 -3 118 -1 q19 1 19 18 l0 95 l-397 0 l0 -159 l-46 0 l0 466 l489 0 l0 -403 ZM951 505 l0 -41 l-649 0 l0 41 l297 0 l0 86 l-245 0 l0 39 l245 0 l0 78 l-267 0 l0 40 l267 0 l0 84 l48 0 l0 -84 l276 0 l0 -40 l-276 0 l0 -78 l252 0 l0 -39 l-252 0 l0 -86 l304 0 Z" /><glyph glyph-name="" unicode="&#x610f;" d="M74 -23 q66 57 119 175 l39 -17 q-56 -125 -116 -181 l-42 23 ZM762 450 l-520 0 l0 -84 l520 0 l0 84 ZM762 328 l-520 0 l0 -84 l520 0 l0 84 ZM810 205 l-614 0 l0 283 l614 0 l0 -283 ZM446 203 q103 -58 156 -116 l-30 -30 q-49 55 -156 120 l30 26 ZM618 -22 q34 0 43 19 q10 18 13 93 q19 -13 44 -18 q-5 -85 -23 -110 q-19 -27 -73 -27 l-206 0 q-66 0 -88 13 q-22 14 -22 58 l0 143 l46 0 l0 -144 q0 -17 12 -22 q12 -5 54 -5 l200 0 ZM786 164 q96 -94 137 -170 l-40 -22 q-44 83 -136 173 l39 19 ZM930 588 l0 -42 l-854 0 l0 42 l248 0 q-13 48 -47 104 l44 12 q37 -56 51 -109 l-23 -7 l272 0 q34 57 60 118 l-561 0 l0 42 l381 0 q-25 49 -47 78 l45 13 q33 -40 57 -91 l324 0 l0 -42 l-195 0 l44 -12 q-55 -105 -56 -106 l257 0 Z" /><glyph glyph-name="" unicode="&#x6210;" d="M863 668 q-72 64 -189 121 l28 31 q124 -61 189 -118 l-28 -34 ZM880 499 q-63 -193 -180 -339 q66 -177 158 -177 q42 0 52 189 q20 -18 42 -25 q-8 -123 -27 -167 q-21 -46 -70 -46 q-115 0 -190 184 q-103 -112 -231 -185 q-15 22 -35 38 q146 77 247 198 q-56 170 -76 435 l-380 0 l0 -145 l261 0 l-1 -24 q-7 -310 -31 -340 q-18 -21 -54 -22 q-39 -3 -122 2 q-4 29 -15 45 q52 -5 118 -5 q25 0 32 10 q18 20 25 289 l-213 0 l0 -37 q0 -304 -106 -454 q-23 23 -39 31 q96 138 96 424 l0 273 l426 0 q-4 89 -6 180 l49 0 q0 -83 5 -180 l329 0 l0 -47 l-326 0 q19 -239 65 -390 q93 128 149 297 l48 -12 Z" /><glyph glyph-name="" unicode="&#x6211;" d="M868 606 q-54 79 -165 175 l38 25 q113 -98 167 -170 l-40 -30 ZM885 413 q-65 -125 -181 -246 q67 -195 160 -195 q42 0 50 187 q23 -18 42 -24 q-8 -121 -27 -166 q-21 -46 -69 -46 q-119 0 -194 207 q-107 -101 -227 -163 q-20 27 -35 37 q135 69 245 176 q-38 132 -58 305 l-254 0 l0 -188 l192 44 l4 -42 l-196 -48 l0 -254 q0 -51 -38 -63 q-35 -11 -160 -9 q-5 20 -19 49 q93 -4 145 -1 q24 1 24 24 l0 241 l-224 -54 l-17 48 q178 39 241 54 l0 199 l-228 0 l0 46 l228 0 l0 187 q-90 -19 -200 -36 q-5 19 -17 40 q275 47 398 95 l36 -39 q-60 -23 -169 -49 l0 -198 l250 0 q-14 133 -16 294 l50 0 q0 -154 14 -294 l306 0 l0 -46 l-301 0 q16 -146 49 -266 q94 101 152 212 l44 -18 Z" /><glyph glyph-name="" unicode="&#x6218;" d="M872 620 q-33 68 -109 151 l35 19 q74 -79 110 -146 l-36 -24 ZM442 333 l-309 0 l0 -287 l309 0 l0 287 ZM295 378 l193 0 l0 -428 l-46 0 l0 51 l-309 0 l0 -55 l-44 0 l0 432 l160 0 l0 452 l46 0 l0 -203 l218 0 l0 -45 l-218 0 l0 -204 ZM930 448 q-56 -163 -163 -299 q46 -165 111 -169 q34 0 48 163 q10 -9 37 -24 q-24 -195 -84 -193 q-90 3 -148 181 q-90 -102 -190 -156 q-14 19 -35 35 q113 56 211 172 q-31 117 -53 326 l-150 -23 l-7 44 l153 22 q-12 141 -18 302 l46 0 q4 -150 17 -295 l237 35 l7 -42 l-240 -36 q18 -176 44 -287 q92 120 140 265 l37 -21 Z" /><glyph glyph-name="" unicode="&#x6240;" d="M154 538 l0 -183 l230 0 l0 183 l-230 0 ZM153 310 q-8 -248 -76 -383 q-22 22 -40 30 q70 138 70 432 l0 340 q248 31 342 81 l32 -39 q-99 -50 -327 -78 l0 -110 l276 0 l0 -273 l-277 0 ZM948 447 l-131 0 l0 -519 l-47 0 l0 519 l-186 0 l0 -65 q0 -313 -129 -457 q-10 14 -38 32 q119 133 119 425 l0 345 q255 41 356 94 l36 -40 q-114 -53 -344 -89 l0 -199 l364 0 l0 -46 Z" /><glyph glyph-name="" unicode="&#x2f3f;&#x624b;" d="M946 267 l-421 0 l0 -259 q0 -55 -46 -67 q-36 -11 -200 -9 q-6 23 -21 48 q141 -3 188 -1 q30 1 30 29 l0 259 l-420 0 l0 47 l420 0 l0 189 l-355 0 l0 46 l355 0 l0 175 q-184 -18 -339 -25 q-3 20 -13 42 q503 28 681 89 l38 -39 q-120 -37 -318 -61 l0 -181 l367 0 l0 -46 l-367 0 l0 -189 l421 0 l0 -47 Z" /><glyph glyph-name="" unicode="&#x6253;" d="M422 358 l-160 -51 l0 -304 q0 -43 -31 -55 q-23 -9 -128 -9 q-2 13 -16 45 q87 -2 108 0 q20 0 20 19 l0 290 q-108 -35 -154 -48 l-17 48 q46 12 171 49 l0 236 l-162 0 l0 46 l162 0 l0 209 l47 0 l0 -209 l153 0 l0 -46 l-153 0 l0 -223 l154 48 l6 -45 ZM956 697 l-189 0 l0 -688 q0 -56 -42 -68 q-32 -9 -186 -9 q-7 25 -21 52 q107 -4 173 -1 q26 1 26 26 l0 688 l-303 0 l0 47 l542 0 l0 -47 Z" /><glyph glyph-name="" unicode="&#x6280;" d="M368 342 q-54 -16 -128 -41 l0 -308 q0 -44 -31 -57 q-26 -9 -128 -8 q-2 15 -16 44 q88 -2 108 0 q20 0 20 20 l0 294 l-133 -41 l-16 47 q63 17 149 43 l0 243 l-137 0 l0 46 l137 0 l0 209 l47 0 l0 -209 l118 0 l0 -46 l-118 0 l0 -229 l122 37 l6 -44 ZM479 407 q56 -153 166 -263 q127 114 184 263 l-350 0 ZM890 440 q-61 -192 -212 -328 q118 -102 275 -145 q-14 -12 -32 -41 q-160 48 -278 156 q-131 -104 -300 -156 q-6 16 -26 44 q164 44 291 145 q-114 117 -177 292 l-36 0 l0 46 l226 0 l0 168 l-247 0 l0 46 l247 0 l0 166 l48 0 l0 -166 l249 0 l0 -46 l-249 0 l0 -168 l181 0 l10 2 l30 -15 Z" /><glyph glyph-name="" unicode="&#x62a5;" d="M383 347 l-130 -42 l0 -310 q0 -47 -35 -60 q-28 -9 -147 -9 q-4 25 -17 46 q88 -3 128 0 q23 1 23 23 l0 296 q-71 -24 -150 -47 l-16 49 q59 16 166 48 l0 236 l-151 0 l0 47 l151 0 l0 208 l48 0 l0 -208 l123 0 l0 -47 l-123 0 l0 -222 l123 37 l7 -45 ZM569 417 q54 -144 155 -265 q94 124 134 265 l-289 0 ZM917 452 q-45 -188 -161 -335 q92 -99 199 -146 q-19 -16 -35 -41 q-104 52 -195 151 q-84 -97 -192 -155 q-9 12 -32 33 q110 59 193 157 q-109 130 -172 301 l-43 0 l0 -490 l-47 0 l0 872 l449 0 q0 -16 -1 -23 q-9 -189 -35 -215 q-20 -20 -63 -21 q-60 -2 -165 4 q-2 24 -14 42 q70 -6 160 -6 q33 0 43 7 q18 20 25 166 l-352 0 l0 -292 l397 0 l10 3 l31 -12 Z" /><glyph glyph-name="" unicode="&#x62cd;" d="M376 346 l-133 -43 l0 -311 q0 -44 -32 -57 q-27 -9 -131 -8 q-4 24 -16 45 q89 -2 111 0 q20 1 20 20 l0 296 l-140 -44 l-16 49 l156 45 l0 239 l-141 0 l0 47 l141 0 l0 209 l48 0 l0 -209 l124 0 l0 -47 l-124 0 l0 -225 l126 38 l7 -44 ZM851 31 l0 267 l-375 0 l0 -267 l375 0 ZM476 605 l0 -261 l375 0 l0 261 l-375 0 ZM900 651 l0 -716 l-49 0 l0 50 l-375 0 l0 -57 l-47 0 l0 723 l169 0 q29 85 49 180 l53 -8 q-41 -136 -55 -172 l255 0 Z" /><glyph glyph-name="" unicode="&#x62e5;" d="M228 303 l0 -311 q0 -42 -30 -55 q-24 -9 -119 -8 q-4 20 -16 45 q81 -2 100 0 q19 0 19 19 l0 294 q-68 -23 -133 -46 l-15 47 l148 49 l0 242 l-135 0 l0 45 l135 0 l0 208 l46 0 l0 -208 l122 0 l0 -45 l-122 0 l0 -226 l113 38 l8 -46 l-121 -42 ZM874 298 l0 186 l-193 0 l0 -186 l193 0 ZM635 298 l0 186 l-189 0 l0 -83 q0 -49 -3 -103 l192 0 ZM446 718 l0 -190 l189 0 l0 190 l-189 0 ZM874 718 l-193 0 l0 -190 l193 0 l0 190 ZM921 -4 q0 -46 -33 -58 q-24 -9 -136 -9 q-7 29 -17 47 q56 -1 118 -1 q21 1 21 21 l0 257 l-193 0 l0 -311 l-46 0 l0 311 l-196 0 q-22 -212 -115 -325 q-11 13 -36 31 q112 138 112 442 l0 361 l521 0 l0 -766 Z" /><glyph glyph-name="" unicode="&#x6350;" d="M839 757 l-338 0 l0 -160 l338 0 l0 160 ZM886 555 l-431 0 l0 245 l431 0 l0 -245 ZM391 350 l-141 -45 l0 -313 q0 -44 -31 -57 q-30 -9 -128 -8 q-2 13 -16 45 q82 -3 108 -1 q20 0 20 20 l0 300 q-102 -33 -146 -45 l-17 47 q48 12 163 47 l0 238 l-151 0 l0 46 l151 0 l0 209 l47 0 l0 -209 l138 0 l0 -46 l-138 0 l0 -225 l134 41 l7 -44 ZM868 172 l0 107 l-393 0 l0 -107 l393 0 ZM475 425 l0 -104 l393 0 l0 104 l-393 0 ZM916 -7 q0 -44 -31 -55 q-25 -9 -142 -9 q-4 21 -17 46 q84 -3 123 0 q19 0 19 18 l0 136 l-393 0 l0 -201 l-47 0 l0 540 l488 0 l0 -475 Z" /><glyph glyph-name="" unicode="&#x63a5;" d="M918 675 l-533 0 l0 43 l242 0 q-25 52 -56 99 l43 9 q40 -55 64 -108 l240 0 l0 -43 ZM541 498 q-23 61 -81 137 l36 16 q56 -68 83 -132 l-38 -21 ZM946 440 l-600 0 l0 44 l338 0 q57 77 97 167 l48 -12 q-67 -118 -94 -155 l211 0 l0 -44 ZM219 299 l0 -309 q0 -41 -28 -54 q-27 -9 -109 -8 q-3 20 -15 45 q71 -2 90 0 q16 0 16 17 l0 294 l-124 -43 l-15 47 q44 13 139 45 l0 246 l-126 0 l0 45 l126 0 l0 208 l46 0 l0 -208 l112 0 l0 -45 l-112 0 l0 -231 q32 11 98 35 l8 -46 l-106 -38 ZM549 274 q-25 -44 -72 -111 q83 -24 190 -67 q77 66 112 178 l-230 0 ZM829 274 q-34 -125 -114 -199 q131 -57 213 -114 l-36 -37 q-77 56 -217 119 q-117 -83 -331 -114 q-7 23 -23 43 q196 24 304 92 q-106 45 -216 77 q46 57 90 133 l-164 0 l0 44 l191 0 q34 61 57 112 l44 -10 q-18 -41 -52 -102 l382 0 l0 -44 l-128 0 Z" /><glyph glyph-name="" unicode="&#x63d0;" d="M825 758 l-370 0 l0 -96 l370 0 l0 96 ZM825 623 l-370 0 l0 -98 l370 0 l0 98 ZM871 484 l-460 0 l0 314 l460 0 l0 -314 ZM225 302 l0 -310 q0 -41 -30 -54 q-26 -10 -118 -9 q-6 26 -16 45 q81 -2 100 0 q19 0 19 19 l0 293 q-93 -33 -130 -45 l-16 47 l67 22 q47 16 79 26 l0 243 l-133 0 l0 45 l133 0 l0 207 l45 0 l0 -207 l117 0 l0 -45 l-117 0 l0 -228 l108 36 l7 -45 l-115 -40 ZM962 -13 q-14 -22 -16 -43 l-175 0 q-128 0 -197 34 q-84 40 -128 147 q-42 -125 -129 -200 q-15 17 -37 31 q129 100 156 341 l46 -5 q-9 -69 -20 -110 q43 -138 156 -175 l0 347 l-251 0 l0 43 l562 0 l0 -43 l-267 0 l0 -135 l220 0 l0 -42 l-220 0 l0 -181 q44 -9 110 -9 l190 0 Z" /><glyph glyph-name="" unicode="&#x6444;" d="M800 747 l-349 0 l0 -79 l349 0 l0 79 ZM451 424 l349 13 l0 75 l-349 0 l0 -88 ZM800 632 l-349 0 l0 -84 l349 0 l0 84 ZM407 747 l-85 0 l0 40 l617 0 l0 -40 l-95 0 l0 -308 l107 5 l-1 -37 l-106 -5 l0 -53 l-44 0 l0 50 l-455 -21 l-7 42 l69 2 l0 325 ZM219 337 l0 -345 q0 -42 -27 -53 q-21 -9 -106 -9 q-4 22 -16 45 l88 0 q16 1 16 17 l0 329 q-73 -26 -119 -41 l-15 47 l134 42 l0 237 l-120 0 l0 46 l120 0 l0 181 l45 0 l0 -181 l97 0 l0 -46 l-97 0 l0 -222 l89 30 l8 -43 l-97 -34 ZM552 3 q-28 30 -77 75 q-79 -96 -186 -149 q-8 16 -28 36 q98 44 181 140 q-63 54 -129 98 l30 27 q69 -48 125 -92 q48 68 73 136 l-234 0 l0 42 l253 0 l10 3 l27 -12 q-31 -108 -96 -197 q59 -51 82 -77 l-31 -30 ZM676 276 q33 -100 90 -172 q72 76 103 172 l-193 0 ZM922 308 q-35 -135 -129 -235 q69 -73 164 -108 q-21 -17 -32 -38 q-89 37 -162 117 q-85 -78 -193 -116 q-9 18 -26 35 q110 37 192 112 q-64 85 -100 201 l-29 0 l0 42 l281 0 l9 2 l25 -12 Z" /><glyph glyph-name="" unicode="&#x6548;" d="M291 685 q-28 64 -84 128 l37 20 q60 -67 87 -126 l-40 -22 ZM506 638 l-440 0 l0 45 l440 0 l0 -45 ZM452 417 q-33 73 -107 161 l36 20 q76 -85 110 -158 l-39 -23 ZM223 586 q-54 -128 -141 -226 q-18 18 -36 28 q84 89 135 210 l42 -12 ZM417 32 q-32 63 -109 160 q-90 -144 -225 -237 q-18 21 -35 33 q138 89 229 241 q-69 80 -130 140 l36 26 q56 -54 118 -123 q39 77 64 160 l45 -10 q-29 -97 -78 -187 q86 -101 124 -172 l-39 -31 ZM643 601 q-12 -37 -26 -72 q37 -182 104 -310 q81 143 118 382 l-196 0 ZM886 601 q-42 -270 -139 -428 q87 -144 210 -205 q-9 -7 -34 -38 q-118 64 -203 201 q-91 -126 -241 -206 q-9 15 -32 38 q159 77 247 212 q-63 117 -105 285 q-31 -68 -64 -115 q-19 22 -36 33 q110 153 163 456 l46 -7 q-14 -80 -42 -180 l292 0 l0 -46 l-62 0 Z" /><glyph glyph-name="" unicode="&#x6570;" d="M496 789 q-55 -91 -89 -133 l-33 16 q52 74 80 138 l42 -21 ZM168 655 q-17 62 -67 134 l37 14 q53 -72 67 -132 l-37 -16 ZM272 551 q-84 -113 -193 -171 q-9 18 -27 39 q125 57 206 181 l-202 0 l0 42 l216 0 l0 192 l46 0 l0 -192 l213 0 l0 -42 l-213 0 l0 -1 q142 -89 183 -121 l-28 -37 q-41 37 -155 117 l0 -153 l-46 0 l0 146 ZM245 273 q-27 -53 -54 -97 q81 -33 133 -61 q72 69 106 158 l-185 0 ZM424 6 q-43 31 -95 59 q-104 -87 -253 -126 q-9 22 -24 37 q142 35 238 110 q-92 46 -160 70 q42 65 68 117 l-121 0 l0 42 l142 0 q20 43 28 69 l45 -8 q-11 -27 -27 -61 l185 0 l9 3 l27 -12 q-37 -122 -123 -210 q60 -33 94 -56 l-33 -34 ZM634 588 q32 -199 97 -338 q62 132 93 338 l-190 0 ZM870 588 q-37 -238 -116 -388 q84 -158 210 -226 q-17 -13 -34 -38 q-119 70 -201 220 q-91 -145 -246 -230 q-15 23 -30 39 q163 82 252 236 q-59 124 -98 307 q-34 -92 -77 -159 q-16 14 -40 28 q103 143 148 443 l46 -7 q-15 -92 -38 -179 l294 0 l0 -46 l-70 0 Z" /><glyph glyph-name="" unicode="&#x6574;" d="M633 672 l-3 -4 q33 -97 106 -180 q69 75 102 184 l-205 0 ZM885 672 q-38 -129 -119 -216 q79 -77 187 -116 q-17 -17 -29 -39 q-104 41 -188 125 q-82 -74 -207 -122 q-12 18 -29 37 q126 41 207 117 q-63 72 -102 166 q-34 -52 -68 -86 q-9 10 -35 31 q100 97 146 264 l45 -10 q-19 -62 -40 -108 l295 0 l0 -43 l-63 0 ZM136 533 l133 0 l0 88 l-133 0 l0 -88 ZM313 621 l0 -88 l124 0 l0 88 l-124 0 ZM269 454 q-84 -98 -194 -145 q-9 16 -30 33 q133 51 212 154 l-163 0 l0 162 l175 0 l0 62 l-208 0 l0 40 l208 0 l0 73 l44 0 l0 -73 l199 0 l0 -40 l-199 0 l0 -62 l167 0 l0 -162 l-167 0 l0 -186 l-44 0 l0 144 ZM336 482 q95 -42 147 -89 l-24 -32 q-53 48 -145 94 l22 27 ZM523 -1 l429 0 l0 -44 l-900 0 l0 44 l173 0 l0 175 l47 0 l0 -175 l204 0 l0 237 l-354 0 l0 43 l764 0 l0 -43 l-363 0 l0 -95 l306 0 l0 -41 l-306 0 l0 -101 Z" /><glyph glyph-name="" unicode="&#x2f42;&#x6587;" d="M511 665 q-24 69 -81 157 l47 14 q61 -89 85 -154 l-51 -17 ZM260 604 q84 -216 241 -370 q150 149 233 370 l-474 0 ZM789 604 q-94 -247 -252 -404 q176 -159 421 -223 q-10 -9 -34 -44 q-244 67 -423 232 q-166 -147 -426 -236 q-9 20 -31 46 q257 79 421 224 q-165 170 -255 405 l-155 0 l0 47 l893 0 l0 -47 l-159 0 Z" /><glyph glyph-name="" unicode="&#x65ad;" d="M512 754 q-42 -107 -80 -179 l-32 14 q42 84 71 180 l41 -15 ZM237 579 q-9 84 -49 176 l35 11 q42 -87 51 -174 l-37 -13 ZM327 415 q-72 -157 -149 -233 q-6 14 -24 39 q99 94 164 261 l-149 0 l0 43 l158 0 l0 305 l43 0 l0 -305 l155 0 l0 -43 l-155 0 l0 -16 q66 -68 143 -171 l-31 -36 q-34 55 -112 154 l0 -297 l-43 0 l0 299 ZM502 35 l-407 0 l0 760 l44 0 l0 -716 l363 0 l0 -44 ZM954 448 l-116 0 l0 -523 l-46 0 l0 523 l-177 0 l0 -38 q0 -318 -91 -486 q-10 13 -36 30 q81 152 81 456 l0 327 q234 47 337 96 l40 -36 q-111 -50 -331 -92 l0 -211 l339 0 l0 -46 Z" /><glyph glyph-name="" unicode="&#x65b0;" d="M502 682 l-435 0 l0 43 l213 0 q-24 52 -52 98 l43 12 q44 -71 61 -110 l170 0 l0 -43 ZM184 503 q-9 75 -44 157 l40 9 q37 -77 46 -154 l-42 -12 ZM193 232 q-38 -115 -104 -194 q-21 17 -37 26 q62 68 99 178 l42 -10 ZM310 286 l0 -279 q0 -37 -23 -48 q-19 -8 -94 -8 q-5 20 -17 44 q37 -1 77 -1 q13 0 13 13 l0 279 l-209 0 l0 44 l209 0 l0 121 l-213 0 l0 43 l280 0 q39 95 60 177 l46 -12 q-39 -114 -60 -165 l139 0 l0 -43 l-208 0 l0 -121 l200 0 l0 -44 l-200 0 ZM399 244 q59 -90 86 -166 l-38 -19 q-23 69 -84 168 l36 17 ZM951 447 l-119 0 l0 -515 l-47 0 l0 515 l-184 0 l0 -48 q0 -314 -109 -464 q-12 17 -36 30 q100 137 100 434 l0 337 q218 35 316 74 l42 -36 q-126 -44 -313 -70 l0 -212 l350 0 l0 -45 Z" /><glyph glyph-name="" unicode="&#x2f45;&#x65b9;" d="M525 663 q-19 57 -70 154 l45 17 q52 -92 72 -150 l-47 -21 ZM414 605 q-8 -122 -17 -182 l426 0 q-1 -19 -2 -26 q-28 -381 -78 -434 q-24 -23 -74 -26 q-59 -4 -165 6 q-2 26 -17 46 q85 -8 169 -8 q31 0 46 11 q43 39 69 384 l-382 0 q-56 -329 -299 -451 q-12 21 -36 37 q178 85 249 280 q47 128 59 363 l-283 0 l0 47 l847 0 l0 -47 l-512 0 Z" /><glyph glyph-name="" unicode="&#x65d7;" d="M237 673 q-19 52 -78 142 l40 17 q47 -64 82 -139 l-44 -20 ZM372 462 q0 -19 -1 -26 q-14 -427 -46 -470 q-17 -22 -51 -25 q-37 -2 -84 1 q-2 25 -12 45 q35 -3 81 -3 q18 -1 27 12 q27 36 40 422 l-133 0 q-18 -347 -112 -492 q-14 17 -39 29 q106 154 114 663 l-108 0 l0 45 l338 0 l0 -45 l-186 0 q-2 -104 -4 -155 l176 -1 ZM494 673 q-43 -85 -96 -142 q-10 14 -36 30 q99 99 144 272 l44 -9 q-13 -54 -37 -108 l421 0 l0 -43 l-440 0 ZM618 93 q-55 -93 -164 -170 q-18 20 -36 31 q103 64 156 153 l44 -14 ZM758 106 q114 -91 164 -152 l-34 -30 q-56 71 -164 157 l34 25 ZM563 177 l227 0 l0 89 l-227 0 l0 -89 ZM563 508 l0 -80 l227 0 l0 80 l-227 0 ZM563 304 l227 0 l0 86 l-227 0 l0 -86 ZM944 177 l0 -43 l-537 0 l0 43 l112 0 l0 331 l-62 0 l0 43 l62 0 l0 70 l44 0 l0 -70 l227 0 l0 70 l44 0 l0 -70 l81 0 l0 -43 l-81 0 l0 -331 l110 0 Z" /><glyph glyph-name="" unicode="&#x2f46;&#x65e0;" d="M837 -4 q41 0 53 30 q11 29 15 136 q21 -14 47 -20 q-6 -118 -26 -154 q-21 -39 -86 -39 l-209 0 q-68 0 -91 19 q-24 18 -24 72 l0 375 l-37 0 q-73 -361 -399 -490 q-13 23 -33 39 q308 115 385 451 l-374 0 l0 47 l382 0 q18 98 22 254 l-341 0 l0 47 l765 0 l0 -47 l-377 0 q-6 -162 -22 -254 l457 0 l0 -47 l-380 0 l0 -376 q0 -26 13 -34 q14 -9 56 -9 l204 0 Z" /><glyph glyph-name="" unicode="&#x2f47;&#x65e5;" d="M769 50 l0 311 l-530 0 l0 -311 l530 0 ZM239 712 l0 -304 l530 0 l0 304 l-530 0 ZM818 760 l0 -816 l-49 0 l0 59 l-530 0 l0 -65 l-48 0 l0 822 l627 0 Z" /><glyph glyph-name="" unicode="&#x65f6;" d="M138 700 l0 -244 l201 0 l0 244 l-201 0 ZM339 158 l0 254 l-201 0 l0 -254 l201 0 ZM385 113 l-247 0 l0 -81 l-46 0 l0 713 l293 0 l0 -632 ZM954 576 l-132 0 l0 -564 q0 -57 -44 -69 q-33 -10 -191 -8 q-6 25 -20 49 q132 -3 179 -1 q28 1 28 29 l0 564 l-339 0 l0 48 l339 0 l0 203 l48 0 l0 -203 l132 0 l0 -48 ZM641 214 q-69 126 -158 253 l39 19 q111 -156 161 -247 l-42 -25 Z" /><glyph glyph-name="" unicode="&#x662f;" d="M774 747 l-555 0 l0 -100 l555 0 l0 100 ZM774 608 l-555 0 l0 -100 l555 0 l0 100 ZM822 467 l-650 0 l0 321 l650 0 l0 -321 ZM955 -5 q-12 -16 -19 -46 l-267 0 q-171 0 -261 36 q-104 42 -162 151 q-59 -133 -164 -211 q-18 23 -37 35 q158 107 201 342 l48 -7 q-11 -58 -26 -103 q59 -146 215 -180 l0 329 l-423 0 l0 44 l881 0 l0 -44 l-411 0 l0 -134 l345 0 l0 -44 l-345 0 l0 -160 q56 -8 140 -8 l285 0 Z" /><glyph glyph-name="" unicode="&#x665a;" d="M130 716 l0 -247 l156 0 l0 247 l-156 0 ZM286 167 l0 258 l-156 0 l0 -258 l156 0 ZM130 122 l0 -78 l-45 0 l0 717 l246 0 l0 -639 l-201 0 ZM616 322 q15 76 22 217 l-179 0 l0 -217 l157 0 ZM532 706 q-34 -62 -86 -125 l219 0 q52 55 100 125 l-233 0 ZM848 539 l-164 0 q-7 -141 -22 -217 l186 0 l0 217 ZM869 -13 q26 0 34 22 q8 22 10 104 q12 -10 42 -19 q-4 -92 -19 -120 q-16 -30 -63 -30 l-151 0 q-53 0 -71 14 q-18 15 -18 58 l0 191 q-72 -201 -292 -282 q-12 22 -30 38 q238 81 297 317 l-193 0 l0 267 q-18 -18 -26 -27 q-19 21 -35 30 q122 110 187 280 l48 -7 q-24 -56 -33 -74 l241 0 l10 2 l35 -15 q-91 -125 -118 -155 l170 0 l0 -301 l-215 0 l0 -264 q0 -19 8 -24 q9 -5 38 -5 l144 0 Z" /><glyph glyph-name="" unicode="&#x667a;" d="M457 364 q-63 54 -171 121 q-57 -106 -206 -171 q-13 19 -31 35 q178 72 214 200 l-207 0 l0 42 l215 0 q2 16 2 45 l0 67 l-105 0 q-27 -50 -67 -97 l-40 25 q74 77 115 203 l45 -10 q-14 -40 -31 -79 l287 0 l0 -42 l-158 0 l0 -67 q0 -13 -2 -45 l187 0 l0 -42 l-194 0 l-9 -30 q110 -60 187 -118 l-31 -37 ZM254 289 l0 -118 l495 0 l0 118 l-495 0 ZM749 9 l0 122 l-495 0 l0 -122 l495 0 ZM207 331 l591 0 l0 -401 l-49 0 l0 36 l-495 0 l0 -39 l-47 0 l0 404 ZM835 702 l-239 0 l0 -239 l239 0 l0 239 ZM883 746 l0 -327 l-333 0 l0 327 l333 0 Z" /><glyph glyph-name="" unicode="&#x66f2;" d="M850 40 l0 253 l-209 0 l0 -253 l209 0 ZM153 40 l197 0 l0 253 l-197 0 l0 -253 ZM153 585 l0 -246 l197 0 l0 246 l-197 0 ZM397 293 l0 -253 l197 0 l0 253 l-197 0 ZM397 585 l0 -246 l197 0 l0 246 l-197 0 ZM641 585 l0 -246 l209 0 l0 246 l-209 0 ZM897 632 l0 -701 l-47 0 l0 62 l-697 0 l0 -68 l-46 0 l0 707 l243 0 l0 190 l47 0 l0 -190 l197 0 l0 190 l47 0 l0 -190 l256 0 Z" /><glyph glyph-name="" unicode="&#x66f4;&#xf901;" d="M477 302 q3 38 3 77 l0 46 l-271 0 l0 -123 l268 0 ZM209 466 l271 0 l0 122 l-271 0 l0 -122 ZM529 588 l0 -122 l291 0 l0 122 l-291 0 ZM820 425 l-291 0 l0 -46 q0 -39 -3 -77 l294 0 l0 123 ZM520 260 q-20 -114 -100 -187 q158 -84 539 -100 q-16 -20 -21 -48 q-392 21 -556 118 q-108 -75 -300 -117 q-11 21 -29 42 q189 39 286 103 q-84 62 -134 157 l40 16 q51 -91 132 -145 q73 62 94 161 l-309 0 l0 371 l318 0 l0 99 l-411 0 l0 45 l861 0 l0 -45 l-401 0 l0 -99 l339 0 l0 -371 l-348 0 Z" /><glyph glyph-name="" unicode="&#x66fe;" d="M350 708 q-23 47 -80 111 l39 16 q58 -62 82 -107 l-41 -20 ZM252 290 l0 -114 l507 0 l0 114 l-507 0 ZM759 24 l0 113 l-507 0 l0 -113 l507 0 ZM204 331 l605 0 l0 -403 l-50 0 l0 55 l-507 0 l0 -59 l-48 0 l0 407 ZM280 638 q80 -72 115 -141 l-31 -23 q-35 69 -115 145 l31 19 ZM592 487 q59 61 114 148 l39 -20 q-55 -81 -120 -147 l-33 19 ZM818 662 l-297 0 l0 -216 l297 0 l0 216 ZM190 446 l285 0 l0 216 l-285 0 l0 -216 ZM869 703 l0 -299 l-728 0 l0 299 l446 0 q61 72 93 136 l48 -18 q-41 -65 -88 -118 l229 0 Z" /><glyph glyph-name="" unicode="&#x6709;" d="M766 470 l-452 0 l0 -126 l452 0 l0 126 ZM766 173 l0 128 l-452 0 l0 -128 l452 0 ZM390 652 q-31 -70 -73 -138 l496 0 l0 -515 q0 -50 -36 -60 q-29 -9 -172 -9 q-3 12 -17 48 q98 -4 155 -1 q23 0 23 23 l0 129 l-452 0 l0 -202 l-47 0 l0 515 q-81 -110 -187 -186 q-8 15 -30 37 q181 125 290 359 l-270 0 l0 46 l290 0 q25 58 47 134 l47 -11 q-22 -72 -44 -123 l525 0 l0 -46 l-545 0 Z" /><glyph glyph-name="" unicode="&#x670d;" d="M348 314 l0 197 l-184 0 l0 -72 q0 -59 -3 -125 l187 0 ZM164 749 l0 -192 l184 0 l0 192 l-184 0 ZM394 -8 q0 -44 -31 -57 q-26 -9 -130 -8 q-2 20 -15 45 q88 -2 110 0 q20 1 20 21 l0 275 l-190 0 q-15 -219 -76 -343 q-18 18 -40 24 q77 156 77 490 l0 355 l275 0 l0 -802 ZM626 411 q47 -151 128 -265 q84 117 123 265 l-251 0 ZM930 447 q-42 -196 -149 -337 q79 -97 179 -148 q-18 -15 -33 -37 q-93 51 -173 150 q-75 -86 -166 -139 q-10 17 -29 35 q91 48 168 140 q-91 126 -144 300 l-36 0 l0 -484 l-47 0 l0 864 l402 0 l0 -193 q0 -41 -31 -51 q-26 -8 -148 -8 q-3 15 -18 43 q109 -2 131 0 q20 0 20 16 l0 148 l-309 0 l0 -290 l346 0 l9 2 l28 -11 Z" /><glyph glyph-name="" unicode="&#x671f;" d="M192 217 l215 0 l0 122 l-215 0 l0 -122 ZM192 647 l0 -106 l215 0 l0 106 l-215 0 ZM192 380 l215 0 l0 119 l-215 0 l0 -119 ZM534 173 l-489 0 l0 44 l102 0 l0 430 l-88 0 l0 44 l88 0 l0 130 l45 0 l0 -130 l215 0 l0 130 l46 0 l0 -130 l77 0 l0 -44 l-77 0 l0 -430 l81 0 l0 -44 ZM238 131 q-53 -119 -147 -204 q-29 23 -40 29 q92 76 141 188 l46 -13 ZM371 141 q70 -82 102 -150 l-40 -24 q-30 69 -100 153 l38 21 ZM873 314 l0 190 l-239 0 l0 -84 q0 -50 -3 -106 l242 0 ZM634 735 l0 -186 l239 0 l0 186 l-239 0 ZM920 1 q0 -48 -33 -59 q-28 -10 -142 -10 q-3 22 -17 48 q100 -2 124 0 q21 1 21 22 l0 267 l-245 0 q-19 -225 -99 -348 q-18 20 -39 29 q98 149 98 470 l0 361 l332 0 l0 -780 Z" /><glyph glyph-name="" unicode="&#x672c;" d="M590 564 q130 -309 369 -431 q-16 -13 -36 -40 q-247 141 -380 471 l-19 0 l0 -392 l249 0 l0 -48 l-249 0 l0 -197 l-49 0 l0 197 l-247 0 l0 48 l247 0 l0 392 l-21 0 q-131 -318 -372 -473 q-15 22 -34 38 q225 130 357 435 l-335 0 l0 48 l405 0 l0 220 l49 0 l0 -220 l409 0 l0 -48 l-343 0 Z" /><glyph glyph-name="" unicode="&#x6765;" d="M565 340 q159 -225 396 -328 q-13 -11 -34 -40 q-238 116 -403 352 l0 -397 l-49 0 l0 397 q-155 -229 -398 -349 q-15 24 -34 40 q233 100 392 325 l-374 0 l0 47 l414 0 l0 271 l-366 0 l0 47 l366 0 l0 126 l49 0 l0 -126 l374 0 l0 -47 l-374 0 l0 -271 l417 0 l0 -47 l-376 0 ZM240 622 q77 -109 101 -195 l-45 -18 q-25 92 -97 197 l41 16 ZM659 419 q66 98 110 209 l49 -18 q-73 -143 -119 -205 l-40 14 Z" /><glyph glyph-name="" unicode="&#x676d;" d="M638 667 q-26 68 -78 156 l42 16 q62 -105 80 -154 l-44 -18 ZM942 602 l-542 0 l0 46 l542 0 l0 -46 ZM367 288 q-39 73 -105 171 l0 -529 l-46 0 l0 529 q-66 -218 -146 -328 q-5 12 -27 42 q110 148 166 394 l-151 0 l0 46 l158 0 l0 221 l46 0 l0 -221 l112 0 l0 -46 l-112 0 l0 -45 q66 -82 135 -193 l-30 -41 ZM869 -21 q19 0 29 7 q10 9 13 35 q3 24 5 133 q17 -15 39 -22 q0 -104 -7 -141 q-7 -31 -26 -43 q-18 -11 -50 -11 l-52 0 q-33 0 -52 15 q-20 13 -20 92 l0 400 l-216 0 l0 -140 q0 -259 -182 -384 q-13 25 -31 37 q165 114 165 348 l0 184 l312 0 l0 -454 q0 -45 8 -51 q9 -5 24 -5 l41 0 Z" /><glyph glyph-name="" unicode="&#x676f;" d="M368 331 q-27 47 -114 161 l0 -564 l-46 0 l0 532 q-65 -215 -144 -325 q-12 20 -30 41 q112 156 169 414 l-152 0 l0 46 l157 0 l0 196 l46 0 l0 -196 l133 0 l0 -46 l-133 0 l0 -37 q79 -87 149 -182 l-35 -40 ZM722 716 q-25 -72 -55 -132 l0 -653 l-48 0 l0 563 q-96 -162 -221 -264 q-12 17 -37 38 q204 155 310 448 l-280 0 l0 46 l536 0 l0 -46 l-205 0 ZM720 533 q137 -140 215 -261 l-39 -31 q-66 109 -211 268 l35 24 Z" /><glyph glyph-name="" unicode="&#x6781;" d="M348 335 q-25 53 -88 157 l0 -564 l-46 0 l0 544 q-64 -215 -144 -327 q-8 17 -29 43 q109 144 167 403 l-136 0 l0 46 l142 0 l0 196 l46 0 l0 -196 l122 0 l0 -46 l-122 0 l0 -38 q53 -72 120 -180 l-32 -38 ZM563 721 q-7 -132 -13 -202 q59 -226 175 -370 q96 121 138 291 l-185 0 q36 104 79 281 l-194 0 ZM920 473 q-48 -216 -165 -360 q90 -98 205 -143 q-21 -16 -34 -40 q-110 48 -202 146 q-87 -94 -204 -151 q-19 26 -34 38 q119 55 207 150 q-95 121 -154 297 q-44 -323 -197 -484 q-21 18 -41 30 q117 110 166 312 q38 158 48 453 l-125 0 l0 45 l427 0 q-48 -185 -78 -281 l142 0 l9 2 l30 -14 Z" /><glyph glyph-name="" unicode="&#x6784;" d="M263 536 q56 -76 119 -179 l-32 -39 q-28 59 -87 155 l0 -545 l-47 0 l0 547 q-66 -220 -145 -330 q-16 28 -30 43 q108 143 168 403 l-152 0 l0 46 l159 0 l0 196 l47 0 l0 -196 l127 0 l0 -46 l-127 0 l0 -55 ZM742 140 q-6 26 -24 76 q-257 -50 -283 -63 q-5 24 -14 45 q14 3 44 61 q67 134 103 281 l47 -13 q-52 -171 -127 -313 l217 40 q-31 80 -60 136 l36 12 q73 -147 99 -246 l-38 -16 ZM930 637 q-22 -621 -68 -678 q-20 -28 -65 -31 q-44 -3 -124 2 q-2 28 -15 48 q56 -5 124 -5 q27 -1 38 15 q42 47 62 632 l-378 0 q-39 -95 -95 -172 l-42 29 q103 124 158 356 l47 -10 q-19 -75 -49 -157 l407 0 l0 -29 Z" /><glyph glyph-name="" unicode="&#x6795;" d="M328 328 q-19 44 -84 153 l0 -553 l-46 0 l0 537 q-59 -212 -132 -320 q-11 24 -30 43 q104 146 155 403 l-138 0 l0 46 l145 0 l0 196 l46 0 l0 -196 l134 0 l0 -46 l-134 0 l0 -46 q32 -42 118 -180 l-34 -37 ZM659 588 q-23 -428 -317 -662 q-16 16 -42 30 q289 226 312 632 l-163 0 l0 -157 l-44 0 l0 201 l208 0 q1 16 1 47 l0 154 l47 0 l0 -154 q0 -31 -1 -47 l255 0 l0 -201 l-46 0 l0 157 l-210 0 ZM870 -16 q25 0 33 28 q7 27 10 128 q16 -13 43 -21 q-5 -109 -20 -143 q-16 -36 -63 -36 l-132 0 q-49 0 -66 16 q-17 16 -17 63 l0 434 l45 0 l0 -434 q0 -22 8 -28 q8 -7 34 -7 l125 0 Z" /><glyph glyph-name="" unicode="&#x679c;" d="M475 445 l0 127 l-262 0 l0 -127 l262 0 ZM213 614 l262 0 l0 126 l-262 0 l0 -126 ZM792 740 l-268 0 l0 -126 l268 0 l0 126 ZM792 572 l-268 0 l0 -127 l268 0 l0 127 ZM574 256 q151 -167 383 -248 q-23 -21 -34 -40 q-243 97 -399 281 l0 -321 l-49 0 l0 316 q-150 -184 -396 -280 q-10 17 -34 39 q233 80 382 253 l-359 0 l0 45 l407 0 l0 100 l-311 0 l0 383 l677 0 l0 -383 l-317 0 l0 -100 l408 0 l0 -45 l-358 0 Z" /><glyph glyph-name="" unicode="&#x67e5;" d="M83 6 l840 0 l0 -44 l-840 0 l0 44 ZM722 356 l-443 0 l0 -102 l443 0 l0 102 ZM722 216 l-443 0 l0 -103 l443 0 l0 103 ZM770 395 l0 -321 l-538 0 l0 321 l538 0 ZM583 652 q146 -162 373 -236 q-18 -17 -32 -40 q-246 90 -395 276 l-7 0 l0 -225 l-47 0 l0 225 l-7 0 q-145 -186 -391 -285 q-17 25 -32 39 q224 80 367 246 l-350 0 l0 44 l413 0 l0 136 l47 0 l0 -136 l418 0 l0 -44 l-357 0 Z" /><glyph glyph-name="" unicode="&#x6821;" d="M663 691 q-30 65 -85 125 l38 20 q61 -63 88 -123 l-41 -22 ZM942 636 l-544 0 l0 45 l544 0 l0 -45 ZM759 598 q122 -120 177 -213 l-37 -28 q-57 101 -176 217 l36 24 ZM584 576 q-66 -128 -173 -225 q-11 12 -34 27 q108 95 163 217 l44 -19 ZM254 520 q52 -77 115 -193 l-33 -38 q-15 39 -82 163 l0 -524 l-46 0 l0 526 q-62 -222 -140 -334 q-10 23 -30 43 q108 147 161 404 l-128 0 l0 45 l137 0 l0 220 l46 0 l0 -220 l119 0 l0 -45 l-119 0 l0 -47 ZM818 411 q-42 -150 -129 -261 q116 -125 265 -175 q-22 -19 -34 -42 q-146 55 -261 180 q-102 -114 -257 -187 q-16 23 -32 34 q161 76 258 189 q-89 110 -142 254 l41 13 q50 -132 131 -231 q78 100 112 237 l48 -11 Z" /><glyph glyph-name="" unicode="&#x683c;" d="M342 343 q-18 36 -86 147 l0 -562 l-47 0 l0 550 q-65 -223 -143 -332 q-14 27 -29 43 q108 145 164 402 l-144 0 l0 46 l152 0 l0 196 l47 0 l0 -196 l120 0 l0 -46 l-120 0 l0 -39 q42 -56 118 -170 l-32 -39 ZM491 240 l0 -218 l324 0 l0 218 l-324 0 ZM445 284 l417 0 l0 -356 l-47 0 l0 49 l-324 0 l0 -49 l-46 0 l0 356 ZM519 663 q49 -97 138 -175 q108 87 164 192 l-292 0 l-10 -17 ZM888 707 q-64 -142 -195 -248 q116 -87 267 -132 q-14 -16 -22 -41 q-158 51 -278 147 q-129 -97 -305 -157 q-12 28 -28 41 q168 53 297 146 q-84 78 -129 159 q-44 -69 -94 -120 q-11 15 -34 35 q119 116 184 296 l44 -12 q-26 -66 -42 -97 l296 0 l10 2 l29 -19 Z" /><glyph glyph-name="" unicode="&#x68a6;" d="M249 633 q-70 -122 -172 -193 q-10 17 -31 36 q108 61 185 200 l-171 0 l0 43 l189 0 l0 114 l45 0 l0 -114 l172 0 l0 -43 l-168 0 q88 -69 162 -137 l-30 -39 q-34 43 -136 134 l0 -232 l-45 0 l0 231 ZM788 358 l31 -22 q-161 -321 -708 -418 q-10 25 -27 44 q250 40 416 128 q-89 64 -193 112 l36 29 q118 -54 203 -116 q133 83 202 197 l-357 0 q-123 -89 -254 -142 q-13 19 -33 35 q244 95 354 226 l47 -19 q-18 -19 -59 -57 l331 0 l11 3 ZM746 676 q87 -141 213 -205 q-9 -6 -33 -36 q-118 72 -203 206 l0 -239 l-46 0 l0 232 q-76 -124 -179 -192 q-20 24 -33 36 q117 63 193 198 l-157 0 l0 43 l176 0 l0 114 l46 0 l0 -114 l220 0 l0 -43 l-197 0 Z" /><glyph glyph-name="" unicode="&#x68da;" d="M297 325 q-14 35 -70 148 l0 -545 l-45 0 l0 526 q-50 -204 -113 -309 q-18 31 -28 43 q90 143 135 403 l-122 0 l0 46 l128 0 l0 196 l45 0 l0 -196 l100 0 l0 -46 l-100 0 l0 -48 q51 -75 101 -179 l-31 -39 ZM556 320 l0 193 l-144 0 l0 -62 q0 -70 -4 -131 l148 0 ZM412 741 l0 -184 l144 0 l0 184 l-144 0 ZM599 -13 q0 -40 -29 -52 q-22 -9 -112 -9 q-5 20 -18 43 q81 -2 98 0 q18 0 18 18 l0 289 l-152 0 q-22 -222 -107 -349 q-10 17 -34 30 q107 159 107 494 l0 334 l229 0 l0 -798 ZM877 320 l0 193 l-159 0 l0 -193 l159 0 ZM718 741 l0 -184 l159 0 l0 184 l-159 0 ZM920 -11 q0 -41 -29 -54 q-21 -8 -120 -8 q-4 16 -17 42 q85 -2 103 0 q20 2 20 19 l0 288 l-161 0 q-8 -230 -74 -349 q-12 17 -33 31 q67 124 67 405 l0 422 l244 0 l0 -796 Z" /><glyph glyph-name="" unicode="&#x6a21;" d="M517 699 l-163 0 l0 43 l163 0 l0 91 l46 0 l0 -91 l175 0 l0 91 l47 0 l0 -91 l155 0 l0 -43 l-155 0 l0 -86 l-47 0 l0 86 l-175 0 l0 -86 l-46 0 l0 86 ZM320 307 q-16 42 -84 172 l0 -550 l-46 0 l0 519 q-55 -202 -120 -303 q-10 23 -29 43 q94 141 146 403 l-131 0 l0 46 l134 0 l0 196 l46 0 l0 -196 l112 0 l0 -46 l-112 0 l0 -44 q57 -84 118 -203 l-34 -37 ZM448 336 l390 0 l0 89 l-390 0 l0 -89 ZM448 464 l390 0 l0 88 l-390 0 l0 -88 ZM685 156 q75 -147 272 -189 q-16 -15 -31 -40 q-213 55 -288 229 l-7 0 q-63 -171 -295 -229 q-12 24 -26 38 q210 48 270 191 l-249 0 l0 43 l264 0 q12 43 18 97 l-210 0 l0 296 l482 0 l0 -296 l-225 0 q-6 -49 -17 -97 l293 0 l0 -43 l-251 0 Z" /><glyph glyph-name="" unicode="&#x6b21;" d="M453 607 q-50 -134 -103 -212 q-20 14 -46 27 q107 146 159 410 l50 -9 q-19 -90 -45 -169 l405 0 l10 3 l34 -18 q-34 -132 -104 -260 l-40 21 q55 102 84 207 l-404 0 ZM257 593 q-69 69 -189 136 l29 34 q120 -62 190 -130 l-30 -40 ZM300 337 q-110 -178 -206 -302 l-43 33 q101 121 212 299 l37 -30 ZM630 485 q0 -44 -2 -66 q74 -354 322 -444 q-19 -19 -32 -41 q-216 86 -306 375 q-56 -243 -338 -384 q-13 21 -34 36 q212 105 291 266 q50 104 50 259 l0 62 l49 0 l0 -63 Z" /><glyph glyph-name="" unicode="&#x6b27;" d="M618 618 q-40 -126 -93 -205 q-26 18 -43 24 q98 134 137 396 l47 -7 q-13 -83 -35 -162 l288 0 l9 2 l30 -11 q-29 -149 -66 -243 l-40 12 q28 72 53 194 l-287 0 ZM447 103 q-39 91 -108 205 q-78 -143 -166 -240 q-17 17 -39 28 q99 103 177 255 q-85 137 -168 242 l38 21 q85 -110 154 -217 q61 126 101 259 l44 -10 q-52 -161 -117 -291 q85 -132 127 -227 l-43 -25 ZM512 -32 l-429 0 l0 791 l426 0 l0 -45 l-379 0 l0 -701 l382 0 l0 -45 ZM733 486 q0 -57 -2 -88 q47 -287 222 -433 q-25 -22 -32 -37 q-149 128 -205 338 q-37 -205 -170 -344 q-12 16 -35 33 q177 182 177 531 l0 64 l45 0 l0 -64 Z" /><glyph glyph-name="" unicode="&#x6b4c;" d="M641 619 q-38 -122 -91 -200 q-21 16 -42 25 q94 129 135 390 l48 -8 q-12 -73 -36 -163 l250 0 l9 3 l32 -11 q-32 -166 -64 -243 l-41 12 q30 74 49 195 l-249 0 ZM150 224 l0 -125 l148 0 l0 125 l-148 0 ZM150 59 l0 -48 l-43 0 l0 253 l233 0 l0 -205 l-190 0 ZM467 340 l0 -357 q0 -38 -28 -47 q-21 -8 -121 -8 q-4 16 -16 40 q50 -1 104 -1 q16 1 16 15 l0 358 l-373 0 l0 44 l367 0 l0 349 l-357 0 l0 44 l486 0 l0 -44 l-84 0 l0 -349 l96 0 l0 -44 l-90 0 ZM301 622 l-142 0 l0 -120 l142 0 l0 120 ZM343 661 l0 -197 l-224 0 l0 197 l224 0 ZM756 486 q0 -53 -2 -82 q46 -297 218 -443 q-23 -16 -34 -38 q-146 131 -201 347 q-43 -210 -204 -349 q-12 17 -36 34 q213 180 213 531 l0 65 l46 0 l0 -65 Z" /><glyph glyph-name="" unicode="&#x2f50;&#x6bd4;" d="M457 97 q-1 -21 3 -48 q-302 -91 -326 -110 q-8 24 -25 43 q34 23 34 67 l0 775 l49 0 l0 -307 l261 0 l0 -47 l-261 0 l0 -450 l265 77 ZM817 -1 q41 0 53 47 q12 41 17 190 q19 -16 46 -24 q-6 -154 -25 -202 q-23 -56 -89 -56 l-167 0 q-63 0 -84 23 q-22 23 -22 92 l0 762 l48 0 l0 -388 q179 94 273 185 l43 -39 q-113 -93 -316 -195 l0 -328 q0 -42 12 -54 q11 -13 49 -13 l162 0 Z" /><glyph glyph-name="" unicode="&#x6bd5;" d="M635 382 q-63 0 -85 16 q-22 17 -22 67 l0 366 l48 0 l0 -201 q184 67 273 127 l39 -36 q-109 -65 -312 -133 l0 -124 q0 -23 11 -30 q12 -8 50 -8 l190 0 q34 0 44 25 q10 24 14 112 q19 -14 44 -19 q-5 -99 -23 -129 q-19 -33 -76 -33 l-195 0 ZM488 480 q-2 -27 1 -42 q-321 -71 -340 -82 q-9 24 -25 42 q36 22 36 68 l0 364 l49 0 l0 -151 l262 0 l0 -44 l-262 0 l0 -212 l279 57 ZM944 180 l-421 0 l0 -252 l-48 0 l0 252 l-418 0 l0 45 l418 0 l0 144 l48 0 l0 -144 l421 0 l0 -45 Z" /><glyph glyph-name="" unicode="&#x6c9f;" d="M282 663 q-65 57 -186 125 l28 33 q118 -63 186 -119 l-28 -39 ZM217 409 q-64 53 -171 104 l27 35 q109 -52 172 -100 l-28 -39 ZM78 -26 q91 130 190 326 l34 -33 q-91 -179 -184 -326 l-40 33 ZM719 138 q-7 33 -25 79 q-275 -51 -298 -65 q-10 38 -15 48 q16 2 45 62 q67 139 101 282 l49 -14 q-52 -173 -125 -313 l229 39 q-32 78 -62 139 l41 15 q75 -147 104 -252 l-44 -20 ZM907 678 q0 -23 -1 -30 q-14 -635 -55 -688 q-23 -30 -68 -33 q-55 -3 -141 3 q-4 31 -15 48 q74 -6 141 -6 q27 0 39 16 q38 46 50 644 l-411 0 q-62 -135 -127 -217 l-42 29 q123 144 193 389 l47 -11 q-22 -73 -51 -144 l441 0 Z" /><glyph glyph-name="" unicode="&#x6d41;" d="M895 374 q-20 32 -54 77 q-470 -32 -497 -43 q-5 21 -15 49 q42 10 59 27 q30 26 137 167 l-211 0 l0 45 l299 0 q-21 67 -50 123 l43 11 q37 -71 57 -134 l279 0 l0 -45 l-360 0 q-71 -96 -143 -181 l369 22 q-38 48 -92 106 l37 22 q117 -120 182 -220 l-40 -26 ZM258 651 q-59 65 -164 135 l30 32 q108 -68 163 -131 l-29 -36 ZM226 400 q-68 63 -179 113 l27 34 q113 -48 179 -106 l-27 -41 ZM301 267 q-96 -190 -185 -326 l-40 32 q89 129 190 325 l35 -31 ZM403 365 l45 0 l0 -110 q0 -221 -150 -327 q-17 21 -35 33 q140 94 140 295 l0 109 ZM584 362 l44 0 l0 -393 l-44 0 l0 393 ZM877 -16 q18 0 26 4 q9 7 12 28 q2 20 4 103 q17 -14 36 -18 q-2 -87 -8 -113 q-6 -25 -23 -35 q-15 -9 -43 -9 l-48 0 q-31 0 -47 13 q-17 12 -17 79 l0 329 l45 0 l0 -339 q0 -32 7 -38 q5 -4 20 -4 l36 0 Z" /><glyph glyph-name="" unicode="&#x6d77;" d="M211 392 q-59 51 -163 100 l26 34 q106 -47 164 -96 l-27 -38 ZM78 -29 q66 126 138 327 l37 -27 q-53 -155 -132 -327 l-43 27 ZM126 820 q112 -48 173 -99 l-28 -37 q-68 57 -173 102 l28 34 ZM431 667 q-50 -103 -112 -176 q-28 20 -44 27 q111 116 174 316 l47 -12 q-24 -69 -43 -110 l480 0 l0 -45 l-502 0 ZM583 499 q84 -61 124 -121 l-32 -22 q-39 61 -122 123 l30 20 ZM653 129 q-40 63 -126 135 l32 19 q86 -66 127 -132 l-33 -22 ZM808 114 q11 81 16 183 l-401 0 q-7 -63 -26 -183 l411 0 ZM452 509 q-6 -53 -22 -167 l396 0 q5 77 9 167 l-383 0 ZM869 297 q-5 -75 -14 -183 l72 0 l0 -44 l-78 0 q-13 -78 -34 -105 q-22 -26 -64 -29 q-42 -3 -128 4 q-4 28 -13 43 q67 -6 126 -6 q28 0 38 14 q15 17 27 79 l-460 0 q18 88 37 227 l-95 0 l0 45 l102 0 q13 98 26 211 l471 0 l-1 -27 q-4 -96 -9 -184 l83 0 l0 -45 l-86 0 Z" /><glyph glyph-name="" unicode="&#x6dd8;" d="M256 693 q-54 43 -154 92 l32 33 q94 -41 154 -88 l-32 -37 ZM194 429 q-55 40 -149 85 l30 33 q88 -37 149 -80 l-30 -38 ZM75 -19 q73 133 142 321 l38 -29 q-62 -173 -136 -323 l-44 31 ZM405 253 l0 -145 l125 0 l0 199 l-229 0 l0 41 l229 0 l0 117 l-88 0 q-25 -43 -65 -90 q-13 10 -40 22 q75 78 128 208 l42 -10 q-17 -43 -41 -89 l286 0 l0 -41 l-178 0 l0 -117 l229 0 l0 -41 l-229 0 l0 -199 l130 0 l0 145 l43 0 l0 -186 l-385 0 l0 186 l43 0 ZM914 649 q-10 -638 -50 -689 q-24 -30 -70 -33 q-43 -3 -148 3 q-4 31 -15 47 q79 -6 150 -6 q29 0 39 15 q38 43 47 648 l-475 0 q-60 -104 -119 -167 q-14 10 -41 27 q126 128 202 340 l46 -12 q-24 -64 -63 -143 l497 0 l0 -30 Z" /><glyph glyph-name="" unicode="&#x6f14;" d="M359 580 l-45 0 l0 148 l280 0 q-22 54 -48 94 l45 13 q37 -53 56 -107 l276 0 l0 -148 l-47 0 l0 105 l-517 0 l0 -105 ZM634 405 l0 -103 l204 0 l0 103 l-204 0 ZM838 262 l-204 0 l0 -105 l204 0 l0 105 ZM393 157 l195 0 l0 105 l-195 0 l0 -105 ZM393 302 l195 0 l0 103 l-195 0 l0 -103 ZM588 446 l0 89 l-206 0 l0 42 l464 0 l0 -42 l-212 0 l0 -89 l250 0 l0 -330 l-536 0 l0 330 l240 0 ZM257 693 q-56 41 -154 92 l30 33 q100 -48 153 -87 l-29 -38 ZM194 429 q-60 42 -149 85 l28 35 q86 -40 151 -81 l-30 -39 ZM75 -19 q75 129 153 321 l39 -29 q-77 -188 -149 -323 l-43 31 ZM543 72 q-90 -77 -235 -142 q-12 18 -36 37 q143 52 226 123 l45 -18 ZM718 94 q132 -64 216 -129 l-34 -33 q-83 65 -215 134 l33 28 Z" /><glyph glyph-name="" unicode="&#x706f;" d="M155 626 q-10 -157 -46 -252 l-39 18 q37 95 46 239 l39 -5 ZM281 519 q0 -157 -20 -255 q86 -81 161 -169 l-32 -39 q-44 57 -139 159 q-45 -175 -166 -290 q-17 24 -35 33 q185 178 185 561 l0 312 l46 0 l0 -312 ZM308 437 q49 99 81 206 l43 -18 q-53 -132 -91 -205 l-33 17 ZM954 698 l-186 0 l0 -689 q0 -56 -42 -68 q-31 -9 -187 -9 q-5 23 -20 52 q132 -5 173 -1 q27 1 27 26 l0 689 l-278 0 l0 47 l513 0 l0 -47 Z" /><glyph glyph-name="" unicode="&#x70b9;" d="M778 477 l-558 0 l0 -209 l558 0 l0 209 ZM826 222 l-652 0 l0 301 l293 0 l0 310 l48 0 l0 -118 l390 0 l0 -45 l-390 0 l0 -147 l311 0 l0 -301 ZM51 -53 q82 70 142 202 l44 -12 q-63 -137 -143 -211 l-43 21 ZM399 131 q24 -106 24 -186 l-48 -8 q0 89 -23 191 l47 3 ZM603 137 q57 -110 73 -187 l-46 -12 q-16 79 -71 189 l44 10 ZM805 154 q92 -107 134 -199 l-44 -19 q-41 93 -132 201 l42 17 Z" /><glyph glyph-name="" unicode="&#x7167;" d="M149 742 l0 -201 l181 0 l0 201 l-181 0 ZM330 272 l0 225 l-181 0 l0 -225 l181 0 ZM149 173 l-46 0 l0 614 l273 0 l0 -560 l-227 0 l0 -54 ZM50 -56 q78 81 136 206 l44 -14 q-65 -134 -135 -214 l-45 22 ZM396 128 q21 -112 23 -191 l-46 -7 q-2 87 -22 195 l45 3 ZM658 744 q-17 -100 -67 -158 q-55 -65 -163 -98 q-14 23 -30 36 q181 50 212 220 l-181 0 l0 44 l481 0 q0 -15 -1 -22 q-13 -201 -41 -229 q-18 -18 -52 -19 q-51 -2 -112 3 q-2 21 -13 42 q48 -5 108 -5 q24 0 31 8 q20 21 32 178 l-204 0 ZM835 418 l-331 0 l0 -179 l331 0 l0 179 ZM882 197 l-424 0 l0 263 l424 0 l0 -263 ZM610 138 q52 -114 66 -194 l-46 -12 q-19 95 -65 196 l45 10 ZM810 156 q92 -115 138 -211 l-45 -21 q-45 97 -136 213 l43 19 Z" /><glyph glyph-name="" unicode="&#x719f;" d="M516 713 l-456 0 l0 39 l224 0 q-15 35 -35 67 l41 13 q31 -46 42 -80 l184 0 l0 -39 ZM166 548 l259 0 l0 81 l-259 0 l0 -81 ZM123 513 l0 152 l346 0 l0 -152 l-346 0 ZM73 -51 q67 61 113 171 l43 -11 q-52 -119 -115 -178 l-41 18 ZM321 289 l0 -79 q0 -36 -27 -45 q-23 -7 -127 -7 q-2 12 -15 38 q87 -2 108 0 q16 1 16 15 l0 75 l-212 -14 l-4 41 l216 12 l0 62 q53 15 107 39 l-288 0 l0 38 l350 0 l10 3 l30 -22 q-63 -46 -164 -79 l0 -38 l186 12 l-1 -38 l-185 -13 ZM396 103 q22 -91 24 -160 l-48 -7 q-2 80 -21 164 l45 3 ZM604 111 q47 -93 62 -163 l-46 -10 q-18 74 -60 164 l44 9 ZM809 125 q79 -93 118 -173 l-45 -16 q-38 80 -115 174 l42 15 ZM858 680 q-2 -271 5 -357 q9 -127 44 -127 q19 0 21 139 q13 -12 35 -25 q-4 -94 -15 -124 q-12 -33 -45 -33 q-62 0 -79 122 q-12 83 -12 362 l-122 0 l0 -11 q0 -108 -19 -187 q74 -60 107 -102 l-28 -36 q-34 42 -92 92 q-50 -147 -192 -246 q-14 19 -33 30 q140 98 188 247 q-47 38 -108 78 l26 31 q51 -31 92 -64 q14 67 14 156 l0 12 l-119 0 l0 43 l119 0 l0 153 l45 0 l0 -153 l168 0 Z" /><glyph glyph-name="" unicode="&#x7231;" d="M853 780 q-251 -46 -725 -54 q-4 21 -12 40 q479 12 719 54 l18 -40 ZM137 434 l-43 0 l0 156 l177 0 q-16 56 -43 115 l39 13 q35 -73 50 -128 l180 0 q-17 62 -41 125 l39 10 q28 -67 45 -135 l116 0 q56 81 88 152 l45 -17 q-56 -94 -86 -135 l208 0 l0 -156 l-43 0 l0 113 l-731 0 l0 -113 ZM382 223 q68 -78 183 -134 q101 53 162 134 l-345 0 ZM794 249 q-58 -106 -182 -182 q135 -56 309 -78 q-15 -17 -27 -44 q-185 27 -329 96 q-127 -63 -288 -94 q-10 27 -21 41 q141 23 262 77 q-112 62 -180 148 q-92 -177 -259 -275 q-9 18 -30 39 q215 116 302 389 l-193 0 l0 44 l207 0 l11 50 q7 31 11 52 l47 -7 q-16 -77 -21 -95 l430 0 l0 -44 l-443 0 q-12 -37 -36 -99 l395 0 l9 2 l26 -20 Z" /><glyph glyph-name="" unicode="&#x2f5a;&#x7247;" d="M240 475 q0 -74 -4 -133 l492 0 l0 -416 l-50 0 l0 367 l-446 0 q-24 -229 -147 -366 q-18 25 -37 35 q143 163 143 512 l0 329 l49 0 l0 -235 l307 0 l0 264 l50 0 l0 -264 l306 0 l0 -48 l-663 0 l0 -45 Z" /><glyph glyph-name="" unicode="&#x7248;" d="M161 414 q0 -50 -1 -74 l209 0 l0 -413 l-45 0 l0 369 l-165 0 q-13 -241 -87 -370 l-36 28 q79 147 79 459 l0 402 l46 0 l0 -266 l130 0 l0 287 l45 0 l0 -287 l99 0 l0 -45 l-274 0 l0 -90 ZM613 487 q40 -200 123 -329 q96 136 133 329 l-256 0 ZM921 525 q-38 -244 -157 -407 q79 -105 191 -153 q-17 -16 -33 -39 q-109 51 -187 154 q-84 -99 -198 -154 q-19 30 -29 39 q115 51 198 156 q-89 139 -133 366 l-39 0 l0 -76 q0 -326 -96 -485 l-39 27 q88 149 88 458 l0 348 q277 27 415 64 l36 -40 q-151 -40 -404 -60 l0 -191 l350 0 l9 2 l28 -9 Z" /><glyph glyph-name="" unicode="&#x724c;" d="M616 397 q31 59 39 125 l-168 0 l0 -125 l129 0 ZM487 563 l172 0 q1 11 1 32 l0 91 l-173 0 l0 -123 ZM858 686 l-153 0 l0 -91 q0 -21 -1 -32 l154 0 l0 123 ZM858 522 l-157 0 q-8 -68 -34 -125 l191 0 l0 125 ZM644 355 q-59 -95 -180 -163 q-15 17 -36 31 q105 56 160 132 l-146 0 l0 373 l153 0 q27 64 35 105 l52 -9 q-16 -46 -40 -96 l263 0 l0 -373 l-261 0 ZM148 427 q0 -55 -1 -83 l193 0 l0 -415 l-44 0 l0 371 l-151 0 q-9 -235 -66 -374 q-14 10 -43 18 q68 165 68 483 l0 389 l44 0 l0 -268 l109 0 l0 284 l44 0 l0 -284 l88 0 l0 -44 l-241 0 l0 -77 ZM951 139 l-199 0 l0 -213 l-46 0 l0 213 l-321 0 l0 44 l321 0 l0 170 l46 0 l0 -170 l199 0 l0 -44 Z" /><glyph glyph-name="" unicode="&#x7269;" d="M414 342 l-136 -44 l0 -371 l-46 0 l0 356 l-175 -56 l-15 46 q108 31 190 57 l0 245 l-106 0 q-25 -107 -49 -162 q-21 14 -40 22 q53 113 76 340 l45 -8 q-11 -89 -23 -146 l97 0 l0 211 l46 0 l0 -211 l115 0 l0 -46 l-115 0 l0 -230 l129 40 l7 -43 ZM941 658 q-1 -22 -2 -28 q-31 -593 -89 -661 q-24 -28 -66 -31 q-43 -3 -114 3 q-2 29 -13 47 q50 -4 113 -4 q26 0 39 15 q52 57 83 613 l-74 0 q-94 -487 -334 -672 q-18 18 -42 30 q239 174 332 642 l-103 0 q-87 -321 -257 -464 q-17 18 -40 28 q168 131 253 436 l-107 0 q-54 -121 -120 -197 q-11 12 -39 29 q122 129 183 388 l46 -8 q-22 -90 -51 -166 l402 0 Z" /><glyph glyph-name="" unicode="&#x7279;" d="M381 318 l-114 -38 l0 -353 l-47 0 l0 336 l-156 -52 l-12 49 q20 5 168 51 l0 263 l-87 0 q-19 -109 -45 -182 q-13 11 -39 23 q43 112 63 342 l44 -8 q-4 -46 -16 -128 l80 0 l0 211 l47 0 l0 -211 l105 0 l0 -47 l-105 0 l0 -247 l110 35 l4 -44 ZM496 241 q93 -86 131 -165 l-39 -24 q-35 77 -129 167 l37 22 ZM820 471 l0 -138 l127 0 l0 -45 l-127 0 l0 -294 q0 -47 -35 -60 q-31 -8 -154 -8 q-4 26 -16 49 q110 -3 139 0 q20 1 20 19 l0 294 l-377 0 l0 45 l377 0 l0 138 l-390 0 l0 45 l263 0 l0 152 l-206 0 l0 45 l206 0 l0 121 l47 0 l0 -121 l209 0 l0 -45 l-209 0 l0 -152 l256 0 l0 -45 l-130 0 Z" /><glyph glyph-name="" unicode="&#x72ec;" d="M353 797 q-39 -68 -114 -152 q65 -131 65 -349 q0 -272 -48 -336 q-20 -25 -54 -29 q-47 -6 -110 -3 q-2 27 -15 48 q61 -5 111 -1 q21 3 33 18 q37 48 37 304 q0 50 -2 74 q-79 -128 -179 -205 q-18 28 -34 38 q128 82 207 241 q-14 99 -45 163 q-57 -58 -122 -108 q-13 13 -33 29 q65 48 134 122 q-42 74 -116 141 l34 27 q65 -57 114 -133 q59 68 95 133 l42 -22 ZM619 322 l0 263 l-182 0 l0 -263 l182 0 ZM667 585 l0 -263 l179 0 l0 263 l-179 0 ZM908 -67 q-10 30 -35 89 q-129 -16 -524 -60 l-11 49 q66 6 281 30 l0 237 l-229 0 l0 351 l229 0 l0 202 l48 0 l0 -202 l227 0 l0 -351 l-227 0 l0 -232 l187 20 q-40 87 -72 147 l42 14 q89 -158 130 -275 l-46 -19 Z" /><glyph glyph-name="" unicode="&#x732e;" d="M886 592 q-28 78 -101 167 l40 17 q72 -88 101 -164 l-40 -20 ZM319 149 l0 -177 l-42 0 l0 177 l-134 0 l0 40 l134 0 l0 102 l-121 0 l0 40 l156 0 q38 79 65 166 l39 -13 q-38 -97 -65 -153 l94 0 l0 -40 l-126 0 l0 -102 l140 0 l0 -40 l-140 0 ZM209 492 q49 -69 67 -135 l-34 -14 q-13 57 -64 139 l31 10 ZM521 -7 q0 -37 -24 -46 q-21 -9 -101 -9 q-3 17 -15 41 l82 0 q14 1 14 15 l0 520 l-357 0 l0 -585 l-43 0 l0 628 l198 0 l0 115 l-218 0 l0 44 l218 0 l0 117 l46 0 l0 -117 l217 0 l0 -44 l-217 0 l0 -115 l200 0 l0 -564 ZM758 505 q44 -401 189 -536 q-20 -16 -35 -38 q-120 122 -174 417 q-31 -259 -163 -425 q-14 17 -37 32 q155 188 166 550 l-154 0 l0 46 l155 0 l0 282 l47 0 l0 -282 l194 0 l0 -46 l-188 0 Z" /><glyph glyph-name="" unicode="&#x7406;&#xf9e4;" d="M357 140 q-163 -55 -301 -103 l-13 49 l142 45 l0 293 l-122 0 l0 45 l122 0 l0 244 l-132 0 l0 46 l299 0 l0 -46 l-121 0 l0 -244 l109 0 l0 -45 l-109 0 l0 -277 q78 25 118 39 l8 -46 ZM454 393 l182 0 l0 154 l-182 0 l0 -154 ZM454 590 l182 0 l0 151 l-182 0 l0 -151 ZM865 741 l-186 0 l0 -151 l186 0 l0 151 ZM865 547 l-186 0 l0 -154 l186 0 l0 154 ZM961 6 l0 -45 l-649 0 l0 45 l321 0 l0 161 l-240 0 l0 45 l240 0 l0 137 l-224 0 l0 435 l502 0 l0 -435 l-230 0 l0 -137 l247 0 l0 -45 l-247 0 l0 -161 l280 0 Z" /><glyph glyph-name="" unicode="&#x74f7;" d="M468 701 q-48 -66 -108 -115 q-16 20 -34 29 q111 85 166 219 l47 -7 q-19 -44 -43 -85 l376 0 l8 3 l34 -12 q-66 -116 -87 -144 l-40 14 q38 58 59 98 l-191 0 q-5 -23 -14 -55 q63 -157 305 -185 q-18 -15 -28 -40 q-219 37 -298 178 q-70 -137 -294 -184 q-11 22 -26 37 q147 29 220 92 q65 56 87 157 l-139 0 ZM297 651 q-69 56 -196 104 l24 34 q126 -41 197 -99 l-25 -39 ZM336 528 q-191 -60 -269 -87 l-14 45 q87 25 276 87 l7 -45 ZM398 187 q121 -60 180 -112 l-27 -32 q-65 59 -180 116 l27 28 ZM852 -14 q29 0 40 28 q9 23 11 88 q16 -15 40 -22 q-5 -74 -20 -99 q-19 -33 -72 -33 l-103 0 q-47 0 -65 14 q-20 15 -19 54 l12 202 l-363 0 q-45 -138 -78 -229 l276 23 q-4 -22 -4 -40 q-333 -31 -354 -41 q-5 17 -23 50 q47 9 60 31 q15 25 115 340 l-219 0 l0 43 l830 0 l0 -43 l-560 0 q-16 -52 -30 -94 l399 0 l-13 -237 q-1 -21 8 -28 q8 -7 32 -7 l100 0 Z" /><glyph glyph-name="" unicode="&#x2f63;&#x751f;" d="M943 8 l0 -47 l-883 0 l0 47 l417 0 l0 285 l-313 0 l0 47 l313 0 l0 245 l-253 0 q-51 -106 -112 -175 q-15 12 -43 28 q121 131 188 375 l49 -10 q-24 -84 -61 -172 l232 0 l0 202 l49 0 l0 -202 l372 0 l0 -46 l-372 0 l0 -245 l337 0 l0 -47 l-337 0 l0 -285 l417 0 Z" /><glyph glyph-name="" unicode="&#x2f64;&#x7528;" d="M829 287 l0 193 l-303 0 l0 -193 l303 0 ZM478 287 l0 193 l-269 0 l0 -82 q0 -60 -4 -111 l273 0 ZM209 714 l0 -188 l269 0 l0 188 l-269 0 ZM829 714 l-303 0 l0 -188 l303 0 l0 188 ZM877 5 q0 -52 -41 -65 q-32 -10 -183 -8 q-1 18 -17 47 q110 -3 167 0 q26 0 26 26 l0 236 l-303 0 l0 -306 l-48 0 l0 306 l-277 0 q-26 -207 -125 -320 q-13 21 -37 34 q122 137 122 443 l0 362 l716 0 l0 -755 Z" /><glyph glyph-name="" unicode="&#x7535;" d="M466 250 l0 174 l-280 0 l0 -174 l280 0 ZM186 640 l0 -170 l280 0 l0 170 l-280 0 ZM515 640 l0 -170 l294 0 l0 170 l-294 0 ZM809 250 l0 174 l-294 0 l0 -174 l294 0 ZM831 -4 q42 0 56 35 q13 32 18 137 q25 -16 49 -22 q-9 -117 -30 -154 q-24 -44 -94 -44 l-239 0 q-73 0 -99 24 q-26 24 -26 95 l0 136 l-280 0 l0 -63 l-50 0 l0 547 l330 0 l0 147 l49 0 l0 -147 l342 0 l0 -484 l-342 0 l0 -138 q0 -42 14 -55 q15 -14 61 -14 l241 0 Z" /><glyph glyph-name="" unicode="&#x7684;" d="M380 629 l-239 0 l0 -239 l239 0 l0 239 ZM380 78 l0 268 l-239 0 l0 -268 l239 0 ZM306 824 q-35 -103 -54 -151 l174 0 l0 -640 l-285 0 l0 -82 l-45 0 l0 722 l111 0 q32 89 48 163 l51 -12 ZM917 645 q-22 -606 -71 -663 q-24 -28 -70 -31 q-54 -4 -144 3 q-4 30 -16 47 q79 -6 147 -6 q30 0 42 15 q45 49 65 618 l-280 0 q-46 -112 -98 -186 q-7 6 -41 26 q100 130 153 372 l47 -11 q-19 -84 -45 -156 l311 0 l0 -28 ZM722 199 q-55 104 -162 233 l39 22 q117 -143 163 -229 l-40 -26 Z" /><glyph glyph-name="" unicode="&#x76d8;" d="M429 691 q92 -50 139 -100 l-27 -30 q-48 53 -139 103 l27 27 ZM273 580 q0 -24 -1 -37 l483 0 l0 171 l-482 0 l0 -134 ZM267 499 q-24 -155 -150 -238 q-17 24 -34 35 q114 74 137 203 l-164 0 l0 44 l169 0 q1 13 1 37 l0 176 l215 0 q25 59 35 87 l50 -13 l-36 -74 l313 0 l0 -213 l149 0 l0 -44 l-149 0 l0 -149 q0 -39 -29 -51 q-23 -8 -129 -8 q-2 12 -16 43 q52 -1 109 -1 q17 1 17 16 l0 150 l-488 0 ZM426 471 q99 -55 155 -111 l-28 -31 q-57 61 -155 114 l28 28 ZM210 0 l161 0 l0 215 l-161 0 l0 -215 ZM417 215 l0 -215 l161 0 l0 215 l-161 0 ZM624 215 l0 -215 l163 0 l0 215 l-163 0 ZM953 0 l0 -44 l-905 0 l0 44 l116 0 l0 257 l670 0 l0 -257 l119 0 Z" /><glyph glyph-name="" unicode="&#x76db;" d="M681 832 q67 -40 113 -88 l-38 -25 q-43 50 -109 92 l34 21 ZM192 531 q-14 -186 -102 -290 q-15 19 -37 31 q94 115 94 322 l0 125 l374 0 q-11 60 -14 114 l49 0 q3 -51 13 -114 l356 0 l0 -44 l-346 0 q28 -119 86 -213 q93 82 146 179 l45 -15 q-63 -109 -166 -200 q81 -110 164 -108 q21 1 31 29 q9 27 14 99 q22 -18 40 -22 q-7 -87 -25 -120 q-19 -32 -62 -32 q-103 0 -197 123 q-74 -58 -161 -104 q-20 22 -35 35 q83 39 170 106 q-66 102 -99 243 l-336 0 l0 -103 l253 0 q0 -14 -1 -21 q-9 -181 -32 -206 q-19 -18 -50 -18 q-32 -3 -106 2 q-2 21 -12 40 q55 -5 100 -5 q23 0 29 8 q17 18 25 159 l-208 0 ZM224 -7 l154 0 l0 210 l-154 0 l0 -210 ZM423 203 l0 -210 l155 0 l0 210 l-155 0 ZM623 203 l0 -210 l157 0 l0 210 l-157 0 ZM946 -7 l0 -45 l-892 0 l0 45 l125 0 l0 252 l648 0 l0 -252 l119 0 Z" /><glyph glyph-name="" unicode="&#x76f8;" d="M277 615 l153 0 l0 -47 l-153 0 l0 -107 q96 -99 152 -170 l-33 -40 q-33 52 -119 153 l0 -475 l-47 0 l0 529 q-73 -221 -165 -336 q-10 20 -29 41 q124 148 188 405 l-166 0 l0 47 l172 0 l0 218 l47 0 l0 -218 ZM869 41 l0 201 l-344 0 l0 -201 l344 0 ZM525 725 l0 -193 l344 0 l0 193 l-344 0 ZM525 287 l344 0 l0 200 l-344 0 l0 -200 ZM917 771 l0 -836 l-48 0 l0 61 l-344 0 l0 -62 l-47 0 l0 837 l439 0 Z" /><glyph glyph-name="" unicode="&#x770b;" d="M789 346 l-478 0 l0 -84 l478 0 l0 84 ZM789 9 l0 90 l-478 0 l0 -90 l478 0 ZM311 138 l478 0 l0 86 l-478 0 l0 -86 ZM369 474 q-37 -63 -54 -86 l521 0 l0 -463 l-47 0 l0 43 l-478 0 l0 -43 l-47 0 l0 397 q-85 -100 -192 -163 q-12 18 -30 36 q163 96 272 279 l-251 0 l0 42 l274 0 q23 44 44 93 l-243 0 l0 42 l258 0 q16 43 28 87 q-147 -7 -291 -9 q-4 23 -11 38 q503 8 708 55 l33 -35 q-136 -31 -386 -46 q-15 -52 -29 -90 l430 0 l0 -42 l-446 0 q-19 -49 -41 -93 l546 0 l0 -42 l-568 0 Z" /><glyph glyph-name="" unicode="&#x77e5;" d="M318 466 q0 -27 -1 -41 l202 0 l0 -46 l-204 0 q-6 -58 -12 -84 q93 -93 205 -223 l-33 -41 q-66 87 -183 215 q-53 -202 -217 -317 q-12 21 -32 36 q201 141 224 414 l-217 0 l0 46 l219 0 q1 15 1 42 l0 182 l-99 0 q-37 -101 -87 -171 l-40 28 q87 114 131 328 l47 -9 q-13 -60 -35 -130 l300 0 l0 -46 l-169 0 l0 -183 ZM852 85 l0 615 l-251 0 l0 -615 l251 0 ZM900 746 l0 -781 l-48 0 l0 74 l-251 0 l0 -83 l-47 0 l0 790 l346 0 Z" /><glyph glyph-name="" unicode="&#x77ed;" d="M945 742 l-502 0 l0 46 l502 0 l0 -46 ZM852 572 l-329 0 l0 -210 l329 0 l0 210 ZM899 317 l-421 0 l0 299 l421 0 l0 -299 ZM586 34 q-20 100 -77 217 l41 11 q58 -119 80 -215 l-44 -13 ZM375 52 q-55 92 -128 189 q-43 -180 -169 -292 q-9 16 -33 34 q161 142 180 404 l-174 0 l0 45 l176 0 q1 15 1 44 l0 173 l-71 0 q-28 -102 -68 -168 q-23 17 -39 26 q67 105 99 325 l46 -8 q-10 -63 -26 -130 l236 0 l0 -45 l-132 0 l0 -174 q0 -28 -1 -43 l149 0 l0 -45 l-151 0 q-3 -42 -11 -93 q78 -96 149 -204 l-33 -38 ZM952 9 l0 -45 l-552 0 l0 45 l318 0 q61 119 102 260 l51 -13 q-66 -168 -106 -247 l187 0 Z" /><glyph glyph-name="" unicode="&#x7840;" d="M320 425 l-153 0 l0 -325 l153 0 l0 325 ZM56 774 l333 0 l0 -45 l-153 0 q-30 -154 -69 -260 l196 0 l0 -413 l-196 0 l0 -85 l-43 0 l0 395 q-26 -52 -60 -100 q-9 25 -28 44 q102 137 153 419 l-133 0 l0 45 ZM922 346 l0 -405 l-47 0 l0 53 l-448 0 l0 351 l49 0 l0 -305 l175 0 l0 391 l-200 0 l0 310 l45 0 l0 -265 l155 0 l0 350 l48 0 l0 -350 l147 0 l0 265 l47 0 l0 -310 l-194 0 l0 -391 l176 0 l0 306 l47 0 Z" /><glyph glyph-name="" unicode="&#x788d;" d="M841 760 l-322 0 l0 -98 l322 0 l0 98 ZM841 623 l-322 0 l0 -99 l322 0 l0 99 ZM887 483 l-414 0 l0 317 l414 0 l0 -317 ZM173 425 l0 -324 l155 0 l0 324 l-155 0 ZM57 774 l344 0 l0 -46 l-158 0 q-29 -149 -70 -258 l200 0 l0 -414 l-200 0 l0 -83 l-44 0 l0 396 q-29 -57 -63 -101 q-23 38 -29 45 q104 133 157 415 l-137 0 l0 46 ZM535 180 q83 -69 123 -132 l-39 -28 q-35 62 -120 136 l36 24 ZM953 211 l-135 0 l0 -225 q0 -42 -30 -51 q-27 -9 -135 -9 q-4 21 -17 44 q95 -2 118 0 q18 0 18 17 l0 224 l-367 0 l0 44 l367 0 l0 104 l-350 0 l0 43 l522 0 l0 -43 l-126 0 l0 -104 l135 0 l0 -44 Z" /><glyph glyph-name="" unicode="&#x2f70;&#x793a;" d="M850 705 l-697 0 l0 47 l697 0 l0 -47 ZM304 337 q-75 -189 -217 -321 q-21 17 -44 31 q137 112 212 302 l49 -12 ZM732 345 q138 -166 190 -307 l-46 -21 q-54 149 -186 310 l42 18 ZM935 509 l0 -47 l-411 0 l0 -464 q0 -49 -38 -61 q-34 -9 -173 -9 q-6 30 -18 50 q116 -3 156 -1 q24 0 24 22 l0 463 l-412 0 l0 47 l872 0 Z" /><glyph glyph-name="" unicode="&#x79cd;" d="M269 551 l139 0 l0 -46 l-139 0 l0 -25 q92 -110 139 -181 l-30 -37 q-33 57 -109 164 l0 -496 l-47 0 l0 493 q-78 -199 -167 -301 q-9 22 -28 41 q115 125 188 342 l-161 0 l0 46 l168 0 l0 175 q-57 -13 -154 -29 q-3 17 -15 39 q223 36 317 80 l33 -38 q-54 -23 -134 -41 l0 -186 ZM884 300 l0 269 l-169 0 l0 -269 l169 0 ZM668 300 l0 269 l-175 0 l0 -269 l175 0 ZM931 616 l0 -418 l-47 0 l0 56 l-169 0 l0 -326 l-47 0 l0 326 l-175 0 l0 -61 l-46 0 l0 423 l221 0 l0 215 l47 0 l0 -215 l216 0 Z" /><glyph glyph-name="" unicode="&#x79d1;" d="M682 591 q-53 66 -167 137 l30 30 q112 -64 169 -133 l-32 -34 ZM662 327 q-70 75 -188 143 l29 29 q125 -70 189 -139 l-30 -33 ZM277 481 q61 -70 145 -189 l-32 -38 q-31 58 -113 173 l0 -498 l-47 0 l0 491 q-78 -198 -167 -299 q-7 19 -27 41 q113 123 187 343 l-171 0 l0 46 l178 0 l0 174 q-51 -11 -153 -28 q-5 17 -16 38 q229 39 318 81 l32 -39 q-56 -23 -134 -41 l0 -185 l158 0 l0 -46 l-158 0 l0 -24 ZM822 195 l0 -267 l-47 0 l0 260 l-342 -53 l-8 45 l350 54 l0 599 l47 0 l0 -592 l128 20 l7 -44 l-135 -22 Z" /><glyph glyph-name="" unicode="&#x7a0b;" d="M841 751 l-359 0 l0 -194 l359 0 l0 194 ZM887 514 l-450 0 l0 280 l450 0 l0 -280 ZM340 254 q-24 54 -84 153 l0 -481 l-46 0 l0 468 q-66 -187 -138 -283 q-15 28 -31 44 q104 134 162 344 l-141 0 l0 46 l148 0 l0 185 q-54 -12 -115 -24 q-5 20 -15 39 q175 35 260 77 l35 -39 q-43 -20 -119 -42 l0 -196 l136 0 l0 -46 l-136 0 l0 -26 q77 -104 118 -178 l-34 -41 ZM947 0 l0 -46 l-581 0 l0 46 l277 0 l0 168 l-207 0 l0 44 l207 0 l0 156 l-230 0 l0 45 l512 0 l0 -45 l-234 0 l0 -156 l213 0 l0 -44 l-213 0 l0 -168 l256 0 Z" /><glyph glyph-name="" unicode="&#x2f74;&#x7acb;" d="M490 661 q-16 77 -49 161 l45 13 q36 -92 52 -159 l-48 -15 ZM901 592 l-799 0 l0 48 l799 0 l0 -48 ZM351 74 q-25 172 -102 439 l47 10 q76 -250 104 -438 l-49 -11 ZM940 19 l0 -47 l-879 0 l0 47 l483 0 q91 207 161 505 l55 -9 q-94 -328 -165 -496 l345 0 Z" /><glyph glyph-name="" unicode="&#x7aef;" d="M915 556 l-487 0 l0 225 l45 0 l0 -181 l166 0 l0 231 l46 0 l0 -231 l183 0 l0 181 l47 0 l0 -225 ZM233 657 q-23 68 -71 151 l42 14 q53 -88 72 -148 l-43 -17 ZM390 592 l-333 0 l0 45 l333 0 l0 -45 ZM144 158 q-6 162 -51 373 l40 7 q46 -209 52 -373 l-41 -7 ZM395 166 l5 -45 l-333 -89 l-13 48 q137 33 186 46 q42 177 69 423 l44 -10 q-38 -259 -73 -402 l115 29 ZM690 424 q-10 -36 -28 -108 l265 0 l0 -340 q0 -33 -21 -42 q-19 -9 -88 -9 q-3 12 -17 40 q57 -2 70 0 q12 0 12 12 l0 295 l-116 0 l0 -331 l-41 0 l0 331 l-114 0 l0 -334 l-41 0 l0 334 l-110 0 l0 -345 l-45 0 l0 389 l200 0 q11 43 20 108 l-256 0 l0 45 l572 0 l0 -45 l-262 0 Z" /><glyph glyph-name="" unicode="&#x7b26;" d="M565 688 q-47 -90 -99 -144 q-22 18 -42 28 q102 99 148 263 l47 -10 q-15 -54 -34 -93 l339 0 l0 -44 l-223 0 q45 -64 67 -108 l-42 -18 q-24 48 -76 126 l-85 0 ZM315 530 q-27 -55 -72 -128 l0 -476 l-47 0 l0 409 q-45 -60 -108 -122 q-16 21 -36 37 q135 118 216 294 l47 -14 ZM302 688 q47 -100 57 -125 l-43 -15 q-26 63 -62 140 l-73 0 q-43 -89 -96 -151 q-19 16 -40 27 q95 104 145 271 l46 -11 q-17 -53 -34 -92 l267 0 l0 -44 l-167 0 ZM440 309 q82 -117 128 -200 l-40 -24 q-38 74 -127 205 l39 19 ZM940 375 l-149 0 l0 -375 q0 -51 -39 -62 q-33 -9 -178 -9 q-6 28 -18 48 q122 -3 163 -1 q25 1 25 24 l0 375 l-419 0 l0 45 l419 0 l0 116 l47 0 l0 -116 l149 0 l0 -45 Z" /><glyph glyph-name="" unicode="&#x7b2c;" d="M207 701 q-49 -84 -111 -143 q-10 9 -41 27 q113 95 166 251 l45 -11 q-14 -38 -36 -83 l274 0 l0 -41 l-177 0 q32 -66 42 -110 l-45 -13 q-11 49 -45 123 l-72 0 ZM211 350 q-8 -51 -19 -113 l282 0 l0 113 l-263 0 ZM522 393 l299 0 l0 112 l-299 0 l0 -112 ZM892 237 l-2 -23 q-20 -196 -55 -225 q-20 -20 -57 -20 q-51 -2 -124 2 q-2 26 -14 46 q53 -6 122 -6 q27 0 35 8 q25 21 43 175 l-318 0 l0 -267 l-48 0 l0 257 q-132 -172 -357 -261 q-17 26 -32 38 q209 74 344 233 l-292 0 q19 77 36 199 l301 0 l0 112 l-337 0 l0 43 l731 0 l0 -198 l-346 0 l0 -113 l370 0 ZM936 742 l0 -41 l-203 0 q52 -65 69 -107 l-42 -18 q-24 57 -80 125 l-86 0 q-42 -85 -87 -133 q-17 15 -41 27 q89 90 129 241 l47 -10 q-11 -43 -29 -84 l323 0 Z" /><glyph glyph-name="" unicode="&#x7b49;" d="M178 699 q-42 -75 -94 -130 q-19 16 -40 27 q93 90 148 240 l46 -12 q-22 -54 -36 -82 l286 0 l0 -43 l-200 0 q28 -65 37 -106 l-45 -14 q-10 51 -41 120 l-61 0 ZM266 167 q117 -68 182 -152 l-38 -31 q-59 83 -179 156 l35 27 ZM730 334 l0 -105 l198 0 l0 -44 l-198 0 l0 -191 q0 -47 -37 -58 q-34 -9 -170 -9 q-4 18 -20 47 q125 -3 157 0 q22 1 22 20 l0 191 l-601 0 l0 44 l601 0 l0 105 l-629 0 l0 44 l422 0 l0 109 l-325 0 l0 44 l325 0 l0 60 l-5 -5 q-22 19 -40 30 q98 82 146 220 l46 -11 q-15 -42 -37 -83 l355 0 l0 -43 l-242 0 q50 -65 65 -109 l-42 -18 q-22 56 -75 127 l-85 0 q-29 -48 -67 -89 l30 0 l0 -79 l332 0 l0 -44 l-332 0 l0 -109 l428 0 l0 -44 l-222 0 Z" /><glyph glyph-name="" unicode="&#x7b56;" d="M179 696 q-54 -84 -100 -126 q-12 12 -40 26 q105 95 160 239 l46 -12 q-21 -48 -40 -83 l279 0 l0 -44 l-189 0 q34 -64 48 -106 l-44 -15 q-18 56 -53 121 l-67 0 ZM526 258 q145 -180 435 -251 q-20 -20 -30 -42 q-243 67 -405 231 l0 -268 l-50 0 l0 270 q-151 -163 -398 -236 q-11 25 -31 41 q282 70 429 257 l0 96 l-279 0 l0 -203 l-49 0 l0 247 l328 0 l0 95 l-404 0 l0 44 l404 0 l0 58 q-10 -10 -28 -26 q-21 18 -42 29 q118 90 169 235 l47 -12 q-16 -45 -38 -83 l350 0 l0 -44 l-234 0 q41 -62 56 -106 l-43 -16 q-20 56 -65 122 l-92 0 q-27 -43 -70 -89 l40 0 l0 -68 l397 0 l0 -44 l-397 0 l0 -95 l336 0 l0 -195 q0 -36 -26 -45 q-21 -8 -112 -8 q-6 19 -18 40 q75 -2 93 0 q15 0 15 13 l0 151 l-288 0 l0 -98 Z" /><glyph glyph-name="" unicode="&#x7b75;" d="M490 397 l0 -251 l159 0 l0 349 q-110 -13 -229 -21 q-2 19 -13 38 q336 27 456 70 l39 -36 q-78 -24 -207 -44 l0 -145 l224 0 l0 -43 l-224 0 l0 -168 l244 0 l0 -45 l-494 0 l0 295 l45 1 ZM570 698 q-40 -76 -85 -126 q-21 18 -40 28 q87 87 126 236 l48 -10 q-13 -46 -30 -85 l345 0 l0 -43 l-223 0 q46 -62 62 -104 l-42 -20 q-18 50 -75 124 l-86 0 ZM177 698 q-44 -77 -92 -128 q-21 19 -40 28 q93 91 145 238 l46 -12 q-16 -44 -36 -83 l287 0 l0 -43 l-185 0 q27 -57 41 -117 l-45 -15 q-10 57 -44 132 l-77 0 ZM379 325 q-32 -154 -108 -253 q112 -74 374 -76 q272 0 315 1 q-16 -23 -21 -47 l-294 0 q-281 0 -404 87 q-65 -71 -160 -112 q-9 20 -30 39 q88 35 154 104 q-59 55 -96 144 l37 18 q34 -82 87 -129 q62 80 90 190 l-194 0 q66 87 128 192 l-180 0 l0 44 l257 0 q-49 -84 -122 -193 l129 0 l10 2 l28 -11 Z" /><glyph glyph-name="" unicode="&#x7b80;" d="M205 697 q-49 -79 -103 -128 q-20 20 -40 29 q108 89 157 236 l47 -12 q-12 -35 -36 -82 l256 0 l0 -43 l-151 0 q34 -61 45 -98 l-43 -16 q-14 47 -52 114 l-80 0 ZM119 457 l47 0 l0 -529 l-47 0 l0 529 ZM205 586 q78 -78 106 -127 l-39 -25 q-32 59 -103 129 l36 23 ZM362 355 l0 -102 l278 0 l0 102 l-278 0 ZM640 103 l0 110 l-278 0 l0 -110 l278 0 ZM362 62 l0 -55 l-45 0 l0 389 l369 0 l0 -334 l-324 0 ZM879 -2 q0 -51 -38 -61 q-25 -7 -175 -7 q-6 27 -18 44 q128 -3 160 0 q24 1 24 23 l0 516 l-484 0 l0 44 l531 0 l0 -559 ZM916 741 l0 -43 l-181 0 q39 -56 56 -96 l-43 -19 q-24 59 -66 115 l-94 0 q-39 -66 -81 -107 q-18 14 -40 28 q89 81 129 214 l47 -11 q-14 -42 -32 -81 l305 0 Z" /><glyph glyph-name="" unicode="&#x7bc7;" d="M179 707 q-41 -72 -96 -131 q-15 14 -40 28 q94 89 147 231 l45 -12 l-33 -75 l275 0 l0 -41 l-169 0 q29 -49 42 -93 l-43 -14 q-14 48 -48 107 l-80 0 ZM843 138 l0 93 l-161 0 l0 -93 l161 0 ZM639 138 l0 93 l-161 0 l0 -93 l161 0 ZM435 138 l0 93 l-157 0 l0 -93 l157 0 ZM889 -18 q0 -37 -27 -47 q-26 -8 -123 -8 q-1 8 -16 40 q85 -3 104 0 q16 0 16 15 l0 117 l-161 0 l0 -150 l-43 0 l0 150 l-161 0 l0 -150 l-43 0 l0 150 l-157 0 l0 -168 l-45 0 l0 341 l656 0 l0 -290 ZM816 508 l-598 0 l0 -119 l598 0 l0 119 ZM929 748 l0 -41 l-212 0 q42 -51 60 -91 l-42 -19 q-20 46 -73 110 l-104 0 q-32 -49 -74 -87 l32 13 q37 -44 60 -84 l287 0 l0 -201 l-646 0 q-8 -267 -130 -420 q-15 18 -38 30 q123 153 123 451 l0 140 l348 0 q-22 38 -43 64 l-6 -5 q-22 17 -41 25 q98 79 143 202 l46 -11 q-13 -33 -35 -76 l345 0 Z" /><glyph glyph-name="" unicode="&#x7c7b;" d="M807 793 q-65 -85 -115 -135 l-40 16 q57 59 106 137 l49 -18 ZM304 652 q-36 69 -110 136 l39 20 q77 -68 113 -132 l-42 -24 ZM474 580 q-128 -170 -379 -243 q-17 26 -32 38 q238 61 365 213 l-350 0 l0 45 l396 0 l0 199 l48 0 l0 -199 l407 0 l0 -45 l-375 0 q242 -124 366 -207 l-24 -39 q-120 85 -374 219 l0 -180 l-48 0 l0 199 ZM558 190 q105 -179 397 -220 q-16 -14 -31 -45 q-309 53 -417 265 l-17 0 q-83 -206 -409 -263 q-7 22 -24 43 q302 51 380 220 l-362 0 l0 46 l379 0 q17 51 26 122 l50 0 q-9 -69 -25 -122 l424 0 l0 -46 l-371 0 Z" /><glyph glyph-name="" unicode="&#x7c9f;" d="M589 739 l-184 0 l0 -103 l184 0 l0 103 ZM636 594 l0 -149 l186 0 l0 149 l-186 0 ZM405 445 l184 0 l0 149 l-184 0 l0 -149 ZM180 445 l179 0 l0 149 l-179 0 l0 -149 ZM359 739 l-286 0 l0 43 l854 0 l0 -43 l-291 0 l0 -103 l234 0 l0 -233 l-737 0 l0 233 l226 0 l0 103 ZM261 381 q68 -65 93 -127 l-43 -21 q-28 64 -92 130 l42 18 ZM579 186 q137 -142 377 -199 q-20 -18 -32 -41 q-266 78 -401 240 l-1 0 l0 -262 l-48 0 l0 262 l-1 0 q-140 -161 -397 -246 q-15 25 -31 39 q225 65 369 207 l-355 0 l0 44 l415 0 l0 155 l48 0 l0 -155 l124 0 q54 77 92 156 l46 -18 q-44 -76 -86 -138 l244 0 l0 -44 l-363 0 Z" /><glyph glyph-name="" unicode="&#x7cfb;" d="M359 212 q-89 -123 -227 -221 q-20 20 -42 32 q138 88 222 205 l47 -16 ZM536 295 l0 -288 q0 -43 -33 -55 q-27 -9 -147 -9 q-3 19 -19 48 q100 -3 131 -1 q20 1 20 17 l0 285 q-328 -24 -363 -36 q-5 24 -15 48 q40 4 137 55 q74 34 217 124 q-256 -17 -277 -24 q-11 36 -15 46 q26 3 72 41 q78 53 187 171 q-121 -11 -302 -22 q-1 19 -12 42 q486 30 693 81 l35 -40 q-137 -32 -346 -54 q-121 -129 -233 -211 l267 14 q93 61 171 123 l39 -32 q-233 -175 -493 -300 l523 36 q-34 35 -97 92 l38 19 q138 -117 209 -217 l-39 -25 q-29 42 -75 91 l-273 -19 ZM682 233 q155 -119 247 -216 l-39 -29 q-84 93 -244 222 l36 23 Z" /><glyph glyph-name="" unicode="&#x7ea7;" d="M378 337 q0 -23 5 -41 q-296 -89 -320 -108 q-8 30 -16 47 q22 5 75 68 q42 42 122 159 q-164 -24 -187 -34 q-4 22 -16 48 q16 3 58 63 q94 145 148 292 l46 -22 q-88 -196 -179 -321 l159 19 q30 43 68 112 l42 -24 q-112 -185 -231 -323 l226 65 ZM396 122 q-229 -84 -339 -123 l-11 48 q58 18 341 118 l9 -43 ZM569 720 q-7 -123 -13 -197 q61 -209 170 -354 q89 117 128 271 l-175 0 q38 105 84 280 l-194 0 ZM911 473 q-44 -199 -156 -343 q91 -110 202 -163 q-17 -13 -34 -40 q-107 55 -199 167 q-100 -109 -230 -169 q-15 23 -35 38 q139 59 235 168 q-88 121 -149 285 q-37 -323 -163 -490 q-3 3 -42 30 q159 194 180 764 l-121 0 l0 46 l426 0 q-56 -196 -84 -281 l131 0 l10 2 l29 -14 Z" /><glyph glyph-name="" unicode="&#x7eaa;" d="M49 41 q65 11 359 68 l4 -45 q-232 -45 -354 -71 l-9 48 ZM298 507 q53 76 72 109 l44 -25 q-134 -201 -267 -331 l255 35 q-1 -17 1 -42 q-308 -47 -335 -60 q-9 32 -16 49 q25 4 81 65 q50 47 130 154 q-179 -21 -200 -30 q-9 34 -17 47 q20 5 61 63 q90 114 163 287 l47 -21 q-96 -192 -194 -317 l175 17 ZM833 -11 q45 0 59 32 q12 30 17 141 q21 -15 46 -20 q-6 -121 -27 -158 q-24 -41 -94 -41 l-231 0 q-72 0 -97 18 q-26 19 -26 75 l0 395 l359 0 l0 283 l-376 0 l0 47 l424 0 l0 -430 l-48 0 l0 54 l-311 0 l0 -349 q0 -29 14 -38 q15 -9 62 -9 l229 0 Z" /><glyph glyph-name="" unicode="&#x7ec3;" d="M347 298 q-1 -16 1 -42 q-253 -54 -274 -66 q-4 22 -16 47 q19 2 66 66 q50 68 99 154 q-132 -20 -155 -29 q-8 28 -17 48 q16 3 52 63 q79 138 124 292 l45 -20 q-65 -182 -151 -326 l128 16 q26 47 56 112 l43 -23 q-108 -210 -205 -331 l204 39 ZM350 108 l-283 -109 l-13 47 q-16 -5 289 101 l7 -39 ZM524 225 q-63 -142 -159 -244 q-6 7 -35 27 q96 99 148 231 l46 -14 ZM639 357 l0 148 l-118 0 q-26 -68 -63 -148 l181 0 ZM686 312 l0 -320 q0 -43 -32 -56 q-28 -9 -137 -9 q-2 17 -17 46 q81 -3 120 0 q19 1 19 18 l0 321 l-147 0 q-69 0 -85 -14 q-8 29 -17 47 q17 4 55 91 q15 34 27 69 l-102 0 l0 46 l119 0 q21 58 37 111 l-174 0 l0 46 l188 0 q23 80 32 129 l48 -11 q-14 -64 -31 -118 l341 0 l0 -46 l-355 0 q-14 -48 -37 -111 l148 0 l0 -194 l219 0 l0 -45 l-219 0 ZM820 239 q89 -135 135 -229 l-42 -20 q-45 94 -133 231 l40 18 Z" /><glyph glyph-name="" unicode="&#x7ec6;" d="M43 41 q101 18 368 70 l3 -44 l-362 -75 l-9 49 ZM300 508 q41 56 72 105 l45 -25 q-144 -203 -273 -328 l266 39 q-1 -13 2 -43 q-325 -50 -348 -63 q-7 26 -17 49 q25 5 81 64 q52 49 137 155 q-189 -22 -207 -30 q-10 33 -18 49 q20 4 62 64 q96 130 163 293 l48 -21 q-99 -201 -196 -326 l183 18 ZM876 55 l0 313 l-170 0 l0 -313 l170 0 ZM485 55 l176 0 l0 313 l-176 0 l0 -313 ZM485 731 l0 -317 l176 0 l0 317 l-176 0 ZM876 731 l-170 0 l0 -317 l170 0 l0 317 ZM923 778 l0 -831 l-47 0 l0 63 l-391 0 l0 -71 l-45 0 l0 839 l483 0 Z" /><glyph glyph-name="" unicode="&#x7ecf;" d="M929 382 q-116 74 -272 140 q-120 -89 -269 -146 q-13 23 -31 39 q305 107 441 317 l-375 0 l0 45 l406 0 l10 3 l34 -19 q-60 -113 -179 -210 q181 -77 262 -130 l-27 -39 ZM374 305 q-1 -18 1 -43 q-284 -57 -309 -72 q-3 14 -16 49 q23 4 75 66 q41 41 124 157 q-170 -25 -189 -34 q-7 26 -17 49 q19 3 58 64 q86 119 150 289 l47 -21 q-89 -194 -179 -320 l161 18 q43 67 69 112 l43 -25 q-118 -193 -244 -331 l226 42 ZM382 80 q-347 -87 -325 -81 l-10 48 q29 6 331 77 l4 -44 ZM687 3 l268 0 l0 -45 l-585 0 l0 45 l269 0 l0 280 l-208 0 l0 45 l478 0 l0 -45 l-222 0 l0 -280 Z" /><glyph glyph-name="" unicode="&#x7ed3;" d="M394 306 q-1 -11 2 -43 q-309 -57 -333 -70 q-4 24 -17 49 q23 3 76 65 q41 41 122 153 q-164 -20 -187 -29 q-8 29 -16 50 q19 4 53 61 q80 114 140 280 l49 -20 q-82 -190 -168 -311 l161 14 q46 72 66 109 l44 -26 q-120 -192 -244 -324 l252 42 ZM42 41 q73 13 351 73 l4 -44 l-345 -78 l-10 49 ZM505 253 l0 -238 l340 0 l0 238 l-340 0 ZM458 298 l435 0 l0 -367 l-48 0 l0 39 l-340 0 l0 -43 l-47 0 l0 371 ZM697 646 l0 -183 l223 0 l0 -46 l-488 0 l0 46 l216 0 l0 183 l-241 0 l0 47 l241 0 l0 141 l49 0 l0 -141 l237 0 l0 -47 l-237 0 Z" /><glyph glyph-name="" unicode="&#x7ed8;" d="M338 314 q0 -22 4 -42 q-259 -68 -279 -82 q-9 33 -16 48 q20 4 68 68 q42 51 102 152 q-140 -20 -160 -30 q-8 31 -17 48 q16 4 53 65 q76 114 132 291 l47 -19 q-72 -190 -161 -327 l134 17 q42 76 62 117 l45 -23 q-107 -200 -212 -332 l198 49 ZM44 45 q92 30 300 106 l8 -43 l-296 -110 l-12 47 ZM755 187 q107 -127 164 -238 l-43 -23 q-12 29 -47 83 q-419 -47 -447 -57 q-4 18 -19 47 q43 12 56 28 q41 47 156 251 l-182 0 l0 46 l516 0 l0 -46 l-279 0 q-113 -191 -162 -265 l337 35 q-49 70 -89 119 l39 20 ZM811 495 l0 -45 l-334 0 l0 45 l334 0 ZM679 821 l-16 -37 q99 -161 283 -278 q-19 -17 -29 -39 q-168 117 -277 275 q-100 -179 -261 -292 q-8 22 -28 42 q195 129 284 343 l44 -14 Z" /><glyph glyph-name="" unicode="&#x7f16;" d="M335 300 q0 -21 4 -41 q-244 -54 -269 -69 q-10 35 -15 47 q20 3 68 67 q41 51 104 153 q-139 -20 -163 -29 q-11 36 -15 47 q16 4 53 64 q86 147 132 292 l47 -18 q-73 -188 -162 -327 l135 16 q40 72 61 118 l42 -23 q-107 -204 -215 -337 l193 40 ZM347 109 q-117 -46 -285 -108 l-12 45 q43 14 289 104 l8 -41 ZM869 678 l-402 0 l0 -130 l402 0 l0 130 ZM915 505 l-448 0 q0 -367 -104 -560 q-19 21 -38 28 q97 180 97 532 l0 216 l242 0 q-18 48 -50 103 l42 14 q40 -62 59 -117 l200 0 l0 -216 ZM879 192 l0 170 l-93 0 l0 -170 l93 0 ZM749 192 l0 170 l-89 0 l0 -170 l89 0 ZM622 192 l0 170 l-104 0 l0 -170 l104 0 ZM920 -19 q0 -31 -19 -40 q-17 -8 -75 -8 q-3 19 -14 39 q28 -1 57 -1 q10 1 10 11 l0 169 l-93 0 l0 -190 l-37 0 l0 190 l-89 0 l0 -191 l-38 0 l0 191 l-104 0 l0 -216 l-41 0 l0 470 l443 0 l0 -424 Z" /><glyph glyph-name="" unicode="&#x2f79;&#x7f51;" d="M460 157 q-40 77 -88 154 q-66 -154 -163 -255 q-22 19 -39 30 q105 96 172 271 q-84 126 -143 200 l32 24 q73 -93 129 -174 q35 106 58 234 l46 -6 q-31 -162 -73 -274 q71 -106 104 -176 l-35 -28 ZM759 124 q-35 78 -97 180 q-63 -155 -165 -254 q-31 24 -39 28 q109 99 175 272 q-72 115 -142 206 l35 23 q69 -89 126 -177 q34 104 56 236 l44 -6 q-29 -162 -70 -276 q77 -120 114 -207 l-37 -25 ZM908 1 q0 -50 -37 -63 q-31 -9 -164 -9 q-4 19 -19 47 q98 -3 147 0 q25 1 25 24 l0 724 l-716 0 l0 -795 l-48 0 l0 841 l812 0 l0 -769 Z" /><glyph glyph-name="" unicode="&#x804c;" d="M858 711 l-324 0 l0 -329 l324 0 l0 329 ZM905 336 l-418 0 l0 422 l418 0 l0 -422 ZM162 142 l173 28 l0 159 l-173 0 l0 -187 ZM162 742 l0 -162 l173 0 l0 162 l-173 0 ZM162 372 l173 0 l0 165 l-173 0 l0 -165 ZM380 133 l0 -207 l-45 0 l0 199 l-280 -47 l-10 46 l71 11 l0 607 l-64 0 l0 44 l392 0 l0 -44 l-64 0 l0 -565 l70 12 l3 -43 l-73 -13 ZM619 217 q-52 -180 -157 -291 q-22 19 -40 29 q103 98 150 272 l47 -10 ZM813 229 q99 -160 136 -270 l-45 -20 q-39 119 -133 273 l42 17 Z" /><glyph glyph-name="" unicode="&#x8054;" d="M592 639 q-30 72 -101 158 l39 20 q75 -82 104 -155 l-42 -23 ZM158 142 l169 26 l0 161 l-169 0 l0 -187 ZM158 742 l0 -162 l169 0 l0 162 l-169 0 ZM158 372 l169 0 l0 165 l-169 0 l0 -165 ZM371 132 l0 -206 l-44 0 l0 198 q-136 -24 -272 -46 l-10 46 l68 10 l0 608 l-62 0 l0 45 l368 0 l0 -45 l-48 0 l0 -567 l83 14 l3 -43 l-86 -14 ZM687 327 q75 -269 270 -360 q-17 -15 -34 -39 q-170 88 -256 321 q-53 -200 -239 -330 q-12 18 -37 34 q210 140 243 374 l-212 0 l0 45 l217 0 q3 32 3 91 l0 116 l-192 0 l0 46 l254 0 q70 91 119 191 l49 -17 q-73 -120 -115 -174 l150 0 l0 -46 l-217 0 l0 -117 q0 -42 -3 -90 l262 0 l0 -45 l-262 0 Z" /><glyph glyph-name="" unicode="&#x80b2;" d="M750 146 l0 96 l-491 0 l0 -96 l491 0 ZM259 378 l0 -96 l491 0 l0 96 l-491 0 ZM798 -9 q0 -46 -39 -57 q-26 -7 -186 -7 q-5 21 -19 42 q137 -3 171 0 q25 1 25 23 l0 114 l-491 0 l0 -180 l-48 0 l0 495 l587 0 l0 -430 ZM432 680 q-90 -87 -175 -144 l462 23 q-80 66 -116 94 l36 24 q158 -118 249 -203 l-37 -30 q-64 58 -85 76 q-567 -33 -596 -43 q-10 37 -17 51 q21 2 64 30 q72 49 145 122 l-295 0 l0 45 l430 0 q-33 62 -56 97 l46 14 q37 -55 67 -111 l383 0 l0 -45 l-505 0 Z" /><glyph glyph-name="" unicode="&#x80fd;" d="M659 402 q-62 0 -84 16 q-22 17 -22 65 l0 350 l47 0 l0 -182 q175 55 263 100 l34 -36 q-118 -53 -297 -104 l0 -127 q0 -23 11 -30 q12 -7 49 -7 l187 0 q32 0 41 22 q10 22 13 100 q18 -12 45 -19 q-5 -90 -23 -118 q-19 -30 -73 -30 l-191 0 ZM403 180 l0 111 l-249 0 l0 -111 l249 0 ZM154 438 l0 -106 l249 0 l0 106 l-249 0 ZM450 -7 q0 -43 -29 -55 q-27 -9 -131 -9 q-3 18 -17 47 q75 -3 113 0 q17 0 17 16 l0 147 l-249 0 l0 -211 l-46 0 l0 553 l342 0 l0 -488 ZM355 774 q102 -124 136 -216 l-39 -19 q-7 16 -26 54 q-317 -22 -343 -31 q-5 25 -16 48 q18 3 44 40 q58 61 113 185 l48 -18 q-67 -122 -133 -201 l265 15 q-41 67 -87 126 l38 17 ZM853 -20 q33 0 44 25 q9 25 13 114 q19 -14 44 -18 q-5 -101 -23 -131 q-19 -33 -76 -33 l-194 0 q-64 0 -85 16 q-23 17 -23 66 l0 350 l48 0 l0 -171 q195 58 277 110 l32 -37 q-93 -55 -309 -114 l0 -139 q0 -23 11 -30 q12 -8 50 -8 l191 0 Z" /><glyph glyph-name="" unicode="&#x81b3;" d="M303 313 l0 199 l-147 0 l0 -73 q0 -58 -3 -126 l150 0 ZM156 749 l0 -192 l147 0 l0 192 l-147 0 ZM346 -1 q0 -42 -29 -55 q-25 -8 -125 -8 q-3 16 -15 45 q26 -1 107 -1 q19 0 19 20 l0 268 l-152 0 q-17 -222 -74 -342 q-19 17 -39 24 q74 153 74 489 l0 355 l234 0 l0 -795 ZM481 156 l0 -148 l358 0 l0 148 l-358 0 ZM436 197 l449 0 l0 -267 l-46 0 l0 38 l-358 0 l0 -40 l-45 0 l0 269 ZM941 300 l0 -43 l-563 0 l0 43 l129 0 q-9 40 -50 113 l38 13 q37 -54 54 -112 l-39 -14 l127 0 l0 135 l-244 0 l0 41 l244 0 l0 80 l-206 0 l0 40 l206 0 l0 74 l-241 0 l0 40 l140 0 q-21 58 -56 105 l38 16 q41 -53 61 -107 l-30 -14 l186 0 q34 59 56 124 l46 -16 q-36 -75 -55 -108 l139 0 l0 -40 l-239 0 l0 -74 l202 0 l0 -40 l-202 0 l0 -80 l248 0 l0 -41 l-248 0 l0 -135 l85 0 q35 69 53 130 l44 -18 q-30 -69 -52 -112 l129 0 Z" /><glyph glyph-name="" unicode="&#x2f83;&#x81ea;" d="M792 30 l0 175 l-568 0 l0 -175 l568 0 ZM224 423 l0 -172 l568 0 l0 172 l-568 0 ZM224 646 l0 -177 l568 0 l0 177 l-568 0 ZM841 693 l0 -762 l-49 0 l0 54 l-568 0 l0 -61 l-48 0 l0 769 l249 0 q31 80 48 142 l51 -9 q-30 -83 -52 -133 l369 0 Z" /><glyph glyph-name="" unicode="&#x2f84;&#x81f3;" d="M851 400 q-21 29 -67 75 q-610 -31 -639 -42 q-3 19 -17 51 q22 2 70 47 q74 63 173 195 l-291 0 l0 46 l831 0 l0 -46 l-474 0 q-120 -151 -217 -235 l523 24 q-87 78 -143 119 l38 24 q172 -123 254 -229 l-41 -29 ZM941 16 l0 -46 l-882 0 l0 46 l416 0 l0 212 l-329 0 l0 45 l329 0 l0 149 l49 0 l0 -149 l339 0 l0 -45 l-339 0 l0 -212 l417 0 Z" /><glyph glyph-name="" unicode="&#x2f8a;&#x8272;" d="M333 695 q-54 -75 -121 -139 l289 0 q62 57 114 139 l-282 0 ZM807 511 l-274 0 l0 -205 l274 0 l0 205 ZM229 306 l257 0 l0 205 l-257 0 l0 -205 ZM783 -12 q73 0 97 32 q21 30 30 136 q25 -16 47 -19 q-11 -118 -42 -154 q-34 -41 -135 -41 l-411 0 q-108 0 -146 24 q-40 26 -40 100 l0 463 q-42 -40 -107 -83 q-13 29 -28 44 q214 134 316 343 l45 -15 q-22 -45 -45 -78 l284 0 l10 3 l32 -22 q-50 -85 -130 -165 l295 0 l0 -348 l-48 0 l0 51 l-578 0 l0 -195 q0 -45 26 -60 q26 -16 106 -16 l422 0 Z" /><glyph glyph-name="" unicode="&#x82ac;" d="M303 697 l-235 0 l0 45 l235 0 l0 91 l48 0 l0 -91 l293 0 l0 91 l48 0 l0 -91 l246 0 l0 -45 l-246 0 l0 -79 l-48 0 l0 79 l-293 0 l0 -79 l-48 0 l0 79 ZM397 569 q-92 -166 -317 -279 q-16 25 -36 40 q216 93 306 254 l47 -15 ZM762 338 q0 -18 -1 -24 q-20 -313 -57 -353 q-20 -20 -60 -23 q-47 -2 -134 3 q-2 27 -15 46 q70 -6 131 -6 q29 0 39 11 q30 30 47 301 l-267 0 q-26 -141 -93 -223 q-82 -99 -244 -145 q-10 24 -28 40 q154 40 230 130 q62 74 84 198 l-193 0 l0 45 l561 0 ZM643 587 q118 -171 313 -255 q-18 -15 -36 -41 q-198 101 -318 278 l41 18 Z" /><glyph glyph-name="" unicode="&#x82e5;&#xf974;" d="M300 681 l-232 0 l0 45 l232 0 l0 107 l47 0 l0 -107 l304 0 l0 107 l48 0 l0 -107 l239 0 l0 -45 l-239 0 l0 -105 l-48 0 l0 105 l-304 0 l0 -105 l-47 0 l0 105 ZM805 244 l-490 0 l0 -221 l490 0 l0 221 ZM418 443 q-44 -84 -97 -154 l532 0 l0 -359 l-48 0 l0 48 l-490 0 l0 -51 l-47 0 l0 299 q-83 -87 -189 -151 q-13 19 -38 37 q210 114 324 331 l-305 0 l0 46 l328 0 q29 64 47 122 l48 -11 q-21 -63 -43 -111 l504 0 l0 -46 l-526 0 Z" /><glyph glyph-name="" unicode="&#x82f1;" d="M297 687 l-221 0 l0 45 l221 0 l0 101 l47 0 l0 -101 l307 0 l0 101 l47 0 l0 -101 l222 0 l0 -45 l-222 0 l0 -113 l-47 0 l0 113 l-307 0 l0 -113 l-47 0 l0 113 ZM464 268 q7 36 7 94 l0 98 l-254 0 l0 -192 l247 0 ZM520 460 l0 -98 q0 -57 -6 -94 l274 0 l0 192 l-268 0 ZM554 222 q100 -206 407 -254 q-18 -18 -31 -44 q-323 59 -426 298 l-1 0 q-60 -205 -428 -298 q-9 17 -28 40 q342 83 404 258 l-388 0 l0 46 l107 0 l0 236 l301 0 l0 125 l49 0 l0 -125 l316 0 l0 -236 l104 0 l0 -46 l-386 0 Z" /><glyph glyph-name="" unicode="&#x8857;" d="M941 726 l-251 0 l0 45 l251 0 l0 -45 ZM449 653 l-144 0 l0 44 l144 0 l0 135 l46 0 l0 -135 l146 0 l0 -44 l-146 0 l0 -155 l166 0 l0 -44 l-378 0 l0 44 l166 0 l0 155 ZM267 816 q-76 -127 -200 -226 q-14 20 -30 36 q122 91 184 206 l46 -16 ZM298 623 q-33 -72 -95 -156 l0 -542 l-45 0 l0 485 q-47 -55 -105 -105 q-17 26 -32 39 q149 119 233 293 l44 -14 ZM685 59 q-48 -6 -416 -57 l-7 47 l187 22 l0 179 l-160 0 l0 44 l160 0 l0 136 l46 0 l0 -136 l159 0 l0 -44 l-159 0 l0 -173 l189 27 l1 -45 ZM953 458 l-104 0 l0 -465 q0 -46 -33 -58 q-26 -9 -147 -9 q-5 23 -17 49 q97 -3 130 -1 q20 1 20 19 l0 465 l-123 0 l0 45 l274 0 l0 -45 Z" /><glyph glyph-name="" unicode="&#x88c5;" d="M632 639 l-252 0 l0 44 l252 0 l0 150 l48 0 l0 -150 l247 0 l0 -44 l-247 0 l0 -184 l228 0 l0 -44 l-496 0 l0 44 l220 0 l0 184 ZM203 637 q-42 52 -122 107 l32 28 q88 -57 122 -104 l-32 -31 ZM287 538 q-110 -54 -226 -108 l-18 42 q43 18 244 113 l0 248 l45 0 l0 -462 l-45 0 l0 167 ZM881 199 q-84 -58 -192 -106 q114 -85 263 -118 q-18 -18 -29 -40 q-306 79 -429 322 l-3 0 q-65 -59 -173 -114 l0 -150 l260 56 q-2 -23 0 -40 q-315 -73 -335 -85 q-5 19 -20 43 q47 14 47 58 l0 96 q-95 -42 -196 -68 q-13 23 -29 37 q237 53 384 167 l-371 0 l0 43 l436 0 q-20 43 -42 78 l45 14 q37 -59 52 -92 l394 0 l0 -43 l-401 0 q44 -79 116 -139 q99 46 185 108 l38 -27 Z" /><glyph glyph-name="" unicode="&#x8981;" d="M363 243 q-35 -51 -86 -115 q137 -25 246 -51 q116 62 171 166 l-331 0 ZM174 436 l180 0 l0 161 l-180 0 l0 -161 ZM400 639 l190 0 l0 102 l-190 0 l0 -102 ZM636 597 l0 -161 l195 0 l0 161 l-195 0 ZM590 436 l0 161 l-190 0 l0 -161 l190 0 ZM746 243 q-50 -113 -159 -181 q199 -48 330 -100 l-43 -37 q-143 58 -344 106 q-155 -77 -448 -102 q-6 21 -21 44 q254 17 398 75 q-122 28 -263 53 q58 65 112 142 l-247 0 l0 45 l278 0 q29 43 63 106 l-274 0 l0 245 l226 0 l0 102 l-278 0 l0 44 l850 0 l0 -44 l-290 0 l0 -102 l242 0 l0 -245 l-467 0 l39 -10 q-31 -58 -57 -96 l547 0 l0 -45 l-194 0 Z" /><glyph glyph-name="" unicode="&#x89c2;" d="M515 253 l-46 0 l0 529 l414 0 l0 -529 l-47 0 l0 485 l-321 0 l0 -485 ZM348 66 q-22 71 -78 181 q-77 -171 -187 -274 q-14 19 -36 37 q114 100 195 290 q-80 147 -178 277 l39 22 q83 -108 161 -242 q62 168 86 350 l-293 0 l0 46 l305 0 l9 3 l31 -10 q-29 -251 -107 -442 q67 -122 97 -210 l-44 -28 ZM643 638 l46 0 l0 -212 q0 -347 -298 -499 q-11 23 -31 37 q169 85 235 221 q48 97 48 242 l0 211 ZM870 -14 q29 0 37 32 q8 29 13 143 q15 -12 42 -20 q-6 -124 -21 -156 q-16 -38 -72 -38 l-97 0 q-45 0 -62 14 q-19 16 -19 56 l0 258 l45 0 l0 -254 q0 -21 8 -28 q8 -7 31 -7 l95 0 Z" /><glyph glyph-name="" unicode="&#x89c6;" d="M508 252 l-47 0 l0 530 l432 0 l0 -530 l-48 0 l0 486 l-337 0 l0 -486 ZM265 679 q-32 64 -96 128 l36 24 q68 -63 99 -125 l-39 -27 ZM368 234 q-31 43 -115 144 l0 -451 l-46 0 l0 421 q-66 -73 -132 -123 q-13 28 -27 42 q193 139 283 346 l-261 0 l0 45 l286 0 l10 2 l26 -18 q-41 -110 -124 -220 q71 -76 132 -150 l-32 -38 ZM864 -18 q29 0 38 32 q8 29 12 144 q15 -13 43 -21 q-7 -123 -22 -156 q-17 -38 -72 -38 l-105 0 q-46 0 -64 14 q-20 16 -20 56 l0 251 q-54 -220 -280 -338 q-9 20 -30 37 q169 87 235 226 q48 99 48 247 l0 215 l46 0 l0 -216 q0 -87 -16 -159 l43 0 l0 -258 q0 -22 8 -29 q8 -7 33 -7 l103 0 Z" /><glyph glyph-name="" unicode="&#x89c9;" d="M505 662 q-23 66 -84 151 l39 15 q63 -82 87 -149 l-42 -17 ZM272 651 q-35 65 -105 135 l39 21 q68 -65 108 -132 l-42 -24 ZM141 462 l-48 0 l0 187 l580 0 q68 79 121 173 l47 -20 q-54 -82 -114 -153 l187 0 l0 -187 l-49 0 l0 143 l-724 0 l0 -143 ZM734 139 l0 312 l-465 0 l0 -311 l-50 0 l0 357 l565 0 l0 -358 l-50 0 ZM472 405 l49 0 l0 -111 q0 -116 -63 -191 q-94 -111 -343 -180 q-13 23 -30 39 q241 62 330 164 q57 65 57 169 l0 110 ZM839 -8 q32 0 41 19 q9 19 12 93 q17 -12 44 -18 q-5 -85 -22 -111 q-18 -27 -71 -27 l-191 0 q-63 0 -84 14 q-22 15 -22 59 l0 189 l48 0 l0 -190 q0 -17 11 -23 q11 -5 49 -5 l185 0 Z" /><glyph glyph-name="" unicode="&#x89e3;" d="M419 208 l0 151 l-110 0 l0 -151 l110 0 ZM270 208 l0 151 l-110 0 l0 -43 q0 -57 -4 -108 l114 0 ZM207 704 q-32 -77 -59 -122 l153 0 q30 51 56 122 l-150 0 ZM309 400 l110 0 l0 141 l-110 0 l0 -141 ZM160 400 l110 0 l0 141 l-110 0 l0 -141 ZM461 -10 q0 -38 -23 -47 q-19 -9 -103 -9 q-4 23 -15 42 q68 -2 84 0 q15 0 15 14 l0 177 l-110 0 l0 -194 l-39 0 l0 194 l-117 0 q-18 -156 -74 -243 q-15 15 -37 24 q75 119 75 368 l0 216 l-38 -50 q-16 16 -38 28 q109 119 161 323 l45 -10 q-12 -45 -24 -78 l156 0 l8 3 l30 -20 q-27 -77 -69 -146 l113 0 l0 -592 ZM710 739 q-36 -206 -185 -279 q-17 24 -31 33 q137 63 171 246 l-152 0 l0 44 l411 0 q0 -16 -1 -22 q-13 -226 -39 -254 q-17 -20 -51 -20 q-31 -3 -104 2 q-4 27 -13 41 q59 -4 102 -4 q22 0 29 9 q19 22 30 204 l-167 0 ZM953 133 l-188 0 l0 -205 l-46 0 l0 205 l-211 0 l0 44 l211 0 l0 141 l-119 0 q-27 -66 -59 -109 q-21 14 -40 22 q64 82 98 230 l44 -8 q-11 -52 -26 -92 l102 0 l0 105 l46 0 l0 -105 l161 0 l0 -43 l-161 0 l0 -141 l188 0 l0 -44 Z" /><glyph glyph-name="" unicode="&#x89e6;" d="M413 226 l0 139 l-107 0 l0 -139 l107 0 ZM266 226 l0 139 l-107 0 l0 -50 q0 -27 -2 -89 l109 0 ZM209 703 q-30 -72 -58 -121 l145 0 q29 47 58 121 l-145 0 ZM306 405 l107 0 l0 136 l-107 0 l0 -136 ZM159 405 l107 0 l0 136 l-107 0 l0 -136 ZM455 -8 q0 -34 -22 -44 q-17 -9 -87 -9 q-3 20 -14 41 q55 -2 68 0 q13 0 13 12 l0 193 l-107 0 l0 -231 l-40 0 l0 231 l-113 0 q-15 -165 -73 -260 q-14 14 -37 23 q73 120 73 367 l0 211 l-35 -46 q-20 20 -40 29 q108 120 162 324 l46 -11 q-11 -41 -24 -77 l151 0 l8 3 l30 -20 q-28 -75 -71 -146 l112 0 l0 -590 ZM684 319 l0 272 l-131 0 l0 -272 l131 0 ZM862 591 l-134 0 l0 -272 l134 0 l0 272 ZM918 -73 q-9 37 -34 98 l-400 -58 l-7 47 q129 16 205 27 l0 166 l2 0 l0 68 l-173 0 l0 359 l171 0 l0 196 l48 0 l0 -196 l175 0 l0 -359 l-177 0 l0 -68 l2 0 l0 -159 l136 19 q-32 72 -67 129 l39 13 q91 -147 122 -264 l-42 -18 Z" /><glyph glyph-name="" unicode="&#x8a79;" d="M360 103 l0 -97 l443 0 l0 97 l-443 0 ZM314 138 l535 0 l0 -205 l-46 0 l0 38 l-443 0 l0 -41 l-46 0 l0 208 ZM317 232 l524 0 l0 -37 l-524 0 l0 37 ZM841 288 l-524 0 l0 36 l524 0 l0 -36 ZM552 512 q41 -41 71 -95 l300 0 l0 -39 l-680 0 l0 39 l328 0 q-26 42 -58 79 l39 16 ZM502 579 q-90 -88 -212 -131 l-35 31 q123 37 202 113 l45 -13 ZM668 592 q138 -56 222 -112 l-29 -30 q-84 58 -223 118 l30 24 ZM305 733 q-20 -27 -64 -77 l291 0 q35 41 54 77 l-281 0 ZM935 656 l0 -41 l-710 0 l0 -208 q0 -320 -133 -480 q-11 13 -38 27 q126 150 126 454 l0 190 q-47 -41 -92 -69 q-10 14 -34 33 q171 102 259 272 l51 -9 l-32 -53 l280 0 l10 3 l30 -21 q-29 -53 -65 -98 l348 0 Z" /><glyph glyph-name="" unicode="&#x8ba1;" d="M305 624 q-55 73 -154 157 l33 30 q106 -89 154 -150 l-33 -37 ZM401 157 q7 -21 18 -41 q-202 -140 -218 -161 q-10 24 -28 44 q45 25 45 77 l0 393 l-166 0 l0 47 l214 0 l0 -449 l135 90 ZM953 444 l-268 0 l0 -516 l-49 0 l0 516 l-261 0 l0 48 l261 0 l0 339 l49 0 l0 -339 l268 0 l0 -48 Z" /><glyph glyph-name="" unicode="&#x8bb2;" d="M268 629 q-61 78 -146 155 l32 28 q108 -94 147 -149 l-33 -34 ZM359 152 q12 -31 17 -40 q-181 -134 -194 -153 q-18 31 -30 43 q48 31 48 85 l0 381 l-151 0 l0 47 l198 0 l0 -442 l112 79 ZM751 324 l0 265 l-205 0 l0 -203 q0 -41 -1 -62 l206 0 ZM953 277 l-154 0 l0 -349 l-48 0 l0 349 l-209 0 q-17 -235 -157 -355 q-17 19 -38 32 q129 109 147 323 l-160 0 l0 47 l163 0 q1 21 1 62 l0 203 l-142 0 l0 47 l142 0 l0 196 l48 0 l0 -196 l205 0 l0 197 l48 0 l0 -197 l136 0 l0 -47 l-136 0 l0 -265 l154 0 l0 -47 Z" /><glyph glyph-name="" unicode="&#x8bba;" d="M288 604 q-66 84 -166 168 l31 32 q116 -96 169 -163 l-34 -37 ZM370 157 q11 -27 20 -40 q-182 -143 -195 -161 l0 -1 q-10 18 -29 37 q47 35 47 88 l0 389 l-166 0 l0 46 l213 0 l0 -443 l110 85 ZM811 -3 q38 0 50 25 q11 25 15 112 q21 -15 44 -19 q-5 -99 -25 -130 q-21 -33 -83 -33 l-222 0 q-70 0 -94 18 q-25 18 -25 72 l0 428 l48 0 l0 -222 q179 89 290 171 l34 -39 q-137 -95 -324 -180 l0 -159 q0 -27 13 -35 q13 -9 58 -9 l221 0 ZM682 825 l-18 -41 q119 -202 301 -309 q-11 -9 -34 -37 q-166 109 -291 303 q-111 -194 -286 -311 q-21 25 -34 33 q219 144 311 370 l51 -8 Z" /><glyph glyph-name="" unicode="&#x8bbe;" d="M550 682 q0 -179 -176 -266 q-12 20 -31 37 q161 75 161 230 l0 111 l294 0 l0 -240 q0 -36 18 -36 l80 0 q19 0 43 4 q2 -29 5 -43 q-15 -4 -47 -4 l-82 0 q-37 0 -51 18 q-12 17 -12 63 l0 193 l-202 0 l0 -67 ZM283 628 q-46 65 -148 153 l33 30 q97 -79 149 -148 l-34 -35 ZM376 140 q5 -23 16 -39 q-195 -132 -210 -150 q-9 20 -29 40 q50 38 50 86 l0 392 l-153 0 l0 47 l199 0 l0 -458 l127 82 ZM476 342 q60 -138 174 -231 q121 96 178 231 l-352 0 ZM891 375 q-58 -171 -204 -293 q116 -82 268 -115 q-20 -20 -31 -44 q-159 40 -275 129 q-116 -84 -265 -126 q-6 19 -25 42 q137 35 253 114 q-120 106 -184 260 l-42 0 l0 46 l466 0 l9 3 l30 -16 Z" /><glyph glyph-name="" unicode="&#x8bc6;" d="M835 711 l-342 0 l0 -329 l342 0 l0 329 ZM884 336 l-439 0 l0 422 l439 0 l0 -422 ZM268 623 q-56 70 -153 149 l33 28 q100 -76 154 -144 l-34 -33 ZM373 156 q3 -13 18 -40 q-187 -138 -201 -155 q-9 16 -31 36 q52 37 52 93 l0 379 l-154 0 l0 47 l201 0 l0 -442 l115 82 ZM569 217 q-52 -177 -158 -290 q-12 11 -41 29 q101 98 150 272 l49 -11 ZM792 229 q102 -164 137 -270 l-47 -20 q-36 114 -134 274 l44 16 Z" /><glyph glyph-name="" unicode="&#x8bd5;" d="M887 650 q-38 68 -117 147 l34 23 q74 -71 119 -142 l-36 -28 ZM273 638 q-42 59 -138 143 l34 28 q83 -68 139 -137 l-35 -34 ZM372 143 q5 -22 15 -39 q-188 -130 -202 -146 q-9 20 -27 42 q45 28 45 77 l0 392 l-150 0 l0 47 l196 0 l0 -454 l123 81 ZM666 137 l6 -44 l-300 -88 l-14 46 q34 8 137 38 l0 270 l-119 0 l0 46 l269 0 l0 -46 l-105 0 l0 -257 l126 35 ZM734 569 q33 -575 143 -581 q30 -2 43 161 q14 -12 39 -25 q-22 -198 -82 -196 q-154 4 -190 641 l-343 0 l0 46 l341 0 q-4 72 -8 214 l48 0 q2 -122 7 -214 l220 0 l0 -46 l-218 0 Z" /><glyph glyph-name="" unicode="&#x8be6;" d="M549 649 q-28 76 -91 161 l41 17 q67 -89 93 -158 l-43 -20 ZM271 621 q-52 67 -149 151 l31 31 q103 -84 150 -145 l-32 -37 ZM369 154 q14 -35 18 -40 q-177 -136 -193 -159 l0 -1 q-11 20 -29 38 q47 32 47 88 l0 389 l-165 0 l0 46 l212 0 l0 -444 l110 83 ZM945 174 l-261 0 l0 -247 l-48 0 l0 247 l-262 0 l0 45 l262 0 l0 167 l-206 0 l0 45 l206 0 l0 162 l-237 0 l0 45 l333 0 q64 92 106 196 l48 -19 q-55 -105 -101 -177 l134 0 l0 -45 l-235 0 l0 -162 l203 0 l0 -45 l-203 0 l0 -167 l261 0 l0 -45 Z" /><glyph glyph-name="" unicode="&#x8bed;" d="M259 616 q-53 68 -148 154 l31 29 q107 -91 149 -148 l-32 -35 ZM380 151 l15 -39 q-183 -126 -197 -145 q-9 23 -25 44 q29 21 29 62 l0 397 l-150 0 l0 46 l196 0 l0 -451 l132 86 ZM459 222 l0 -210 l374 0 l0 210 l-374 0 ZM412 266 l469 0 l0 -337 l-48 0 l0 39 l-374 0 l0 -42 l-47 0 l0 340 ZM581 572 q-14 -63 -40 -164 l239 0 q9 69 19 164 l-218 0 ZM950 408 l0 -45 l-626 0 l0 45 l167 0 q23 83 41 164 l-137 0 l0 43 l147 0 q16 68 29 135 l-212 0 l0 44 l556 0 l0 -44 l-294 0 q-20 -92 -30 -135 l217 0 l7 4 l34 -5 q-8 -105 -24 -206 l125 0 Z" /><glyph glyph-name="" unicode="&#x8bf7;" d="M269 625 q-50 66 -145 150 l31 30 q97 -82 146 -144 l-32 -36 ZM373 148 q7 -21 19 -40 q-184 -142 -196 -158 q-11 24 -28 41 q46 30 46 80 l0 398 l-167 0 l0 47 l214 0 l0 -452 l112 84 ZM820 127 l0 97 l-344 0 l0 -97 l344 0 ZM476 354 l0 -92 l344 0 l0 92 l-344 0 ZM866 -8 q0 -40 -29 -51 q-26 -9 -138 -7 q-3 16 -15 42 q89 -3 117 -1 q19 1 19 18 l0 94 l-344 0 l0 -158 l-46 0 l0 466 l436 0 l0 -403 ZM952 505 l0 -41 l-596 0 l0 41 l269 0 l0 86 l-217 0 l0 39 l217 0 l0 78 l-239 0 l0 40 l239 0 l0 84 l47 0 l0 -84 l252 0 l0 -40 l-252 0 l0 -78 l220 0 l0 -39 l-220 0 l0 -86 l280 0 Z" /><glyph glyph-name="" unicode="&#x8bfe;" d="M246 635 q-46 64 -136 145 l32 29 q90 -76 138 -139 l-34 -35 ZM356 182 q10 -25 18 -37 q-181 -150 -191 -166 q-14 24 -32 35 q51 39 51 94 l0 365 l-152 0 l0 45 l198 0 l0 -422 l108 86 ZM440 452 l180 0 l0 127 l-180 0 l0 -127 ZM440 621 l180 0 l0 125 l-180 0 l0 -125 ZM831 746 l-166 0 l0 -125 l166 0 l0 125 ZM831 579 l-166 0 l0 -127 l166 0 l0 127 ZM705 263 q107 -163 257 -246 q-19 -16 -34 -37 q-155 100 -262 271 l0 -324 l-47 0 l0 324 q-111 -189 -286 -282 q-16 24 -32 37 q171 79 280 257 l-244 0 l0 45 l282 0 l0 101 l-224 0 l0 380 l482 0 l0 -380 l-211 0 l0 -101 l284 0 l0 -45 l-245 0 Z" /><glyph glyph-name="" unicode="&#x8c03;" d="M269 624 q-50 68 -148 153 l33 29 q105 -89 149 -149 l-34 -33 ZM629 444 l0 122 l-123 0 l0 40 l123 0 l0 96 l42 0 l0 -96 l127 0 l0 -40 l-127 0 l0 -122 l155 0 l0 -40 l-344 0 l0 40 l147 0 ZM553 268 l0 -144 l186 0 l0 144 l-186 0 ZM553 84 l0 -45 l-40 0 l0 269 l267 0 l0 -224 l-227 0 ZM916 -3 q0 -45 -31 -58 q-29 -10 -136 -8 q-5 22 -18 45 q29 -1 120 -1 q21 1 21 21 l0 742 l-438 0 l0 -318 q0 -338 -113 -493 q-10 13 -36 26 q41 56 68 141 q-158 -116 -171 -134 q-8 17 -31 37 q52 34 52 93 l0 379 l-153 0 l0 47 l200 0 l0 -443 l85 60 q7 -22 18 -39 q37 124 37 326 l0 362 l526 0 l0 -785 Z" /><glyph glyph-name="" unicode="&#x2f95;&#x8c37;" d="M876 545 q-91 108 -273 238 l38 26 q185 -130 275 -232 l-40 -32 ZM396 785 q-106 -138 -264 -242 q-20 22 -39 35 q157 92 257 225 l46 -18 ZM760 318 q-158 103 -260 238 q-102 -136 -265 -238 l525 0 ZM731 13 l0 261 l-454 0 l0 -261 l454 0 ZM541 616 q-10 -16 -14 -24 q159 -221 432 -314 q-22 -22 -36 -45 q-67 26 -142 72 l0 -378 l-50 0 l0 42 l-454 0 l0 -44 l-48 0 l0 389 q-81 -48 -151 -74 q-8 21 -27 46 q134 44 259 143 q125 99 191 212 l40 -25 Z" /><glyph glyph-name="" unicode="&#x8c61;" d="M413 461 q55 52 91 129 l-294 0 l0 -129 l203 0 ZM319 721 q-64 -62 -101 -91 l282 0 q38 36 73 91 l-254 0 ZM795 590 l-243 0 q-32 -75 -82 -129 l325 0 l0 129 ZM841 368 q-63 -43 -148 -90 q81 -180 249 -251 q-23 -19 -31 -40 q-169 81 -257 271 q-24 -13 -67 -33 q41 -80 34 -153 q-7 -71 -57 -104 q-39 -27 -96 -27 q-19 0 -87 2 q-2 24 -13 45 q36 -4 92 -4 q47 0 72 17 q35 23 42 74 q6 53 -21 116 q-168 -134 -426 -208 q-14 24 -31 38 q275 66 439 206 q-20 32 -46 64 q-133 -99 -347 -159 q-10 20 -29 37 q222 54 349 149 q-33 34 -80 65 q-108 -76 -278 -123 q-11 22 -26 39 q178 42 286 121 l-200 0 l0 170 q-32 -23 -72 -46 q-14 22 -32 32 q192 106 296 260 l52 -10 l-50 -63 l244 0 l8 2 l33 -21 q-33 -61 -85 -114 l284 0 l0 -210 l-413 0 l-14 -13 q98 -64 154 -151 q138 69 233 141 l39 -29 Z" /><glyph glyph-name="" unicode="&#x8d1f;" d="M340 704 q-100 -135 -236 -229 q-18 20 -36 32 q197 133 295 324 l54 -10 q-17 -31 -46 -74 l277 0 l9 2 l31 -21 q-45 -90 -119 -181 l240 0 l0 -428 l-49 0 l0 384 l-502 0 l0 -384 l-48 0 l0 428 l303 0 q60 67 108 157 l-281 0 ZM533 426 q-17 -233 -92 -331 q-92 -121 -339 -166 q-8 22 -24 40 q237 41 322 152 q68 88 83 305 l50 0 ZM557 135 q211 -90 351 -173 l-37 -34 q-139 87 -344 175 l30 32 Z" /><glyph glyph-name="" unicode="&#x8d23;" d="M474 311 l48 0 l0 -88 q0 -95 -66 -155 q-97 -89 -354 -141 q-11 18 -28 39 q248 45 340 124 q60 51 60 133 l0 88 ZM757 104 l0 246 l-508 0 l0 -248 l-48 0 l0 291 l604 0 l0 -289 l-48 0 ZM548 114 q220 -61 380 -145 l-26 -42 q-148 83 -379 152 l25 35 ZM940 506 l0 -42 l-877 0 l0 42 l414 0 l0 86 l-311 0 l0 39 l311 0 l0 81 l-358 0 l0 41 l358 0 l0 79 l47 0 l0 -79 l361 0 l0 -41 l-361 0 l0 -81 l322 0 l0 -39 l-322 0 l0 -86 l416 0 Z" /><glyph glyph-name="" unicode="&#x8d35;" d="M473 314 l49 0 l0 -72 q0 -97 -62 -161 q-94 -95 -342 -154 q-13 25 -31 39 q240 52 329 137 q57 55 57 139 l0 72 ZM746 96 l0 259 l-494 0 l0 -260 l-48 0 l0 302 l591 0 l0 -301 l-49 0 ZM548 114 q212 -62 356 -140 l-26 -41 q-130 74 -355 146 l25 35 ZM475 624 l0 95 l-246 0 l0 -95 l246 0 ZM524 719 l0 -95 l248 0 l0 95 l-248 0 ZM942 508 l0 -43 l-881 0 l0 43 l414 0 l0 77 l-292 0 l0 173 l292 0 l0 74 l49 0 l0 -74 l295 0 l0 -173 l-295 0 l0 -77 l418 0 Z" /><glyph glyph-name="" unicode="&#x8d3a;" d="M849 730 l-232 0 l0 -207 l232 0 l0 207 ZM896 479 l-324 0 l0 295 l324 0 l0 -295 ZM745 96 l0 270 l-485 0 l0 -272 l-48 0 l0 317 l583 0 l0 -315 l-50 0 ZM279 703 q-32 -198 -207 -265 q-12 24 -30 37 q161 59 191 228 l-153 0 l0 46 l160 0 q5 38 6 81 l47 0 q-4 -56 -7 -81 l207 0 q0 -16 -1 -23 q-9 -211 -32 -238 q-17 -17 -53 -20 q-66 0 -110 3 q-2 22 -13 41 q58 -5 106 -5 q23 0 29 9 q18 20 25 187 l-165 0 ZM524 246 q0 -99 -62 -164 q-94 -98 -341 -158 q-16 25 -30 39 q239 54 327 141 q57 57 57 143 l0 73 l49 0 l0 -74 ZM548 115 q219 -71 349 -146 l-27 -41 q-139 83 -348 151 l26 36 Z" /><glyph glyph-name="" unicode="&#x8d5b;" d="M121 613 l-45 0 l0 145 l416 0 q-16 34 -35 65 l46 12 q26 -35 43 -77 l383 0 l0 -145 l-47 0 l0 103 l-761 0 l0 -103 ZM528 228 q-22 -151 -114 -214 q-91 -61 -318 -84 q-9 26 -20 41 q219 20 302 72 q84 53 102 185 l48 0 ZM546 93 q224 -55 372 -121 l-26 -39 q-142 68 -371 127 l25 33 ZM739 293 q-53 39 -91 84 l-290 0 q-37 -42 -96 -84 l477 0 ZM372 417 l260 0 l0 78 l-260 0 l0 -78 ZM372 530 l260 0 l0 73 l-260 0 l0 -73 ZM700 377 q100 -102 258 -145 q-19 -15 -31 -38 q-84 29 -159 78 l0 -207 l-46 0 l0 187 l-454 0 l0 -191 l-45 0 l0 207 q-69 -45 -149 -75 q-14 21 -30 36 q153 48 259 148 l-243 0 l0 40 l265 0 l0 78 l-148 0 l0 35 l148 0 l0 73 l-166 0 l0 36 l166 0 l0 52 l47 0 l0 -52 l260 0 l0 52 l45 0 l0 -52 l161 0 l0 -36 l-161 0 l0 -73 l147 0 l0 -35 l-147 0 l0 -78 l264 0 l0 -40 l-241 0 Z" /><glyph glyph-name="" unicode="&#x8d5e;" d="M232 603 q-18 -151 -159 -199 q-9 18 -27 32 q127 38 142 167 l-126 0 l0 39 l208 0 l0 78 l-108 0 q-21 -39 -37 -59 q-17 14 -39 21 q47 54 70 142 l44 -5 q-9 -30 -21 -60 l91 0 l0 74 l46 0 l0 -74 l140 0 l0 -39 l-140 0 l0 -78 l168 0 l0 -39 l-122 0 l0 -109 l132 32 q-1 -16 1 -35 q-174 -50 -191 -61 q-6 15 -20 37 q35 18 35 60 l0 76 l-87 0 ZM754 84 l0 269 l-503 0 l0 -271 l-48 0 l0 314 l600 0 l0 -312 l-49 0 ZM523 208 q0 -205 -391 -280 q-6 22 -24 42 q368 69 368 240 l0 79 l47 0 l0 -81 ZM546 116 q213 -67 349 -145 l-27 -43 q-134 79 -348 151 l26 37 ZM885 475 q15 0 19 10 q5 10 6 52 q14 -10 39 -16 q-3 -50 -15 -68 q-12 -17 -42 -17 l-86 0 q-39 0 -52 11 q-13 11 -13 46 l0 110 l-71 0 q-9 -73 -42 -114 q-34 -43 -108 -67 q-10 18 -27 34 q118 33 134 147 l-119 0 l0 39 l189 0 l0 75 l-109 0 q-24 -40 -42 -59 q-17 13 -36 20 q51 58 78 146 l43 -5 q-11 -34 -25 -64 l91 0 l0 77 l46 0 l0 -77 l153 0 l0 -38 l-153 0 l0 -75 l191 0 l0 -39 l-151 0 l0 -110 q0 -12 5 -15 q4 -3 21 -3 l76 0 Z" /><glyph glyph-name="" unicode="&#x8d60;" d="M570 707 q-15 55 -57 113 l37 15 q44 -59 60 -110 l-40 -18 ZM136 178 l-40 0 l0 602 l293 0 l0 -601 l-41 0 l0 559 l-212 0 l0 -560 ZM260 384 q0 -325 -188 -456 q-9 17 -27 32 q175 113 175 424 l0 277 l40 0 l0 -277 ZM287 161 q84 -90 127 -163 l-33 -28 q-42 75 -125 168 l31 23 ZM524 262 l0 -107 l297 0 l0 107 l-297 0 ZM821 16 l0 99 l-297 0 l0 -99 l297 0 ZM481 303 l384 0 l0 -364 l-44 0 l0 36 l-297 0 l0 -40 l-43 0 l0 368 ZM540 612 q56 -87 78 -154 l-34 -15 q-22 71 -76 158 l32 11 ZM725 457 q51 88 77 158 l35 -17 q-44 -94 -83 -155 l-29 14 ZM861 664 l-170 0 l0 -257 l170 0 l0 257 ZM484 407 l169 0 l0 257 l-169 0 l0 -257 ZM904 704 l0 -338 l-462 0 l0 338 l288 0 q39 57 72 131 l45 -18 q-44 -75 -71 -113 l128 0 Z" /><glyph glyph-name="" unicode="&#x8da3;" d="M700 706 l188 0 l9 1 l26 -9 q-21 -202 -71 -358 q66 -139 90 -216 l-39 -18 q-21 66 -70 178 q-47 -128 -114 -212 q-16 22 -35 34 q72 82 123 234 q-61 128 -123 228 l36 16 q43 -71 105 -188 q35 126 52 268 l-177 0 l0 42 ZM626 746 l-134 0 l0 -136 l134 0 l0 136 ZM492 204 q53 15 134 41 l0 131 l-134 0 l0 -172 ZM626 568 l-134 0 l0 -151 l134 0 l0 151 ZM450 746 l-50 0 l0 43 l316 0 l0 -43 l-48 0 l0 -489 l46 14 l7 -38 l-53 -17 l0 -171 l-42 0 l0 158 l-240 -77 l-13 43 l77 22 l0 555 ZM285 50 q87 -50 277 -50 q351 0 395 1 q-15 -20 -21 -48 l-373 0 q-182 0 -272 41 q-99 44 -150 162 q-18 -133 -74 -227 q-17 21 -34 28 q83 141 79 428 l42 -2 q0 -88 -3 -134 q31 -111 89 -166 l0 394 l-186 0 l0 44 l169 0 l0 139 l-143 0 l0 44 l143 0 l0 128 l45 0 l0 -128 l128 0 l0 -44 l-128 0 l0 -139 l146 0 l0 -44 l-129 0 l0 -150 l126 0 l0 -45 l-126 0 l0 -232 Z" /><glyph glyph-name="" unicode="&#x8f6c;" d="M449 190 l-147 -31 l0 -228 l-47 0 l0 218 q-66 -15 -195 -40 l-12 48 l207 38 l0 162 l-97 0 q-56 0 -71 -13 q-11 38 -15 45 q14 3 47 81 q30 69 64 193 l-130 0 l0 46 l143 0 q19 76 27 123 l49 -11 q-17 -71 -29 -112 l170 0 l0 -46 l-183 0 q-44 -150 -96 -261 l121 0 l0 160 l47 0 l0 -160 l119 0 l0 -45 l-119 0 l0 -153 l144 28 l3 -42 ZM638 475 l-43 -138 l266 0 l8 4 l35 -18 q-63 -96 -182 -252 q77 -57 125 -105 l-32 -38 q-103 110 -266 211 l31 30 q41 -24 107 -71 q96 129 139 193 l-299 0 q32 90 61 184 l-163 0 l0 46 l177 0 q24 81 41 142 l-176 0 l0 46 l189 0 q6 20 33 123 l48 -6 l-31 -117 l209 0 l0 -46 l-222 0 l-41 -142 l301 0 l0 -46 l-315 0 Z" /><glyph glyph-name="" unicode="&#x8f7d;" d="M864 658 q-39 56 -128 123 l33 24 q91 -64 129 -121 l-34 -26 ZM591 91 l-196 -21 l0 -140 l-47 0 l0 134 l-270 -29 l-6 46 l276 27 l0 121 l-137 0 q-63 0 -79 -14 q-10 37 -16 47 q16 2 43 51 q12 19 46 90 l-129 0 l0 43 l148 0 q27 67 37 104 l49 -13 q-3 -9 -36 -91 l317 0 l0 -43 l-337 0 q-39 -84 -69 -131 l163 0 l0 95 l47 0 l0 -95 l170 0 l0 -43 l-170 0 l0 -116 l196 19 l0 -41 ZM892 490 q-57 -197 -153 -347 q52 -161 132 -161 q37 0 45 171 q17 -17 40 -24 q-8 -112 -25 -152 q-19 -42 -64 -42 q-99 0 -161 160 q-73 -101 -158 -167 q-18 20 -37 31 q98 73 178 191 q-44 145 -62 409 l-567 0 l0 42 l256 0 l0 102 l-204 0 l0 42 l204 0 l0 88 l47 0 l0 -88 l184 0 l0 -42 l-184 0 l0 -102 l263 0 q-5 99 -7 230 l48 0 q0 -139 5 -230 l274 0 l0 -42 l-273 0 q13 -211 49 -356 q83 141 127 300 l43 -13 Z" /><glyph glyph-name="" unicode="&#x8f85;" d="M890 711 q-47 39 -129 93 l31 23 q70 -42 129 -88 l-31 -28 ZM419 185 l-113 -24 l0 -228 l-44 0 l0 219 l-204 -43 l-12 48 l216 40 l0 161 l-110 0 q-53 0 -68 -13 l-1 -1 l0 5 q-5 22 -15 41 q16 3 44 82 q22 54 59 191 l-123 0 l0 45 l134 0 q15 75 22 123 l48 -10 q-11 -59 -24 -113 l173 0 l0 -45 l-184 0 q-40 -152 -85 -261 l130 0 l0 161 l44 0 l0 -161 l98 0 l0 -44 l-98 0 l0 -152 l110 21 l3 -42 ZM717 497 l0 -6 l-1 0 l0 -121 l151 0 l0 127 l-150 0 ZM867 193 l0 134 l-151 0 l0 -134 l151 0 ZM673 193 l0 134 l-151 0 l0 -134 l151 0 ZM522 497 l0 -127 l151 0 l0 121 l-2 0 l0 6 l-149 0 ZM717 645 l0 -104 l195 0 l0 -551 q0 -40 -24 -50 q-21 -9 -101 -9 q-2 12 -16 45 q20 -1 82 -1 q14 1 14 14 l0 161 l-151 0 l0 -216 l-43 0 l0 216 l-151 0 l0 -221 l-44 0 l0 612 l193 0 l0 104 l-226 0 l0 44 l226 0 l0 144 l46 0 l0 -144 l234 0 l0 -44 l-234 0 Z" /><glyph glyph-name="" unicode="&#x8f91;" d="M838 758 l-300 0 l0 -122 l300 0 l0 122 ZM885 596 l-392 0 l0 203 l392 0 l0 -203 ZM299 159 l0 -228 l-45 0 l0 218 l-193 -40 l-13 48 q73 12 206 39 l0 161 l-97 0 q-56 0 -70 -14 q-10 37 -15 46 q13 3 44 82 q26 65 59 191 l-121 0 l0 46 l131 0 q14 64 23 123 l48 -10 q-12 -64 -25 -113 l180 0 l0 -46 l-190 0 q-39 -145 -87 -260 l120 0 l0 161 l45 0 l0 -161 l109 0 l0 -45 l-109 0 l0 -153 l128 26 l4 -44 l-132 -27 ZM549 73 q124 7 286 20 l0 98 l-286 0 l0 -118 ZM549 483 l0 -105 l286 0 l0 105 l-286 0 ZM549 232 l286 0 l0 106 l-286 0 l0 -106 ZM954 60 l-73 -6 l0 -127 l-46 0 l0 123 l-424 -32 l-8 45 l100 6 l0 414 l-73 0 l0 43 l520 0 l0 -43 l-69 0 l0 -387 l74 6 l-1 -42 Z" /><glyph glyph-name="" unicode="&#x8fbe;" d="M888 117 q-98 145 -281 337 q-59 -243 -250 -345 q-12 18 -34 35 q219 114 259 439 l-261 0 l0 47 l266 0 q7 67 11 200 l49 0 q-4 -120 -12 -200 l304 0 l0 -47 l-309 0 q-3 -26 -11 -74 q217 -225 310 -360 l-41 -32 ZM219 599 q-41 86 -125 190 l40 19 q88 -102 128 -186 l-43 -23 ZM253 123 q12 -6 36 -26 q30 -27 49 -40 q75 -53 259 -53 q186 0 358 17 q-12 -27 -14 -50 q-167 -10 -345 -10 q-193 0 -275 61 l-92 66 q-44 0 -150 -137 l-33 38 q101 118 159 136 l0 283 l-151 0 l0 47 l199 0 l0 -332 Z" /><glyph glyph-name="" unicode="&#x8fc7;" d="M726 601 l-395 0 l0 47 l395 0 l0 182 l49 0 l0 -182 l148 0 l0 -47 l-148 0 l0 -435 q0 -51 -42 -64 q-34 -9 -180 -9 q-3 19 -19 50 q78 -2 166 -2 q26 3 26 25 l0 435 ZM430 501 q98 -117 142 -197 l-39 -24 q-43 84 -141 201 l38 20 ZM244 615 q-53 81 -151 167 l38 25 q103 -93 152 -165 l-39 -27 ZM253 124 q-7 3 84 -61 q75 -49 256 -49 q184 0 362 15 q-12 -22 -14 -50 q-160 -9 -348 -9 q-191 0 -271 56 q-92 62 -93 62 q-45 0 -147 -128 l-34 40 q103 112 158 126 l0 284 l-150 0 l0 46 l197 0 l0 -332 Z" /><glyph glyph-name="" unicode="&#x8fd4;" d="M437 521 q-4 -279 -120 -420 q-10 13 -38 28 q110 137 110 410 l0 216 q333 18 480 56 l40 -38 q-160 -42 -472 -57 l0 -150 l406 0 l10 2 l28 -13 q-49 -158 -162 -279 q119 -98 176 -157 l-39 -35 q-64 69 -169 160 q-111 -106 -249 -161 q-13 25 -28 39 q133 50 243 151 q-85 72 -177 141 l35 27 q105 -80 173 -136 q94 99 138 216 l-385 0 ZM225 607 q-53 71 -137 160 l37 23 q97 -99 139 -155 l-39 -28 ZM236 94 q11 -5 33 -20 q28 -19 45 -29 q75 -40 258 -40 q212 0 379 15 q-11 -26 -14 -49 q-164 -10 -366 -10 q-187 0 -269 47 q-97 52 -93 52 q-42 0 -137 -108 l-30 40 q91 91 146 105 l0 309 l-135 0 l0 46 l183 0 l0 -358 Z" /><glyph glyph-name="" unicode="&#x8fd8;" d="M589 514 q-114 -150 -262 -247 q-18 24 -36 38 q239 144 361 406 l-330 0 l0 48 l597 0 l0 -48 l-214 0 q-29 -63 -68 -126 l0 -524 l-48 0 l0 453 ZM714 534 q152 -144 223 -230 l-33 -34 q-92 113 -223 237 l33 27 ZM250 616 q-65 86 -160 169 l35 25 q103 -87 163 -164 l-38 -30 ZM237 103 q11 -6 35 -26 q30 -24 50 -38 q77 -51 268 -51 q190 0 375 17 q-11 -27 -15 -55 q-190 -11 -361 -11 q-198 0 -284 59 l-94 66 q-41 0 -140 -135 l-37 43 q96 117 155 135 l0 336 l-141 0 l0 48 l189 0 l0 -388 Z" /><glyph glyph-name="" unicode="&#x8fd9;" d="M613 677 q-24 65 -78 146 l45 14 q60 -90 79 -143 l-46 -17 ZM860 92 q-86 86 -229 201 q-119 -128 -312 -204 q-9 20 -30 43 q188 68 305 191 q-143 112 -265 196 l34 28 q144 -99 261 -190 q90 110 138 266 l-464 0 l0 45 l645 0 l0 -45 l-130 0 q-52 -175 -151 -295 q160 -125 237 -200 l-39 -36 ZM217 605 q-45 75 -144 156 l37 25 q97 -76 147 -152 l-40 -29 ZM239 86 q12 -4 35 -19 q32 -21 49 -30 q73 -40 254 -40 q204 0 377 17 q-13 -31 -15 -56 q-168 -10 -363 -10 q-185 0 -266 45 q-89 49 -92 49 q-42 0 -138 -103 l-34 45 q89 85 147 101 l0 323 l-139 0 l0 46 l185 0 l0 -368 Z" /><glyph glyph-name="" unicode="&#x8fed;" d="M865 73 q-78 121 -247 262 q-61 -174 -258 -270 q-10 17 -32 37 q215 99 257 295 l-282 0 l0 45 l290 0 q7 48 7 119 l0 59 l-169 0 q-33 -74 -74 -129 q-29 17 -44 21 q89 112 133 290 l47 -10 q-18 -64 -42 -127 l149 0 l0 167 l48 0 l0 -167 l244 0 l0 -45 l-244 0 l0 -59 q0 -70 -6 -119 l291 0 l0 -45 l-299 0 l-4 -17 q188 -150 273 -277 l-38 -30 ZM234 604 q-46 74 -146 165 l37 23 q102 -89 148 -160 l-39 -28 ZM238 102 q-4 1 89 -55 q74 -44 256 -44 q208 0 370 15 q-12 -24 -14 -49 q-152 -10 -356 -10 q-188 0 -270 50 l-92 55 q-44 0 -142 -114 l-31 38 q92 94 144 112 l0 332 l-136 0 l0 46 l182 0 l0 -376 Z" /><glyph glyph-name="" unicode="&#x8ff0;" d="M842 657 q-47 57 -139 123 l33 23 q93 -65 140 -118 l-34 -28 ZM601 533 q-107 -258 -262 -386 q-11 17 -34 36 q168 126 271 400 l-253 0 l0 46 l278 0 l0 194 l48 0 l0 -194 l285 0 l0 -46 l-277 0 q190 -201 277 -366 l-41 -27 q-72 145 -244 340 l0 -470 l-48 0 l0 473 ZM236 591 q-49 75 -154 177 l38 22 q100 -91 155 -174 l-39 -25 ZM259 99 q11 -5 34 -21 q29 -21 45 -31 q74 -43 253 -43 q201 0 363 15 q-11 -24 -15 -49 q-165 -11 -349 -11 q-185 0 -267 51 q-92 54 -90 54 q-46 0 -148 -114 l-32 39 q101 101 160 115 l0 328 l-158 0 l0 46 l204 0 l0 -379 Z" /><glyph glyph-name="" unicode="&#x901a;" d="M656 542 l0 -108 l207 0 l0 108 l-207 0 ZM863 282 l0 112 l-207 0 l0 -112 l207 0 ZM611 282 l0 112 l-200 0 l0 -112 l200 0 ZM411 542 l0 -108 l200 0 l0 108 l-200 0 ZM491 711 q73 -27 152 -62 q101 42 179 102 l-461 0 l0 42 l508 0 l10 2 l31 -23 q-86 -83 -220 -144 q67 -32 90 -46 l129 0 l0 -458 q0 -40 -29 -51 q-24 -8 -136 -8 q-4 19 -15 42 q28 -1 116 -1 q18 1 18 18 l0 118 l-207 0 l0 -172 l-45 0 l0 172 l-200 0 l0 -176 l-46 0 l0 516 l321 0 q-106 55 -226 100 l31 29 ZM244 594 q-56 75 -167 170 l35 26 q114 -95 168 -166 l-36 -30 ZM246 103 q13 -5 37 -23 q34 -25 52 -36 q81 -50 262 -50 q185 0 366 16 q-10 -22 -14 -49 q-162 -10 -352 -10 q-188 0 -278 57 q-96 59 -98 59 q-43 0 -141 -126 l-31 37 q96 112 151 128 l0 311 l-150 0 l0 46 l196 0 l0 -360 Z" /><glyph glyph-name="" unicode="&#x90e8;" d="M552 665 l-462 0 l0 45 l219 0 q-20 58 -48 113 l42 11 q38 -73 56 -124 l193 0 l0 -45 ZM223 453 q-17 85 -68 184 l43 12 q52 -92 70 -183 l-45 -13 ZM169 248 l0 -218 l307 0 l0 218 l-307 0 ZM123 293 l401 0 l0 -347 l-48 0 l0 40 l-307 0 l0 -49 l-46 0 l0 356 ZM502 639 q-56 -147 -82 -198 l155 0 l0 -46 l-517 0 l0 46 l314 0 q43 86 82 211 l48 -13 ZM935 756 q-64 -158 -130 -299 q121 -122 121 -246 q0 -90 -42 -118 q-26 -16 -59 -19 q-28 -3 -90 -1 q-4 28 -16 48 q43 -5 89 -3 q29 3 44 11 q29 19 27 85 q0 113 -125 237 q63 130 118 280 l-190 0 l0 -805 l-45 0 l0 850 l257 0 l8 3 l33 -23 Z" /><glyph glyph-name="" unicode="&#x91cf;&#xf97e;" d="M771 765 l-543 0 l0 -67 l543 0 l0 67 ZM771 664 l-543 0 l0 -68 l543 0 l0 68 ZM819 560 l-638 0 l0 240 l638 0 l0 -240 ZM944 471 l-886 0 l0 40 l886 0 l0 -40 ZM475 206 l0 71 l-266 0 l0 -71 l266 0 ZM209 312 l266 0 l0 68 l-266 0 l0 -68 ZM804 380 l-282 0 l0 -68 l282 0 l0 68 ZM804 277 l-282 0 l0 -71 l282 0 l0 71 ZM951 -7 l0 -41 l-901 0 l0 41 l425 0 l0 71 l-344 0 l0 39 l344 0 l0 67 l-312 0 l0 247 l688 0 l0 -247 l-329 0 l0 -67 l353 0 l0 -39 l-353 0 l0 -71 l429 0 Z" /><glyph glyph-name="" unicode="&#x9500;" d="M943 780 q-66 -118 -122 -186 l-35 18 q75 99 115 189 l42 -21 ZM161 660 q-35 -64 -83 -117 q-8 16 -28 41 q90 95 138 245 l43 -11 q-16 -50 -45 -112 l222 0 l0 -46 l-247 0 ZM267 333 l148 0 l0 -45 l-148 0 l0 -246 l120 68 q3 -18 12 -41 q-180 -106 -196 -124 q-10 24 -27 41 q46 29 46 79 l0 223 l-154 0 l0 45 l154 0 l0 158 l-114 0 l0 45 l283 0 l0 -45 l-124 0 l0 -158 ZM548 593 q-31 84 -103 185 l38 18 q77 -102 105 -183 l-40 -20 ZM872 201 l0 128 l-370 0 l0 -128 l370 0 ZM502 499 l0 -127 l370 0 l0 127 l-370 0 ZM916 546 l0 -545 q0 -44 -31 -55 q-28 -9 -146 -9 q-6 27 -16 44 q103 -2 128 0 q21 1 21 19 l0 157 l-370 0 l0 -231 l-45 0 l0 619 l212 0 l0 289 l45 0 l0 -289 l202 1 Z" /><glyph glyph-name="" unicode="&#x2ed3;&#x957f;" d="M826 790 q-143 -175 -389 -297 q-15 19 -41 37 q244 108 383 278 l47 -18 ZM539 386 q122 -297 422 -388 q-21 -18 -34 -43 q-311 104 -438 431 l-176 0 l0 -379 l256 67 q0 -26 5 -43 q-302 -85 -325 -101 q-6 27 -20 46 q35 13 35 53 l0 357 l-204 0 l0 48 l204 0 l0 392 l49 0 l0 -392 l627 0 l0 -48 l-401 0 Z" /><glyph glyph-name="" unicode="&#x95f4;" d="M104 617 l48 0 l0 -692 l-48 0 l0 692 ZM156 815 q85 -74 125 -136 l-40 -27 q-35 60 -122 141 l37 22 ZM365 146 l267 0 l0 158 l-267 0 l0 -158 ZM365 346 l267 0 l0 156 l-267 0 l0 -156 ZM320 545 l357 0 l0 -441 l-357 0 l0 441 ZM896 -5 q0 -45 -29 -57 q-23 -8 -123 -8 q-11 33 -18 47 q24 -1 104 -1 q18 1 18 18 l0 733 l-489 0 l0 45 l537 0 l0 -777 Z" /><glyph glyph-name="" unicode="&#x9605;" d="M233 663 q-34 58 -114 130 l37 23 q75 -63 116 -125 l-39 -28 ZM104 617 l47 0 l0 -692 l-47 0 l0 692 ZM328 320 l338 0 l0 137 l-338 0 l0 -137 ZM715 68 q17 0 23 15 q5 16 7 76 q9 -7 39 -17 q-3 -69 -16 -92 q-12 -22 -47 -22 l-105 0 q-43 0 -57 12 q-15 12 -15 51 l0 187 l-94 0 q-13 -110 -54 -173 q-47 -70 -145 -107 q-14 23 -30 36 q92 31 135 93 q38 55 49 151 l-121 0 l0 222 l245 0 q49 64 98 169 l48 -14 q-49 -92 -93 -155 l130 0 l0 -222 l-124 0 l0 -187 q0 -15 6 -19 q5 -4 26 -4 l95 0 ZM367 665 q62 -69 87 -136 l-41 -21 q-22 63 -84 138 l38 19 ZM895 1 q0 -45 -30 -57 q-25 -9 -123 -9 q-6 25 -16 47 q81 -2 104 0 q18 1 18 19 l0 727 l-489 0 l0 44 l536 0 l0 -771 Z" /><glyph glyph-name="" unicode="&#x961f;" d="M412 772 q-52 -130 -110 -257 q102 -106 102 -223 q0 -84 -37 -108 q-17 -13 -50 -18 q-35 -3 -71 0 q-2 26 -15 46 q47 -3 68 -1 q22 0 35 9 q24 16 24 74 q0 106 -106 215 q59 130 98 237 l-191 0 l0 -819 l-46 0 l0 864 l258 0 l8 2 l33 -21 ZM681 834 q0 -202 -9 -318 q36 -174 69 -260 q82 -209 225 -294 q-23 -14 -36 -34 q-191 117 -273 454 q-53 -327 -272 -459 q-9 16 -37 33 q191 112 250 371 q34 150 35 507 l48 0 Z" /><glyph glyph-name="" unicode="&#x9650;" d="M382 773 q-54 -138 -107 -257 q99 -108 99 -225 q0 -82 -36 -107 q-18 -14 -49 -17 q-30 -3 -68 -1 q-2 25 -15 44 q50 -2 67 -1 q22 2 33 10 q24 16 24 75 q0 106 -102 216 q55 125 94 236 l-176 0 l0 -819 l-44 0 l0 864 l241 0 l8 2 l31 -20 ZM491 404 l338 0 l0 150 l-338 0 l0 -150 ZM491 742 l0 -145 l338 0 l0 145 l-338 0 ZM936 282 q-60 -52 -192 -130 q87 -127 213 -174 q-25 -28 -33 -42 q-233 102 -315 424 l-118 0 l0 -359 l198 51 q0 -29 3 -44 q-238 -67 -256 -80 q-9 24 -23 43 q31 14 31 61 l0 754 l431 0 l0 -426 l-222 0 q23 -92 69 -172 q101 59 180 126 l34 -32 Z" /><glyph glyph-name="" unicode="&#x9662;" d="M429 541 l-46 0 l0 163 l271 0 q-25 60 -64 119 l40 17 q46 -65 68 -119 l-36 -17 l280 0 l0 -163 l-46 0 l0 119 l-467 0 l0 -119 ZM463 486 l0 44 l397 0 l0 -44 l-397 0 ZM356 773 q-47 -127 -106 -258 q99 -108 99 -223 q0 -82 -37 -108 q-18 -14 -48 -17 q-30 -3 -69 -1 q-2 25 -15 44 q50 -2 67 -1 q21 2 34 10 q23 16 23 76 q0 106 -102 214 q56 129 94 237 l-165 0 l0 -819 l-44 0 l0 864 l230 0 l8 2 l31 -20 ZM885 -18 q19 0 25 23 q6 24 7 109 q17 -15 43 -19 q-4 -96 -17 -126 q-14 -31 -54 -31 l-102 0 q-44 0 -58 14 q-15 14 -15 56 l0 297 l-128 0 q-13 -154 -63 -236 q-59 -95 -192 -141 q-10 24 -29 37 q125 40 179 127 q46 72 58 213 l-151 0 l0 45 l562 0 l0 -45 l-190 0 l0 -297 q0 -16 6 -21 q5 -5 25 -5 l94 0 Z" /><glyph glyph-name="" unicode="&#x9676;" d="M350 774 q-46 -115 -114 -258 q106 -106 106 -223 q0 -81 -37 -107 q-18 -13 -51 -18 q-36 -3 -72 0 q-2 22 -15 45 q39 -6 70 -2 q22 1 38 10 q23 16 23 75 q0 109 -109 214 q52 110 100 237 l-164 0 l0 -818 l-44 0 l0 863 l230 0 l8 3 l31 -21 ZM463 274 l0 -142 l119 0 l0 188 l-197 0 l0 40 l197 0 l0 123 l-89 0 q-33 -58 -66 -97 q-23 18 -34 24 q74 84 114 202 l44 -6 q-12 -30 -36 -83 l269 0 l0 -40 l-160 0 l0 -123 l193 0 l0 -40 l-193 0 l0 -188 l116 0 l0 142 l42 0 l0 -182 l-360 0 l0 182 l41 0 ZM925 662 q-12 -651 -51 -703 q-22 -30 -65 -33 q-50 -2 -130 3 q-2 27 -13 45 q70 -6 131 -6 q25 0 36 16 q35 45 46 663 l-431 0 q-49 -102 -110 -174 q-19 19 -38 30 q112 122 173 331 l44 -11 q-20 -64 -49 -132 l457 0 l0 -29 Z" /><glyph glyph-name="" unicode="&#x969c;" d="M347 592 l355 0 q34 70 46 102 l47 -13 q-45 -88 -46 -89 l196 0 l0 -42 l-598 0 l0 42 ZM531 696 q23 -43 38 -86 l-42 -15 q-13 43 -36 90 l40 11 ZM902 702 l-508 0 l0 42 l224 0 q-21 57 -30 76 l41 13 q19 -36 37 -89 l236 0 l0 -42 ZM356 774 q-70 -166 -116 -258 q107 -105 109 -222 q0 -82 -39 -108 q-18 -13 -51 -18 q-37 -3 -74 0 q-2 22 -15 45 q37 -6 73 -2 q23 2 37 10 q24 17 24 76 q-2 109 -113 213 q55 108 104 237 l-172 0 l0 -818 l-44 0 l0 863 l238 0 l8 3 l31 -21 ZM474 250 l335 0 l0 80 l-335 0 l0 -80 ZM474 366 l335 0 l0 79 l-335 0 l0 -79 ZM953 83 l-282 0 l0 -155 l-47 0 l0 155 l-277 0 l0 43 l277 0 l0 85 l-196 0 l0 273 l428 0 l0 -273 l-185 0 l0 -85 l282 0 l0 -43 Z" /><glyph glyph-name="" unicode="&#x96c6;" d="M495 678 l-266 0 l0 -82 l266 0 l0 82 ZM495 557 l-266 0 l0 -81 l266 0 l0 81 ZM495 437 l-266 0 l0 -85 l266 0 l0 85 ZM182 620 q-49 -59 -108 -107 q-20 22 -36 29 q151 122 231 293 l51 -9 q-39 -71 -63 -106 l266 0 q-22 52 -54 102 l43 13 q45 -70 63 -115 l301 0 l0 -42 l-334 0 l0 -82 l296 0 l0 -39 l-296 0 l0 -81 l300 0 l0 -39 l-300 0 l0 -85 l371 0 l0 -42 l-684 0 l0 -33 l-47 0 l0 343 ZM575 180 q153 -130 387 -189 q-17 -17 -31 -41 q-253 74 -409 221 l0 -244 l-47 0 l0 245 q-152 -149 -402 -231 q-21 30 -33 40 q228 65 381 199 l-362 0 l0 43 l416 0 l0 76 l47 0 l0 -76 l421 0 l0 -43 l-368 0 Z" /><glyph glyph-name="" unicode="&#x9700;" d="M132 488 l-45 0 l0 187 l387 0 l0 72 l-335 0 l0 42 l723 0 l0 -42 l-341 0 l0 -72 l393 0 l0 -187 l-47 0 l0 148 l-346 0 l0 -249 l-47 0 l0 249 l-342 0 l0 -148 ZM582 462 l254 0 l0 -38 l-254 0 l0 38 ZM810 568 l0 -39 l-228 0 l0 39 l228 0 ZM170 462 l243 0 l0 -38 l-243 0 l0 38 ZM412 568 l0 -39 l-221 0 l0 39 l221 0 ZM517 308 q-17 -51 -32 -85 l389 0 l0 -241 q0 -38 -26 -47 q-21 -9 -111 -9 q-3 18 -17 42 q75 -2 94 0 q13 1 13 14 l0 198 l-184 0 l0 -245 l-45 0 l0 245 l-180 0 l0 -245 l-45 0 l0 245 l-175 0 l0 -252 l-46 0 l0 295 l287 0 q12 32 28 85 l-395 0 l0 42 l860 0 l0 -42 l-415 0 Z" /><glyph glyph-name="" unicode="&#x9759;" d="M484 466 l-436 0 l0 41 l196 0 l0 79 l-160 0 l0 40 l160 0 l0 73 l-176 0 l0 40 l176 0 l0 94 l46 0 l0 -94 l180 0 l0 -40 l-180 0 l0 -73 l165 0 l0 -40 l-165 0 l0 -79 l194 0 l0 -41 ZM388 144 l0 88 l-234 0 l0 -88 l234 0 ZM154 357 l0 -86 l234 0 l0 86 l-234 0 ZM433 -18 q0 -37 -27 -48 q-21 -8 -120 -8 q-2 9 -17 41 q25 -1 102 -1 q17 1 17 16 l0 123 l-234 0 l0 -179 l-45 0 l0 471 l324 0 l0 -415 ZM854 352 l-138 0 l0 -133 l138 0 l0 133 ZM716 395 l138 0 l0 127 l-138 0 l0 -127 ZM623 698 q-40 -75 -87 -133 l162 0 q44 52 86 133 l-161 0 ZM964 352 l-66 0 l0 -217 l-44 0 l0 41 l-138 0 l0 -187 q0 -43 -31 -54 q-26 -9 -136 -9 q-2 14 -17 46 q29 -1 119 -1 q20 0 20 19 l0 186 l-156 0 l0 43 l156 0 l0 133 l-205 0 l0 43 l205 0 l0 127 l-151 0 l0 24 q-13 -13 -19 -20 q-14 16 -36 30 q109 108 170 277 l44 -11 q-17 -46 -35 -82 l165 0 l8 2 l29 -20 q-39 -82 -99 -157 l151 0 l0 -170 l66 0 l0 -43 Z" /><glyph glyph-name="" unicode="&#x2faf;&#x9762;" d="M839 522 l-175 0 l0 -496 l175 0 l0 496 ZM160 26 l168 0 l0 496 l-168 0 l0 -496 ZM619 522 l-246 0 l0 -135 l246 0 l0 135 ZM373 26 l246 0 l0 141 l-246 0 l0 -141 ZM619 345 l-246 0 l0 -136 l246 0 l0 136 ZM519 714 q-51 -163 -45 -146 l414 0 l0 -642 l-49 0 l0 55 l-679 0 l0 -55 l-48 0 l0 642 l313 0 q20 61 38 146 l-398 0 l0 47 l873 0 l0 -47 l-419 0 Z" /><glyph glyph-name="" unicode="&#x97e9;" d="M130 310 l241 0 l0 93 l-241 0 l0 -93 ZM130 443 l241 0 l0 91 l-241 0 l0 -91 ZM273 164 l175 0 l0 -45 l-175 0 l0 -198 l-47 0 l0 198 l-180 0 l0 45 l180 0 l0 104 l-140 0 l0 307 l140 0 l0 101 l-170 0 l0 44 l170 0 l0 115 l47 0 l0 -115 l166 0 l0 -44 l-166 0 l0 -101 l143 0 l0 -307 l-143 0 l0 -104 ZM951 329 q0 -16 -1 -23 q-16 -237 -43 -265 q-16 -19 -47 -20 q-38 -2 -84 2 q-2 23 -13 42 q48 -4 81 -4 q19 0 27 9 q20 26 33 213 l-190 0 l0 -355 l-47 0 l0 355 l-204 0 l0 46 l204 0 l0 137 l-176 0 l0 46 l176 0 l0 136 l-198 0 l0 46 l198 0 l0 140 l47 0 l0 -140 l221 0 l0 -46 l-221 0 l0 -136 l182 0 l0 -46 l-182 0 l0 -137 l237 0 Z" /><glyph glyph-name="" unicode="&#x2eda;&#x9875;" d="M478 470 l48 0 l0 -183 q0 -123 -71 -196 q-100 -105 -370 -164 q-8 18 -27 41 q259 53 354 148 q66 64 66 172 l0 182 ZM579 152 q215 -96 338 -190 l-30 -38 q-123 93 -336 196 l28 32 ZM929 774 l0 -46 l-401 0 q-38 -88 -64 -137 l357 0 l0 -466 l-50 0 l0 420 l-537 0 l0 -420 l-48 0 l0 466 l227 0 q32 59 59 137 l-393 0 l0 46 l850 0 Z" /><glyph glyph-name="" unicode="&#x9876;" d="M273 711 l0 -672 q0 -48 -35 -61 q-30 -11 -153 -9 q-7 25 -19 47 q111 -2 136 0 q24 1 24 22 l0 673 l-173 0 l0 46 l371 0 l0 -46 l-151 0 ZM722 296 q0 -120 -46 -197 q-66 -111 -239 -174 q-8 18 -28 38 q166 55 226 156 q40 67 40 177 l0 211 l47 0 l0 -211 ZM741 133 q135 -90 211 -171 l-33 -37 q-77 84 -211 175 l33 33 ZM954 784 l0 -44 l-236 0 q-36 -104 -42 -118 l237 0 l0 -463 l-46 0 l0 418 l-336 0 l0 -419 l-45 0 l0 464 l143 0 q12 31 37 118 l-223 0 l0 44 l511 0 Z" /><glyph glyph-name="" unicode="&#x9886;" d="M670 612 q19 50 39 117 l-199 0 l0 44 l433 0 l0 -44 l-187 0 q-13 -38 -42 -117 l196 0 l0 -470 l-45 0 l0 429 l-283 0 l0 -430 l-44 0 l0 471 l132 0 ZM459 498 q-63 97 -190 225 q-81 -155 -191 -255 q-14 16 -34 28 q153 133 227 337 l45 -11 q-11 -27 -27 -61 q132 -125 200 -226 l-30 -37 ZM246 573 q64 -62 97 -117 l-36 -23 q-34 59 -95 120 l34 20 ZM443 356 q-57 -136 -166 -285 q60 -57 95 -103 l-34 -29 q-74 100 -214 216 l33 24 q45 -37 88 -77 q75 99 136 226 l-280 0 l0 44 l303 0 l8 3 l31 -19 ZM746 518 q-2 -305 -46 -410 q-53 -130 -235 -185 q-6 16 -26 36 q174 49 223 170 q39 95 41 389 l43 0 ZM760 128 q131 -93 201 -167 l-29 -32 q-78 83 -202 174 l30 25 Z" /><glyph glyph-name="" unicode="&#x9891;" d="M681 610 q24 63 40 118 l-199 0 l0 44 l422 0 l0 -44 l-174 0 q-24 -72 -43 -118 l185 0 l0 -469 l-46 0 l0 428 l-273 0 l0 -429 l-44 0 l0 470 l132 0 ZM262 469 l-215 0 l0 44 l83 0 l0 231 l42 0 l0 -231 l106 0 l0 320 l45 0 l0 -136 l154 0 l0 -43 l-154 0 l0 -141 l178 0 l0 -44 l-194 0 l0 -304 l-45 0 l0 304 ZM193 385 q-38 -131 -107 -219 q-21 16 -38 25 q67 79 103 203 l42 -9 ZM484 373 q-86 -334 -393 -450 q-8 19 -28 37 q293 104 379 425 l42 -12 ZM753 515 q-3 -306 -46 -409 q-54 -129 -236 -182 q-7 19 -27 35 q176 48 225 167 q39 94 41 389 l43 0 ZM760 121 q134 -94 201 -164 l-31 -33 q-76 79 -199 169 l29 28 Z" /><glyph glyph-name="" unicode="&#x2edb;&#x98ce;" d="M666 640 q-49 -154 -127 -290 q135 -172 199 -275 l-45 -27 q-57 95 -180 258 q-110 -178 -235 -267 q-15 19 -38 37 q127 81 242 269 q-101 131 -197 239 l40 22 q83 -93 184 -217 q70 124 115 263 l42 -12 ZM828 776 q-1 -418 9 -565 q15 -225 65 -225 q20 0 24 151 q17 -19 35 -28 q-5 -103 -16 -137 q-13 -35 -47 -35 q-79 0 -101 202 q-14 128 -17 591 l-563 0 l0 -259 q0 -366 -129 -545 q-15 20 -40 33 q121 165 121 512 l0 305 l659 0 Z" /><glyph glyph-name="" unicode="&#x9910;" d="M582 701 q71 -34 144 -78 q73 58 109 123 l-286 0 l0 39 l311 0 l6 2 l28 -14 q-38 -99 -130 -173 q91 -59 134 -98 l-30 -33 q-48 48 -139 104 q-59 -41 -134 -69 q-12 23 -27 37 q63 20 122 57 q-85 50 -138 74 l30 29 ZM208 649 q-50 -61 -127 -110 q-14 18 -32 26 q110 66 161 157 l45 -8 l-19 -29 l44 0 l0 148 l43 0 l0 -53 l180 0 l0 -37 l-180 0 l0 -58 l107 0 l9 3 l29 -17 q-97 -190 -379 -274 q-7 14 -26 36 q93 23 186 77 q-47 34 -91 59 l29 25 q63 -35 97 -61 q77 53 120 116 l-196 0 ZM857 130 q-52 -48 -122 -95 q108 -44 153 -67 l-26 -35 q-148 77 -371 151 l25 30 q74 -22 178 -63 q69 48 123 104 l40 -25 ZM748 357 q-156 67 -248 146 q-83 -79 -217 -146 l224 0 q-19 28 -56 65 l39 14 q47 -46 66 -79 l192 0 ZM719 163 l0 63 l-431 0 l0 -63 l431 0 ZM288 322 l0 -63 l431 0 l0 63 l-431 0 ZM545 551 q-12 -14 -17 -21 q158 -135 431 -195 q-17 -17 -30 -41 q-80 22 -164 56 l0 -223 l-477 0 l0 -135 l234 38 q-4 -21 -2 -38 q-285 -51 -304 -62 q-5 21 -20 41 q45 14 45 57 l0 310 q-81 -37 -159 -59 q-23 35 -31 42 q316 81 452 251 l42 -21 Z" /></font>
</defs>
</svg>
